SplineFontDB: 3.0
FontName: Boon-600i
FullName: Boon 600 Oblique
FamilyName: Boon
Weight: 600
Copyright: Copyright 2013-2015, Sungsit Sawaiwan (https://fontuni.com | uni@fontuni.com). This Font Software is licensed under the SIL Open Font License, Version 1.1 (http://scripts.sil.org/OFL).
Version: 1.0-beta1
ItalicAngle: -12
UnderlinePosition: -120
UnderlineWidth: 60
Ascent: 960
Descent: 240
InvalidEm: 0
UFOAscent: 960
UFODescent: -240
LayerCount: 2
Layer: 0 0 "Back" 1
Layer: 1 0 "Fore" 0
StyleMap: 0x0000
FSType: 0
OS2Version: 0
OS2_WeightWidthSlopeOnly: 0
OS2_UseTypoMetrics: 0
CreationTime: 1369324892
ModificationTime: 1444829109
PfmFamily: 33
TTFWeight: 600
TTFWidth: 5
LineGap: 90
VLineGap: 0
Panose: 2 0 2 3 0 0 0 0 0 0
OS2TypoAscent: 960
OS2TypoAOffset: 0
OS2TypoDescent: -240
OS2TypoDOffset: 0
OS2TypoLinegap: 90
OS2WinAscent: 1320
OS2WinAOffset: 0
OS2WinDescent: 480
OS2WinDOffset: 0
HheadAscent: 1320
HheadAOffset: 0
HheadDescent: -480
HheadDOffset: 0
OS2SubXSize: 780
OS2SubYSize: 840
OS2SubXOff: 0
OS2SubYOff: 180
OS2SupXSize: 780
OS2SupYSize: 840
OS2SupXOff: 0
OS2SupYOff: 600
OS2StrikeYSize: 60
OS2StrikeYPos: 300
OS2CapHeight: 780
OS2XHeight: 600
OS2Vendor: 'FUni'
OS2CodePages: 00010000.00000000
OS2UnicodeRanges: 81000003.1000200a.00000000.00000000
Lookup: 1 0 0 "ThaiRC.rd" { "ThaiRC.rd subtable"  } ['ss01' ('thai' <'dflt' > ) 'salt' ('thai' <'dflt' > ) 'ccmp' ('thai' <'PAL ' 'SAN ' > ) 'locl' ('thai' <'PAL ' 'SAN ' > ) ]
Lookup: 6 0 0 "ThaiContextRC.rd" { "ThaiContextRC.rd subtable"  } ['ccmp' ('thai' <'dflt' > ) ]
Lookup: 2 0 0 "ThaiDecomp" { "ThaiDecomp subtable"  } ['ccmp' ('thai' <'dflt' > ) ]
Lookup: 1 0 0 "ThaiT.0E4D" { "ThaiT.0E4D subtable"  } []
Lookup: 1 0 0 "Thai0E4D.0E48" { "Thai0E4D.0E48 subtable"  } []
Lookup: 1 0 0 "Thai0E4D.0E49" { "Thai0E4D.0E49 subtable"  } []
Lookup: 1 0 0 "Thai0E4D.0E4A" { "Thai0E4D.0E4A subtable"  } []
Lookup: 1 0 0 "Thai0E4D.0E4B" { "Thai0E4D.0E4B subtable"  } []

StartChar: .notdef
Encoding: 1114112 -1 0
GlifName: _notdef
Width: 660
VWidth: 0
Flags: HMW
LayerCount: 2
Fore
SplineSet
28 0 m 1
 156 600 l 1
 398 600 l 1
 640 600 l 1
 512 0 l 1
 270 0 l 1
 28 0 l 1
292 103 m 1
 406 103 l 1
 490 497 l 1
 376 497 l 1
 262 497 l 1
 178 103 l 1
 292 103 l 1
EndSplineSet
PickledDataWithLists: "(dp0
Vcom.fontlab.hintData
p1
(dp2
Vvhints
p3
(lp4
(dp5
Vposition
p6
L160L
sVwidth
p7
L10L
sa(dp8
g6
L190L
sg7
L10L
sa(dp9
g6
L520L
sg7
L10L
sa(dp10
g6
L550L
sg7
L10L
sasVhhints
p11
(lp12
(dp13
g6
L0L
sg7
L10L
sa(dp14
g6
L30L
sg7
L10L
sa(dp15
g6
L560L
sg7
L10L
sa(dp16
g6
L590L
sg7
L10L
sass."
EndChar

StartChar: exclam
Encoding: 33 33 5
GlifName: exclam
Width: 330
VWidth: 0
Flags: HMW
LayerCount: 2
Fore
SplineSet
138 157 m 0
 181 157 211 134 211 95 c 0
 211 89 210 83 209 76 c 0
 198 26 154 -5 104 -5 c 0
 61 -5 31 18 31 57 c 0
 31 63 32 69 33 76 c 0
 44 126 88 157 138 157 c 0
195 810 m 1
 359 810 l 1
 210 270 l 1
 114 270 l 1
 195 810 l 1
EndSplineSet
PickledDataWithLists: "(dp0
Vcom.fontlab.hintData
p1
(dp2
Vvhints
p3
(lp4
(dp5
Vposition
p6
L81L
sVwidth
p7
L10L
sa(dp8
g6
L101L
sg7
L10L
sa(dp9
g6
L125L
sg7
L10L
sa(dp10
g6
L195L
sg7
L10L
sa(dp11
g6
L210L
sg7
L10L
sa(dp12
g6
L239L
sg7
L10L
sasVhhints
p13
(lp14
(dp15
g6
L-5L
sg7
L10L
sa(dp16
g6
L122L
sg7
L10L
sa(dp17
g6
L268L
sg7
L10L
sa(dp18
g6
L826L
sg7
L10L
sass."
EndChar

StartChar: quotedbl
Encoding: 34 34 6
GlifName: quotedbl
Width: 540
VWidth: 0
Flags: HMW
LayerCount: 2
Fore
SplineSet
226 900 m 1
 356 900 l 1
 258 540 l 1
 171 540 l 1
 226 900 l 1
446 900 m 1
 576 900 l 1
 478 540 l 1
 391 540 l 1
 446 900 l 1
EndSplineSet
PickledDataWithLists: "(dp0
Vcom.fontlab.hintData
p1
(dp2
Vvhints
p3
(lp4
(dp5
Vposition
p6
L107L
sVwidth
p7
L10L
sa(dp8
g6
L196L
sg7
L10L
sa(dp9
g6
L304L
sg7
L10L
sa(dp10
g6
L313L
sg7
L10L
sa(dp11
g6
L393L
sg7
L10L
sasVhhints
p12
(lp13
(dp14
g6
L548L
sg7
L10L
sa(dp15
g6
L553L
sg7
L10L
sa(dp16
g6
L829L
sg7
L10L
sass."
EndChar

StartChar: numbersign
Encoding: 35 35 7
GlifName: numbersign
Width: 810
VWidth: 0
Flags: HMW
LayerCount: 2
Fore
SplineSet
22 198 m 1
 42 292 l 1
 183 292 l 1
 277 488 l 1
 144 488 l 1
 164 582 l 1
 323 582 l 1
 418 780 l 1
 530 780 l 1
 435 582 l 1
 607 582 l 1
 702 780 l 1
 814 780 l 1
 719 582 l 1
 834 582 l 1
 814 488 l 1
 673 488 l 1
 579 292 l 1
 712 292 l 1
 692 198 l 1
 533 198 l 1
 438 0 l 1
 326 0 l 1
 421 198 l 1
 249 198 l 1
 154 0 l 1
 42 0 l 1
 137 198 l 1
 22 198 l 1
389 488 m 1
 295 292 l 1
 467 292 l 1
 561 488 l 1
 389 488 l 1
EndSplineSet
PickledDataWithLists: "(dp0
Vcom.fontlab.hintData
p1
(dp2
Vvhints
p3
(lp4
(dp5
Vposition
p6
L111L
sVwidth
p7
L10L
sa(dp8
g6
L329L
sg7
L10L
sa(dp9
g6
L381L
sg7
L10L
sa(dp10
g6
L599L
sg7
L10L
sa(dp11
g6
L649L
sg7
L10L
sa(dp12
g6
L689L
sg7
L10L
sasVhhints
p13
(lp14
(dp15
g6
L-29L
sg7
L10L
sa(dp16
g6
L-19L
sg7
L10L
sa(dp17
g6
L241L
sg7
L7L
sa(dp18
g6
L284L
sg7
L10L
sa(dp19
g6
L521L
sg7
L7L
sa(dp20
g6
L564L
sg7
L10L
sa(dp21
g6
L819L
sg7
L10L
sa(dp22
g6
L829L
sg7
L10L
sass."
EndChar

StartChar: dollar
Encoding: 36 36 8
GlifName: dollar
Width: 660
VWidth: 0
Flags: HMW
LayerCount: 2
Fore
SplineSet
32 188 m 1
 175 196 l 1
 175 193 175 191 175 188 c 0
 175 131 218 88 289 88 c 0
 371 88 432 123 450 206 c 0
 452 216 453 224 453 232 c 0
 453 286 411 306 390 314 c 0
 342 330 278 360 233 379 c 0
 180 403 128 452 128 533 c 0
 128 547 130 562 133 578 c 0
 155 681 246 775 391 792 c 1
 414 900 l 1
 517 900 l 1
 494 791 l 1
 622 769 658 672 658 607 c 0
 658 603 658 600 658 597 c 1
 515 587 l 1
 515 590 515 593 515 596 c 0
 515 654 480 692 417 692 c 0
 357 692 290 659 273 578 c 0
 271 571 271 564 271 558 c 0
 271 511 311 490 339 478 c 0
 384 459 446 433 485 419 c 0
 546 397 597 349 597 262 c 0
 597 245 595 226 591 206 c 0
 569 103 475 7 323 -12 c 1
 300 -120 l 1
 197 -120 l 1
 220 -12 l 1
 74 6 32 107 32 176 c 0
 32 180 32 184 32 188 c 1
EndSplineSet
PickledDataWithLists: "(dp0
Vcom.fontlab.hintData
p1
(dp2
Vvhints
p3
(lp4
(dp5
Vposition
p6
L70L
sVwidth
p7
L10L
sa(dp8
g6
L78L
sg7
L10L
sa(dp9
g6
L169L
sg7
L10L
sa(dp10
g6
L319L
sg7
L10L
sa(dp11
g6
L323L
sg7
L10L
sa(dp12
g6
L382L
sg7
L10L
sa(dp13
g6
L392L
sg7
L10L
sa(dp14
g6
L504L
sg7
L10L
sa(dp15
g6
L565L
sg7
L10L
sa(dp16
g6
L604L
sg7
L10L
sa(dp17
g6
L664L
sg7
L10L
sasVhhints
p18
(lp19
(dp20
g6
L-127L
sg7
L10L
sa(dp21
g6
L46L
sg7
L10L
sa(dp22
g6
L192L
sg7
L10L
sa(dp23
g6
L584L
sg7
L10L
sa(dp24
g6
L812L
sg7
L10L
sa(dp25
g6
L916L
sg7
L10L
sass."
EndChar

StartChar: percent
Encoding: 37 37 9
GlifName: percent
Width: 780
VWidth: 0
Flags: HMW
LayerCount: 2
Fore
SplineSet
8 0 m 1
 9 7 l 1
 732 780 l 1
 819 780 l 1
 817 773 l 1
 95 0 l 1
 8 0 l 1
84 575 m 2
 88 595 l 2
 105 675 151 790 273 790 c 128
 360 790 383 732 383 670 c 0
 383 645 379 618 374 595 c 2
 370 575 l 2
 353 495 308 380 186 380 c 128
 99 380 75 439 75 502 c 0
 75 527 79 552 84 575 c 2
199 440 m 128
 229 440 266 481 286 575 c 2
 290 595 l 2
 296 621 298 644 298 662 c 0
 298 709 282 730 260 730 c 128
 230 730 192 689 172 595 c 2
 168 575 l 2
 163 549 160 528 160 510 c 0
 160 462 177 440 199 440 c 128
451 185 m 2
 456 205 l 2
 473 285 518 400 640 400 c 128
 727 400 751 341 751 278 c 0
 751 253 747 228 742 205 c 2
 737 185 l 2
 720 105 675 -10 553 -10 c 128
 466 -10 442 49 442 112 c 0
 442 137 446 162 451 185 c 2
566 50 m 128
 596 50 633 91 653 185 c 2
 658 205 l 2
 663 231 666 252 666 270 c 0
 666 318 649 340 627 340 c 128
 597 340 560 299 540 205 c 2
 535 185 l 2
 530 159 527 138 527 120 c 0
 527 72 544 50 566 50 c 128
EndSplineSet
PickledDataWithLists: "(dp0
Vcom.fontlab.hintData
p1
(dp2
Vvhints
p3
(lp4
(dp5
Vposition
p6
L50L
sVwidth
p7
L10L
sa(dp8
g6
L70L
sg7
L10L
sa(dp9
g6
L120L
sg7
L10L
sa(dp10
g6
L246L
sg7
L10L
sa(dp11
g6
L290L
sg7
L10L
sa(dp12
g6
L320L
sg7
L10L
sa(dp13
g6
L360L
sg7
L10L
sa(dp14
g6
L410L
sg7
L10L
sa(dp15
g6
L480L
sg7
L10L
sa(dp16
g6
L606L
sg7
L10L
sa(dp17
g6
L650L
sg7
L10L
sa(dp18
g6
L680L
sg7
L10L
sa(dp19
g6
L699L
sg7
L10L
sa(dp20
g6
L720L
sg7
L10L
sasVhhints
p21
(lp22
(dp23
g6
L-14L
sg7
L10L
sa(dp24
g6
L6L
sg7
L10L
sa(dp25
g6
L34L
sg7
L10L
sa(dp26
g6
L369L
sg7
L10L
sa(dp27
g6
L374L
sg7
L10L
sa(dp28
g6
L416L
sg7
L10L
sa(dp29
g6
L422L
sg7
L10L
sa(dp30
g6
L757L
sg7
L10L
sa(dp31
g6
L784L
sg7
L10L
sa(dp32
g6
L804L
sg7
L10L
sass."
EndChar

StartChar: ampersand
Encoding: 38 38 10
GlifName: ampersand
Width: 810
VWidth: 0
Flags: HMW
LayerCount: 2
Fore
SplineSet
626 157 m 1
 688 74 739 7 739 7 c 1
 738 0 l 1
 579 0 l 1
 579 0 558 29 527 72 c 1
 445 15 349 -20 248 -20 c 0
 97 -20 31 49 31 136 c 0
 31 149 32 162 35 175 c 0
 59 286 172 365 282 427 c 1
 258 473 238 527 238 579 c 0
 238 592 239 605 242 618 c 0
 267 735 364 800 472 800 c 0
 583 800 627 740 627 675 c 0
 627 664 626 654 624 643 c 0
 605 554 536 474 437 413 c 1
 470 369 518 304 567 238 c 1
 606 290 635 351 654 415 c 1
 771 398 l 1
 746 314 694 228 626 157 c 1
473 147 m 1
 424 216 368 296 330 351 c 1
 235 290 188 230 176 175 c 0
 174 167 173 159 173 152 c 0
 173 106 210 85 270 85 c 0
 349 85 417 108 473 147 c 1
453 709 m 0
 404 709 378 665 367 615 c 0
 365 606 364 597 364 587 c 0
 364 555 374 521 389 489 c 1
 455 537 494 596 504 643 c 0
 505 649 506 655 506 661 c 0
 506 693 485 709 453 709 c 0
EndSplineSet
PickledDataWithLists: "(dp0
Vcom.fontlab.hintData
p1
(dp2
Vvhints
p3
(lp4
(dp5
Vposition
p6
L66L
sVwidth
p7
L10L
sa(dp8
g6
L164L
sg7
L10L
sa(dp9
g6
L202L
sg7
L10L
sa(dp10
g6
L296L
sg7
L10L
sa(dp11
g6
L450L
sg7
L10L
sa(dp12
g6
L538L
sg7
L10L
sa(dp13
g6
L695L
sg7
L10L
sa(dp14
g6
L749L
sg7
L10L
sasVhhints
p15
(lp16
(dp17
g6
L-25L
sg7
L10L
sa(dp18
g6
L39L
sg7
L10L
sa(dp19
g6
L389L
sg7
L10L
sa(dp20
g6
L734L
sg7
L10L
sa(dp21
g6
L796L
sg7
L10L
sass."
EndChar

StartChar: quotesingle
Encoding: 39 39 11
GlifName: quotesingle
Width: 330
VWidth: 0
Flags: HMW
LayerCount: 2
Fore
SplineSet
231 900 m 1
 361 900 l 1
 263 540 l 1
 176 540 l 1
 231 900 l 1
EndSplineSet
PickledDataWithLists: "(dp0
Vcom.fontlab.hintData
p1
(dp2
Vvhints
p3
(lp4
(dp5
Vposition
p6
L110L
sVwidth
p7
L10L
sa(dp8
g6
L209L
sg7
L10L
sasVhhints
p9
(lp10
(dp11
g6
L544L
sg7
L10L
sa(dp12
g6
L832L
sg7
L10L
sass."
EndChar

StartChar: parenleft
Encoding: 40 40 12
GlifName: parenleft
Width: 390
VWidth: 0
Flags: HMW
LayerCount: 2
Fore
SplineSet
80 390 m 0
 127 612 240 785 375 913 c 1
 454 879 l 1
 335 760 248 598 204 390 c 0
 188 313 180 242 180 177 c 0
 180 67 203 -24 246 -99 c 1
 153 -133 l 1
 96 -43 60 70 60 206 c 0
 60 263 66 324 80 390 c 0
EndSplineSet
PickledDataWithLists: "(dp0
Vcom.fontlab.hintData
p1
(dp2
Vvhints
p3
(lp4
(dp5
Vposition
p6
L55L
sVwidth
p7
L10L
sa(dp8
g6
L135L
sg7
L10L
sa(dp9
g6
L270L
sg7
L10L
sasVhhints
p10
(lp11
(dp12
g6
L-112L
sg7
L10L
sa(dp13
g6
L882L
sg7
L10L
sass."
Substitution2: "Latin.subs subtable" parenleft.subs
Substitution2: "Latin.subs subtable" parenleft.subs
Substitution2: "Latin.sups subtable" parenleft.sups
Substitution2: "Latin.sups subtable" parenleft.sups
EndChar

StartChar: parenright
Encoding: 41 41 13
GlifName: parenright
Width: 390
VWidth: 0
Flags: HMW
LayerCount: 2
Fore
SplineSet
356 390 m 128
 309 168 196 -5 61 -133 c 1
 -18 -99 l 1
 101 20 188 182 232 390 c 128
 248 467 256 538 256 603 c 0
 256 713 233 804 190 879 c 1
 283 913 l 1
 340 823 376 710 376 574 c 0
 376 517 370 456 356 390 c 128
EndSplineSet
PickledDataWithLists: "(dp0
Vcom.fontlab.hintData
p1
(dp2
Vvhints
p3
(lp4
(dp5
Vposition
p6
L79L
sVwidth
p7
L10L
sa(dp8
g6
L215L
sg7
L10L
sa(dp9
g6
L295L
sg7
L10L
sasVhhints
p10
(lp11
(dp12
g6
L-112L
sg7
L10L
sa(dp13
g6
L882L
sg7
L10L
sass."
Substitution2: "Latin.subs subtable" parenright.subs
Substitution2: "Latin.subs subtable" parenright.subs
Substitution2: "Latin.sups subtable" parenright.sups
Substitution2: "Latin.sups subtable" parenright.sups
EndChar

StartChar: asterisk
Encoding: 42 42 14
GlifName: asterisk
Width: 570
VWidth: 0
Flags: HMW
LayerCount: 2
Fore
SplineSet
124 679 m 1
 186 793 l 1
 341 710 l 1
 356 900 l 1
 476 900 l 1
 410 710 l 1
 602 793 l 1
 613 679 l 1
 418 644 l 1
 521 506 l 1
 409 435 l 1
 353 604 l 1
 225 435 l 1
 144 506 l 1
 306 644 l 1
 124 679 l 1
EndSplineSet
PickledDataWithLists: "(dp0
Vcom.fontlab.hintData
p1
(dp2
Vvhints
p3
(lp4
(dp5
Vposition
p6
L84L
sVwidth
p7
L10L
sa(dp8
g6
L89L
sg7
L10L
sa(dp9
g6
L256L
sg7
L10L
sa(dp10
g6
L265L
sg7
L10L
sa(dp11
g6
L272L
sg7
L10L
sa(dp12
g6
L326L
sg7
L10L
sa(dp13
g6
L335L
sg7
L10L
sa(dp14
g6
L501L
sg7
L10L
sa(dp15
g6
L506L
sg7
L10L
sasVhhints
p16
(lp17
(dp18
g6
L392L
sg7
L10L
sa(dp19
g6
L488L
sg7
L10L
sa(dp20
g6
L495L
sg7
L10L
sa(dp21
g6
L735L
sg7
L10L
sa(dp22
g6
L742L
sg7
L10L
sa(dp23
g6
L839L
sg7
L10L
sass."
EndChar

StartChar: plus
Encoding: 43 43 15
GlifName: plus
Width: 600
VWidth: 0
Flags: HMW
LayerCount: 2
Fore
SplineSet
89 313 m 1
 109 407 l 1
 263 407 l 1
 296 565 l 1
 425 565 l 1
 392 407 l 1
 545 407 l 1
 525 313 l 1
 372 313 l 1
 338 155 l 1
 209 155 l 1
 243 313 l 1
 89 313 l 1
EndSplineSet
PickledDataWithLists: "(dp0
Vcom.fontlab.hintData
p1
(dp2
Vvhints
p3
(lp4
(dp5
Vposition
p6
L80L
sVwidth
p7
L10L
sa(dp8
g6
L250L
sg7
L10L
sa(dp9
g6
L259L
sg7
L10L
sa(dp10
g6
L340L
sg7
L10L
sa(dp11
g6
L510L
sg7
L10L
sasVhhints
p12
(lp13
(dp14
g6
L145L
sg7
L10L
sa(dp15
g6
L302L
sg7
L10L
sa(dp16
g6
L362L
sg7
L10L
sa(dp17
g6
L370L
sg7
L10L
sa(dp18
g6
L525L
sg7
L10L
sass."
EndChar

StartChar: comma
Encoding: 44 44 16
GlifName: comma
Width: 330
VWidth: 0
Flags: HMW
LayerCount: 2
Fore
SplineSet
33 73 m 0
 43 122 84 158 139 158 c 0
 197 158 219 120 219 75 c 0
 219 63 218 51 215 39 c 0
 190 -77 94 -161 15 -205 c 1
 -15 -149 l 1
 36 -121 85 -73 112 -4 c 1
 108 -4 103 -5 99 -5 c 0
 58 -5 31 18 31 55 c 0
 31 61 32 67 33 73 c 0
EndSplineSet
PickledDataWithLists: "(dp0
Vcom.fontlab.hintData
p1
(dp2
Vvhints
p3
(lp4
(dp5
Vposition
p6
L61L
sVwidth
p7
L10L
sa(dp8
g6
L170L
sg7
L10L
sa(dp9
g6
L251L
sg7
L10L
sasVhhints
p10
(lp11
(dp12
g6
L-182L
sg7
L10L
sa(dp13
g6
L48L
sg7
L10L
sa(dp14
g6
L117L
sg7
L10L
sass."
EndChar

StartChar: hyphen
Encoding: 45 45 17
GlifName: hyphen
Width: 600
VWidth: 0
Flags: HMW
LayerCount: 2
Fore
SplineSet
110 412 m 1
 546 412 l 1
 523 308 l 1
 87 308 l 1
 110 412 l 1
EndSplineSet
PickledDataWithLists: "(dp0
Vcom.fontlab.hintData
p1
(dp2
Vvhints
p3
(lp4
(dp5
Vposition
p6
L75L
sVwidth
p7
L10L
sa(dp8
g6
L514L
sg7
L10L
sasVhhints
p9
(lp10
(dp11
g6
L301L
sg7
L10L
sa(dp12
g6
L363L
sg7
L10L
sa(dp13
g6
L371L
sg7
L10L
sass."
EndChar

StartChar: period
Encoding: 46 46 18
GlifName: period
Width: 330
VWidth: 0
Flags: HMW
LayerCount: 2
Fore
SplineSet
138 157 m 0
 181 157 211 134 211 95 c 0
 211 89 210 83 209 76 c 0
 198 26 154 -5 104 -5 c 0
 61 -5 31 18 31 57 c 0
 31 63 32 69 33 76 c 0
 44 126 88 157 138 157 c 0
EndSplineSet
PickledDataWithLists: "(dp0
Vcom.fontlab.hintData
p1
(dp2
Vvhints
p3
(lp4
(dp5
Vposition
p6
L81L
sVwidth
p7
L10L
sa(dp8
g6
L239L
sg7
L10L
sasVhhints
p9
(lp10
(dp11
g6
L-5L
sg7
L10L
sa(dp12
g6
L122L
sg7
L10L
sass."
EndChar

StartChar: slash
Encoding: 47 47 19
GlifName: slash
Width: 510
VWidth: 0
Flags: HMW
LayerCount: 2
Fore
SplineSet
-30 0 m 1
 -29 7 l 1
 462 780 l 1
 586 780 l 1
 584 773 l 1
 94 0 l 1
 -30 0 l 1
EndSplineSet
PickledDataWithLists: "(dp0
Vcom.fontlab.hintData
p1
(dp2
Vvhints
p3
(lp4
(dp5
Vposition
p6
L41L
sVwidth
p7
L10L
sa(dp8
g6
L429L
sg7
L10L
sasVhhints
p9
(lp10
(dp11
g6
L-29L
sg7
L10L
sa(dp12
g6
L818L
sg7
L10L
sass."
Substitution2: "LatinSlash.frac subtable" fraction
EndChar

StartChar: zero
Encoding: 48 48 20
GlifName: zero
Width: 660
VWidth: 0
Flags: HMW
LayerCount: 2
Fore
SplineSet
72 372 m 2
 80 408 l 2
 115 575 207 800 440 800 c 0
 606 800 652 686 652 560 c 0
 652 509 644 456 634 408 c 2
 626 372 l 2
 591 205 499 -20 266 -20 c 0
 100 -20 54 94 54 220 c 0
 54 271 62 324 72 372 c 2
288 85 m 0
 364 85 443 181 484 372 c 2
 492 408 l 2
 503 461 509 507 509 545 c 0
 509 645 473 695 418 695 c 0
 342 695 263 599 222 408 c 2
 214 372 l 2
 203 319 197 273 197 235 c 0
 197 135 233 85 288 85 c 0
EndSplineSet
PickledDataWithLists: "(dp0
Vcom.fontlab.hintData
p1
(dp2
Vvhints
p3
(lp4
(dp5
Vposition
p6
L66L
sVwidth
p7
L10L
sa(dp8
g6
L164L
sg7
L10L
sa(dp9
g6
L456L
sg7
L10L
sa(dp10
g6
L546L
sg7
L10L
sa(dp11
g6
L564L
sg7
L10L
sa(dp12
g6
L644L
sg7
L10L
sasVhhints
p13
(lp14
(dp15
g6
L-24L
sg7
L10L
sa(dp16
g6
L46L
sg7
L10L
sa(dp17
g6
L742L
sg7
L10L
sa(dp18
g6
L811L
sg7
L10L
sass."
Substitution2: "Latin.dnom subtable" zero.dnom
Substitution2: "Latin.numr subtable" zero.numr
Substitution2: "Latin.subs subtable" zero.subs
Substitution2: "Latin.sups subtable" zero.sups
Substitution2: "Latin.pnum subtable" zero.pnum
EndChar

StartChar: one
Encoding: 49 49 21
GlifName: one
Width: 570
VWidth: 0
Flags: HMW
LayerCount: 2
Fore
SplineSet
162 630 m 1
 459 786 l 1
 558 776 l 1
 417 112 l 1
 562 112 l 1
 538 0 l 1
 68 0 l 1
 92 112 l 1
 277 112 l 1
 387 630 l 1
 200 529 l 1
 162 630 l 1
EndSplineSet
PickledDataWithLists: "(dp0
Vcom.fontlab.hintData
p1
(dp2
Vvhints
p3
(lp4
(dp5
Vposition
p6
L126L
sVwidth
p7
L10L
sa(dp8
g6
L364L
sg7
L10L
sa(dp9
g6
L371L
sg7
L10L
sa(dp10
g6
L462L
sg7
L10L
sa(dp11
g6
L469L
sg7
L10L
sa(dp12
g6
L677L
sg7
L10L
sasVhhints
p13
(lp14
(dp15
g6
L-19L
sg7
L10L
sa(dp16
g6
L-9L
sg7
L10L
sa(dp17
g6
L49L
sg7
L10L
sa(dp18
g6
L57L
sg7
L10L
sa(dp19
g6
L591L
sg7
L10L
sa(dp20
g6
L802L
sg7
L10L
sass."
Substitution2: "Latin.dnom subtable" one.dnom
Substitution2: "Latin.numr subtable" one.numr
Substitution2: "Latin.subs subtable" one.subs
Substitution2: "Latin.sups subtable" one.sups
Substitution2: "Latin.pnum subtable" one.pnum
EndChar

StartChar: two
Encoding: 50 50 22
GlifName: two
Width: 660
VWidth: 0
Flags: HMW
LayerCount: 2
Fore
SplineSet
13 52 m 0
 51 229 221 334 344 404 c 0
 431 454 499 500 515 574 c 0
 518 586 519 598 519 610 c 0
 519 657 495 696 420 696 c 0
 358 696 301 646 280 593 c 1
 137 607 l 1
 166 678 266 800 440 800 c 0
 622 800 658 697 658 622 c 0
 658 603 656 587 653 574 c 0
 626 446 497 364 413 315 c 0
 307 253 221 196 184 112 c 1
 561 112 l 1
 537 0 l 1
 10 0 l 1
 10 0 9 6 9 15 c 0
 9 24 10 37 13 52 c 0
EndSplineSet
PickledDataWithLists: "(dp0
Vcom.fontlab.hintData
p1
(dp2
Vvhints
p3
(lp4
(dp5
Vposition
p6
L71L
sVwidth
p7
L10L
sa(dp8
g6
L81L
sg7
L10L
sa(dp9
g6
L501L
sg7
L10L
sa(dp10
g6
L599L
sg7
L10L
sa(dp11
g6
L639L
sg7
L10L
sasVhhints
p12
(lp13
(dp14
g6
L-13L
sg7
L10L
sa(dp15
g6
L61L
sg7
L10L
sa(dp16
g6
L74L
sg7
L10L
sa(dp17
g6
L620L
sg7
L10L
sa(dp18
g6
L740L
sg7
L10L
sa(dp19
g6
L809L
sg7
L10L
sass."
Substitution2: "Latin.dnom subtable" two.dnom
Substitution2: "Latin.numr subtable" two.numr
Substitution2: "Latin.subs subtable" two.subs
Substitution2: "Latin.sups subtable" two.sups
Substitution2: "Latin.pnum subtable" two.pnum
EndChar

StartChar: three
Encoding: 51 51 23
GlifName: three
Width: 660
VWidth: 0
Flags: HMW
LayerCount: 2
Fore
SplineSet
0 134 m 1
 146 160 l 1
 151 131 171 83 261 83 c 0
 375 83 420 153 434 217 c 0
 436 228 438 240 438 250 c 0
 438 301 407 336 322 336 c 2
 212 336 l 1
 234 439 l 1
 330 439 l 2
 405 439 472 493 489 573 c 0
 492 585 493 597 493 609 c 0
 493 656 469 695 394 695 c 0
 332 695 276 646 255 593 c 1
 112 606 l 1
 141 677 240 800 414 800 c 0
 596 800 633 695 633 620 c 0
 633 602 631 586 628 573 c 0
 610 489 551 436 492 402 c 1
 562 373 584 315 584 264 c 0
 584 251 583 238 580 226 c 0
 563 146 486 -20 239 -20 c 0
 54 -20 6 89 0 134 c 1
EndSplineSet
PickledDataWithLists: "(dp0
Vcom.fontlab.hintData
p1
(dp2
Vvhints
p3
(lp4
(dp5
Vposition
p6
L66L
sVwidth
p7
L10L
sa(dp8
g6
L76L
sg7
L10L
sa(dp9
g6
L203L
sg7
L10L
sa(dp10
g6
L491L
sg7
L10L
sa(dp11
g6
L546L
sg7
L10L
sa(dp12
g6
L589L
sg7
L10L
sa(dp13
g6
L644L
sg7
L10L
sasVhhints
p14
(lp15
(dp16
g6
L-27L
sg7
L10L
sa(dp17
g6
L44L
sg7
L10L
sa(dp18
g6
L150L
sg7
L10L
sa(dp19
g6
L361L
sg7
L10L
sa(dp20
g6
L372L
sg7
L10L
sa(dp21
g6
L630L
sg7
L10L
sa(dp22
g6
L741L
sg7
L10L
sa(dp23
g6
L810L
sg7
L10L
sass."
Substitution2: "Latin.dnom subtable" three.dnom
Substitution2: "Latin.numr subtable" three.numr
Substitution2: "Latin.subs subtable" three.subs
Substitution2: "Latin.sups subtable" three.sups
Substitution2: "Latin.pnum subtable" three.pnum
EndChar

StartChar: four
Encoding: 52 52 24
GlifName: four
Width: 650
VWidth: 0
Flags: HMW
LayerCount: 2
Fore
SplineSet
356 188 m 1
 13 188 l 1
 17 256 l 1
 501 786 l 1
 618 776 l 1
 515 292 l 1
 640 292 l 1
 618 188 l 1
 493 188 l 1
 453 0 l 1
 316 0 l 1
 356 188 l 1
382 292 m 1
 446 593 l 1
 176 292 l 1
 382 292 l 1
EndSplineSet
PickledDataWithLists: "(dp0
Vcom.fontlab.hintData
p1
(dp2
Vvhints
p3
(lp4
(dp5
Vposition
p6
L31L
sVwidth
p7
L10L
sa(dp8
g6
L276L
sg7
L10L
sa(dp9
g6
L374L
sg7
L10L
sa(dp10
g6
L455L
sg7
L10L
sa(dp11
g6
L554L
sg7
L10L
sa(dp12
g6
L679L
sg7
L10L
sasVhhints
p13
(lp14
(dp15
g6
L-30L
sg7
L10L
sa(dp16
g6
L174L
sg7
L10L
sa(dp17
g6
L243L
sg7
L10L
sa(dp18
g6
L259L
sg7
L10L
sa(dp19
g6
L609L
sg7
L10L
sa(dp20
g6
L819L
sg7
L10L
sass."
Substitution2: "Latin.dnom subtable" four.dnom
Substitution2: "Latin.numr subtable" four.numr
Substitution2: "Latin.subs subtable" four.subs
Substitution2: "Latin.sups subtable" four.sups
Substitution2: "Latin.pnum subtable" four.pnum
EndChar

StartChar: five
Encoding: 53 53 25
GlifName: five
Width: 660
VWidth: 0
Flags: HMW
LayerCount: 2
Fore
SplineSet
20 134 m 1
 166 160 l 1
 171 131 190 83 280 83 c 0
 394 83 441 163 457 237 c 0
 461 256 464 275 464 292 c 0
 464 347 439 391 362 391 c 0
 298 391 236 344 195 299 c 1
 103 354 l 1
 209 780 l 1
 670 780 l 1
 648 677 l 1
 319 677 l 1
 263 451 l 1
 302 473 351 490 410 490 c 0
 574 490 609 380 609 299 c 0
 609 278 607 260 604 245 c 0
 586 161 505 -20 258 -20 c 0
 73 -20 26 89 20 134 c 1
EndSplineSet
PickledDataWithLists: "(dp0
Vcom.fontlab.hintData
p1
(dp2
Vvhints
p3
(lp4
(dp5
Vposition
p6
L76L
sVwidth
p7
L10L
sa(dp8
g6
L106L
sg7
L10L
sa(dp9
g6
L125L
sg7
L10L
sa(dp10
g6
L226L
sg7
L10L
sa(dp11
g6
L541L
sg7
L10L
sa(dp12
g6
L614L
sg7
L10L
sa(dp13
g6
L639L
sg7
L10L
sasVhhints
p14
(lp15
(dp16
g6
L-26L
sg7
L10L
sa(dp17
g6
L43L
sg7
L10L
sa(dp18
g6
L150L
sg7
L10L
sa(dp19
g6
L334L
sg7
L10L
sa(dp20
g6
L409L
sg7
L10L
sa(dp21
g6
L477L
sg7
L10L
sa(dp22
g6
L716L
sg7
L10L
sa(dp23
g6
L784L
sg7
L10L
sa(dp24
g6
L795L
sg7
L10L
sass."
Substitution2: "Latin.dnom subtable" five.dnom
Substitution2: "Latin.numr subtable" five.numr
Substitution2: "Latin.subs subtable" five.subs
Substitution2: "Latin.sups subtable" five.sups
Substitution2: "Latin.pnum subtable" five.pnum
EndChar

StartChar: six
Encoding: 54 54 26
GlifName: six
Width: 660
VWidth: 0
Flags: HMW
LayerCount: 2
Fore
SplineSet
76 299 m 2
 104 435 l 2
 130 555 203 800 453 800 c 0
 635 800 664 677 668 635 c 1
 524 613 l 1
 520 650 503 695 431 695 c 0
 339 695 281 594 248 444 c 1
 292 472 346 489 407 489 c 0
 549 489 609 401 609 299 c 0
 609 279 606 258 602 237 c 0
 574 103 458 -20 279 -20 c 0
 130 -20 64 63 64 193 c 0
 64 226 68 261 76 299 c 2
212 275 m 1
 207 247 205 223 205 202 c 0
 205 104 254 85 301 85 c 0
 368 85 437 126 461 237 c 0
 465 255 467 271 467 286 c 0
 467 355 428 391 361 391 c 0
 301 391 243 352 212 275 c 1
EndSplineSet
PickledDataWithLists: "(dp0
Vcom.fontlab.hintData
p1
(dp2
Vvhints
p3
(lp4
(dp5
Vposition
p6
L32L
sVwidth
p7
L10L
sa(dp8
g6
L90L
sg7
L10L
sa(dp9
g6
L188L
sg7
L10L
sa(dp10
g6
L464L
sg7
L10L
sa(dp11
g6
L560L
sg7
L10L
sa(dp12
g6
L658L
sg7
L10L
sasVhhints
p13
(lp14
(dp15
g6
L-29L
sg7
L10L
sa(dp16
g6
L39L
sg7
L10L
sa(dp17
g6
L251L
sg7
L10L
sa(dp18
g6
L397L
sg7
L10L
sa(dp19
g6
L466L
sg7
L10L
sa(dp20
g6
L819L
sg7
L10L
sass."
Substitution2: "Latin.dnom subtable" six.dnom
Substitution2: "Latin.numr subtable" six.numr
Substitution2: "Latin.subs subtable" six.subs
Substitution2: "Latin.sups subtable" six.sups
Substitution2: "Latin.pnum subtable" six.pnum
EndChar

StartChar: seven
Encoding: 55 55 27
GlifName: seven
Width: 585
VWidth: 0
Flags: HMW
LayerCount: 2
Fore
SplineSet
139 668 m 1
 163 780 l 1
 688 780 l 1
 681 702 l 1
 546 561 360 288 310 55 c 2
 298 0 l 1
 149 0 l 1
 161 55 l 2
 205 263 369 503 507 668 c 1
 139 668 l 1
EndSplineSet
PickledDataWithLists: "(dp0
Vcom.fontlab.hintData
p1
(dp2
Vvhints
p3
(lp4
(dp5
Vposition
p6
L69L
sVwidth
p7
L10L
sa(dp8
g6
L199L
sg7
L10L
sa(dp9
g6
L274L
sg7
L10L
sa(dp10
g6
L648L
sg7
L10L
sasVhhints
p11
(lp12
(dp13
g6
L-19L
sg7
L10L
sa(dp14
g6
L554L
sg7
L10L
sa(dp15
g6
L716L
sg7
L10L
sa(dp16
g6
L784L
sg7
L10L
sa(dp17
g6
L795L
sg7
L10L
sass."
Substitution2: "Latin.dnom subtable" seven.dnom
Substitution2: "Latin.numr subtable" seven.numr
Substitution2: "Latin.subs subtable" seven.subs
Substitution2: "Latin.sups subtable" seven.sups
Substitution2: "Latin.pnum subtable" seven.pnum
EndChar

StartChar: eight
Encoding: 56 56 28
GlifName: eight
Width: 660
VWidth: 0
Flags: HMW
LayerCount: 2
Fore
SplineSet
266 -20 m 0
 109 -20 23 60 23 164 c 0
 23 178 24 192 27 206 c 0
 52 325 154 376 222 401 c 1
 175 426 135 467 135 535 c 0
 135 548 137 563 140 578 c 0
 165 697 282 800 440 800 c 0
 578 800 651 722 651 623 c 0
 651 608 649 593 646 578 c 0
 626 484 556 431 488 401 c 1
 539 379 606 338 606 249 c 0
 606 236 604 221 601 206 c 0
 575 83 443 -20 266 -20 c 0
288 83 m 0
 375 83 439 124 456 206 c 0
 459 218 460 230 460 240 c 0
 460 296 424 320 388 334 c 0
 377 339 362 345 345 351 c 1
 326 345 307 339 294 334 c 0
 245 318 189 286 172 206 c 0
 170 195 169 184 169 174 c 0
 169 113 213 83 288 83 c 0
418 697 m 0
 362 697 299 664 281 578 c 0
 279 567 278 557 278 548 c 0
 278 499 306 471 334 461 c 0
 343 457 353 453 365 449 c 1
 379 453 391 457 402 461 c 0
 441 473 491 510 505 578 c 0
 508 590 509 602 509 612 c 0
 509 673 466 697 418 697 c 0
EndSplineSet
PickledDataWithLists: "(dp0
Vcom.fontlab.hintData
p1
(dp2
Vvhints
p3
(lp4
(dp5
Vposition
p6
L76L
sVwidth
p7
L10L
sa(dp8
g6
L87L
sg7
L10L
sa(dp9
g6
L174L
sg7
L10L
sa(dp10
g6
L185L
sg7
L10L
sa(dp11
g6
L549L
sg7
L10L
sa(dp12
g6
L584L
sg7
L10L
sa(dp13
g6
L594L
sg7
L10L
sa(dp14
g6
L649L
sg7
L10L
sasVhhints
p15
(lp16
(dp17
g6
L-24L
sg7
L10L
sa(dp18
g6
L44L
sg7
L10L
sa(dp19
g6
L394L
sg7
L9L
sa(dp20
g6
L610L
sg7
L10L
sa(dp21
g6
L651L
sg7
L10L
sa(dp22
g6
L741L
sg7
L10L
sa(dp23
g6
L809L
sg7
L10L
sass."
Substitution2: "Latin.dnom subtable" eight.dnom
Substitution2: "Latin.numr subtable" eight.numr
Substitution2: "Latin.subs subtable" eight.subs
Substitution2: "Latin.sups subtable" eight.sups
Substitution2: "Latin.pnum subtable" eight.pnum
EndChar

StartChar: nine
Encoding: 57 57 29
GlifName: nine
Width: 660
VWidth: 0
Flags: HMW
LayerCount: 2
Fore
SplineSet
630 481 m 2
 601 345 l 2
 575 225 503 -20 253 -20 c 0
 71 -20 42 103 38 145 c 1
 181 167 l 1
 185 130 203 85 275 85 c 0
 367 85 424 186 457 336 c 1
 413 308 360 291 299 291 c 0
 157 291 96 379 96 482 c 0
 96 502 99 523 103 543 c 0
 131 677 248 800 427 800 c 0
 576 800 642 717 642 587 c 0
 642 554 638 519 630 481 c 2
493 505 m 1
 498 534 500 558 500 579 c 0
 500 676 452 695 405 695 c 0
 338 695 268 654 244 543 c 0
 240 525 239 509 239 494 c 0
 239 425 278 389 345 389 c 0
 405 389 462 428 493 505 c 1
EndSplineSet
PickledDataWithLists: "(dp0
Vcom.fontlab.hintData
p1
(dp2
Vvhints
p3
(lp4
(dp5
Vposition
p6
L52L
sVwidth
p7
L10L
sa(dp8
g6
L150L
sg7
L10L
sa(dp9
g6
L246L
sg7
L10L
sa(dp10
g6
L521L
sg7
L10L
sa(dp11
g6
L620L
sg7
L10L
sa(dp12
g6
L678L
sg7
L10L
sasVhhints
p13
(lp14
(dp15
g6
L-29L
sg7
L10L
sa(dp16
g6
L324L
sg7
L10L
sa(dp17
g6
L393L
sg7
L10L
sa(dp18
g6
L539L
sg7
L10L
sa(dp19
g6
L751L
sg7
L10L
sa(dp20
g6
L819L
sg7
L10L
sass."
Substitution2: "Latin.dnom subtable" nine.dnom
Substitution2: "Latin.numr subtable" nine.numr
Substitution2: "Latin.subs subtable" nine.subs
Substitution2: "Latin.sups subtable" nine.sups
Substitution2: "Latin.pnum subtable" nine.pnum
EndChar

StartChar: colon
Encoding: 58 58 30
GlifName: colon
Width: 330
VWidth: 0
Flags: HMW
LayerCount: 2
Fore
SplineSet
138 157 m 128
 181 157 211 134 211 95 c 0
 211 89 210 83 209 76 c 128
 198 26 154 -5 104 -5 c 128
 61 -5 31 18 31 57 c 0
 31 63 32 69 33 76 c 128
 44 126 88 157 138 157 c 128
228 577 m 128
 271 577 300 554 300 515 c 0
 300 509 299 503 298 496 c 128
 287 446 243 415 193 415 c 128
 150 415 120 438 120 477 c 0
 120 483 121 489 122 496 c 128
 133 546 178 577 228 577 c 128
EndSplineSet
PickledDataWithLists: "(dp0
Vcom.fontlab.hintData
p1
(dp2
Vvhints
p3
(lp4
(dp5
Vposition
p6
L81L
sVwidth
p7
L10L
sa(dp8
g6
L238L
sg7
L10L
sasVhhints
p9
(lp10
(dp11
g6
L-5L
sg7
L10L
sa(dp12
g6
L122L
sg7
L10L
sa(dp13
g6
L475L
sg7
L10L
sa(dp14
g6
L602L
sg7
L10L
sass."
EndChar

StartChar: semicolon
Encoding: 59 59 31
GlifName: semicolon
Width: 330
VWidth: 0
Flags: HMW
LayerCount: 2
Fore
SplineSet
228 577 m 128
 271 577 300 554 300 515 c 0
 300 509 299 503 298 496 c 128
 287 446 243 415 193 415 c 128
 150 415 120 438 120 477 c 0
 120 483 121 489 122 496 c 128
 133 546 178 577 228 577 c 128
33 73 m 0
 43 122 84 158 139 158 c 0
 197 158 219 120 219 75 c 0
 219 63 218 51 215 39 c 0
 190 -77 94 -161 15 -205 c 1
 -15 -149 l 1
 36 -121 85 -73 112 -4 c 1
 108 -4 103 -5 99 -5 c 0
 58 -5 31 18 31 55 c 0
 31 61 32 67 33 73 c 0
EndSplineSet
PickledDataWithLists: "(dp0
Vcom.fontlab.hintData
p1
(dp2
Vvhints
p3
(lp4
(dp5
Vposition
p6
L61L
sVwidth
p7
L10L
sa(dp8
g6
L81L
sg7
L10L
sa(dp9
g6
L170L
sg7
L10L
sa(dp10
g6
L239L
sg7
L10L
sa(dp11
g6
L251L
sg7
L10L
sasVhhints
p12
(lp13
(dp14
g6
L-182L
sg7
L10L
sa(dp15
g6
L48L
sg7
L10L
sa(dp16
g6
L117L
sg7
L10L
sa(dp17
g6
L475L
sg7
L10L
sa(dp18
g6
L602L
sg7
L10L
sass."
EndChar

StartChar: less
Encoding: 60 60 32
GlifName: less
Width: 600
VWidth: 0
Flags: HMW
LayerCount: 2
Fore
SplineSet
90 322 m 1
 99 360 l 1
 107 398 l 1
 569 646 l 1
 572 539 l 1
 228 360 l 1
 495 181 l 1
 448 74 l 1
 90 322 l 1
EndSplineSet
PickledDataWithLists: "(dp0
Vcom.fontlab.hintData
p1
(dp2
Vvhints
p3
(lp4
(dp5
Vposition
p6
L63L
sVwidth
p7
L10L
sa(dp8
g6
L514L
sg7
L10L
sa(dp9
g6
L524L
sg7
L10L
sasVhhints
p10
(lp11
(dp12
g6
L65L
sg7
L10L
sa(dp13
g6
L606L
sg7
L10L
sass."
EndChar

StartChar: equal
Encoding: 61 61 33
GlifName: equal
Width: 600
VWidth: 0
Flags: HMW
LayerCount: 2
Fore
SplineSet
111 421 m 1
 132 519 l 1
 568 519 l 1
 547 421 l 1
 111 421 l 1
65 201 m 1
 86 299 l 1
 522 299 l 1
 501 201 l 1
 65 201 l 1
EndSplineSet
PickledDataWithLists: "(dp0
Vcom.fontlab.hintData
p1
(dp2
Vvhints
p3
(lp4
(dp5
Vposition
p6
L75L
sVwidth
p7
L10L
sa(dp8
g6
L514L
sg7
L10L
sasVhhints
p9
(lp10
(dp11
g6
L201L
sg7
L10L
sa(dp12
g6
L263L
sg7
L10L
sa(dp13
g6
L271L
sg7
L10L
sa(dp14
g6
L401L
sg7
L10L
sa(dp15
g6
L463L
sg7
L10L
sa(dp16
g6
L471L
sg7
L10L
sass."
EndChar

StartChar: greater
Encoding: 62 62 34
GlifName: greater
Width: 600
VWidth: 0
Flags: HMW
LayerCount: 2
Fore
SplineSet
543 398 m 1
 535 360 l 1
 526 322 l 1
 64 74 l 1
 61 181 l 1
 406 360 l 1
 138 539 l 1
 185 646 l 1
 543 398 l 1
EndSplineSet
PickledDataWithLists: "(dp0
Vcom.fontlab.hintData
p1
(dp2
Vvhints
p3
(lp4
(dp5
Vposition
p6
L66L
sVwidth
p7
L10L
sa(dp8
g6
L76L
sg7
L10L
sa(dp9
g6
L527L
sg7
L10L
sasVhhints
p10
(lp11
(dp12
g6
L64L
sg7
L10L
sa(dp13
g6
L605L
sg7
L10L
sass."
EndChar

StartChar: question
Encoding: 63 63 35
GlifName: question
Width: 570
VWidth: 0
Flags: HMW
LayerCount: 2
Fore
SplineSet
258 157 m 0
 301 157 331 134 331 95 c 0
 331 89 330 83 329 76 c 0
 318 26 274 -5 224 -5 c 0
 181 -5 151 18 151 57 c 0
 151 63 152 69 153 76 c 0
 164 126 208 157 258 157 c 0
125 643 m 0
 147 746 255 830 402 830 c 0
 523 830 592 771 592 678 c 0
 592 664 590 648 587 632 c 0
 552 468 351 431 328 323 c 0
 326 313 324 303 324 294 c 0
 324 287 325 280 327 273 c 1
 213 261 l 1
 208 276 205 290 205 305 c 0
 205 314 206 322 208 331 c 0
 241 486 415 507 441 628 c 0
 443 640 445 650 445 659 c 0
 445 710 410 724 376 724 c 0
 326 724 282 699 270 643 c 0
 268 633 267 624 267 615 c 0
 267 606 268 596 270 588 c 1
 126 554 l 1
 122 569 121 585 121 600 c 0
 121 614 122 629 125 643 c 0
EndSplineSet
PickledDataWithLists: "(dp0
Vcom.fontlab.hintData
p1
(dp2
Vvhints
p3
(lp4
(dp5
Vposition
p6
L11L
sVwidth
p7
L10L
sa(dp8
g6
L98L
sg7
L10L
sa(dp9
g6
L120L
sg7
L10L
sa(dp10
g6
L152L
sg7
L10L
sa(dp11
g6
L161L
sg7
L10L
sa(dp12
g6
L241L
sg7
L10L
sa(dp13
g6
L254L
sg7
L10L
sa(dp14
g6
L310L
sg7
L10L
sa(dp15
g6
L351L
sg7
L10L
sa(dp16
g6
L439L
sg7
L10L
sasVhhints
p17
(lp18
(dp19
g6
L-5L
sg7
L10L
sa(dp20
g6
L122L
sg7
L10L
sa(dp21
g6
L255L
sg7
L10L
sa(dp22
g6
L594L
sg7
L10L
sa(dp23
g6
L784L
sg7
L10L
sa(dp24
g6
L846L
sg7
L10L
sass."
EndChar

StartChar: at
Encoding: 64 64 36
GlifName: at
Width: 1020
VWidth: 0
Flags: HMW
LayerCount: 2
Fore
SplineSet
65 237 m 0
 119 489 353 780 664 780 c 0
 882 780 979 650 979 490 c 0
 979 459 976 428 969 396 c 0
 935 234 799 34 646 34 c 0
 588 34 568 63 563 97 c 1
 520 56 471 28 417 28 c 0
 302 28 265 101 265 177 c 0
 265 195 267 213 271 230 c 0
 300 365 437 564 640 565 c 1
 641 565 l 1
 722 565 749 514 749 464 c 0
 749 454 748 444 746 434 c 0
 737 390 699 309 693 294 c 0
 669 232 654 187 647 156 c 0
 645 144 643 135 643 127 c 0
 643 110 649 103 661 103 c 0
 731 103 858 239 891 396 c 0
 897 425 900 453 900 480 c 0
 900 614 822 711 649 711 c 0
 403 711 193 470 143 237 c 0
 136 203 132 170 132 139 c 0
 132 -9 215 -121 416 -121 c 0
 482 -121 572 -86 600 -71 c 1
 631 -128 l 1
 591 -150 494 -190 402 -190 c 0
 154 -190 53 -44 53 130 c 0
 53 165 57 201 65 237 c 0
434 106 m 0
 501 106 554 180 603 308 c 0
 609 322 645 406 651 434 c 0
 653 442 653 449 653 455 c 0
 653 480 639 487 624 487 c 0
 526 486 401 359 374 230 c 0
 371 214 369 200 369 187 c 0
 369 132 398 106 434 106 c 0
EndSplineSet
PickledDataWithLists: "(dp0
Vcom.fontlab.hintData
p1
(dp2
Vvhints
p3
(lp4
(dp5
Vposition
p6
L74L
sVwidth
p7
L10L
sa(dp8
g6
L143L
sg7
L10L
sa(dp9
g6
L293L
sg7
L10L
sa(dp10
g6
L372L
sg7
L10L
sa(dp11
g6
L622L
sg7
L10L
sa(dp12
g6
L670L
sg7
L10L
sa(dp13
g6
L702L
sg7
L10L
sa(dp14
g6
L726L
sg7
L10L
sa(dp15
g6
L865L
sg7
L10L
sa(dp16
g6
L935L
sg7
L10L
sasVhhints
p17
(lp18
(dp19
g6
L-179L
sg7
L10L
sa(dp20
g6
L-131L
sg7
L10L
sa(dp21
g6
L-76L
sg7
L10L
sa(dp22
g6
L38L
sg7
L10L
sa(dp23
g6
L92L
sg7
L10L
sa(dp24
g6
L352L
sg7
L10L
sa(dp25
g6
L399L
sg7
L10L
sa(dp26
g6
L490L
sg7
L10L
sa(dp27
g6
L544L
sg7
L10L
sa(dp28
g6
L711L
sg7
L10L
sa(dp29
g6
L759L
sg7
L10L
sass."
EndChar

StartChar: A
Encoding: 65 65 37
GlifName: A_
Width: 750
VWidth: 0
Flags: HMW
AnchorPoint: "LatinOgonek.mark" 610 0 basechar 0
AnchorPoint: "LatinBelow.mark" 315 0 basechar 0
AnchorPoint: "LatinAbove.mark" 347 150 basechar 0
LayerCount: 2
Fore
SplineSet
682 0 m 1
 519 0 l 1
 499 158 l 1
 199 158 l 1
 111 0 l 1
 -52 0 l 1
 -50 10 l 1
 420 780 l 1
 542 780 l 1
 684 10 l 1
 682 0 l 1
486 262 m 1
 443 600 l 1
 256 262 l 1
 486 262 l 1
EndSplineSet
PickledDataWithLists: "(dp0
Vcom.fontlab.hintData
p1
(dp2
Vvhints
p3
(lp4
(dp5
Vposition
p6
L33L
sVwidth
p7
L10L
sa(dp8
g6
L39L
sg7
L10L
sa(dp9
g6
L763L
sg7
L10L
sasVhhints
p10
(lp11
(dp12
g6
L-16L
sg7
L10L
sa(dp13
g6
L3L
sg7
L10L
sa(dp14
g6
L179L
sg7
L10L
sa(dp15
g6
L209L
sg7
L10L
sa(dp16
g6
L271L
sg7
L10L
sa(dp17
g6
L810L
sg7
L10L
sass."
EndChar

StartChar: B
Encoding: 66 66 38
GlifName: B_
Width: 745
VWidth: 0
Flags: HMW
AnchorPoint: "LatinBelow.mark" 260 0 basechar 0
AnchorPoint: "LatinAbove.mark" 292 150 basechar 0
LayerCount: 2
Fore
SplineSet
559 436 m 1
 642 409 691 356 691 277 c 0
 691 262 689 246 686 230 c 0
 654 80 501 -9 307 -9 c 0
 178 -9 31 -1 22 0 c 1
 188 780 l 1
 196 781 334 789 450 789 c 0
 588 789 692 732 692 628 c 0
 692 616 691 604 688 591 c 0
 672 516 622 467 559 436 c 1
406 457 m 1
 462 464 527 500 544 579 c 0
 546 588 547 596 547 604 c 0
 547 662 496 687 411 687 c 0
 366 687 322 685 304 684 c 1
 256 454 l 1
 301 456 354 457 406 457 c 1
180 98 m 1
 215 96 267 94 313 94 c 0
 424 94 522 125 544 230 c 0
 546 241 547 251 547 261 c 0
 547 340 469 362 370 362 c 0
 324 362 270 360 235 358 c 1
 180 98 l 1
EndSplineSet
PickledDataWithLists: "(dp0
Vcom.fontlab.hintData
p1
(dp2
Vvhints
p3
(lp4
(dp5
Vposition
p6
L26L
sVwidth
p7
L10L
sa(dp8
g6
L116L
sg7
L10L
sa(dp9
g6
L121L
sg7
L10L
sa(dp10
g6
L223L
sg7
L10L
sa(dp11
g6
L537L
sg7
L10L
sa(dp12
g6
L636L
sg7
L10L
sa(dp13
g6
L735L
sg7
L10L
sasVhhints
p14
(lp15
(dp16
g6
L-22L
sg7
L10L
sa(dp17
g6
L49L
sg7
L10L
sa(dp18
g6
L395L
sg7
L10L
sa(dp19
g6
L634L
sg7
L10L
sa(dp20
g6
L661L
sg7
L10L
sa(dp21
g6
L742L
sg7
L10L
sa(dp22
g6
L809L
sg7
L10L
sass."
Colour: ff00
EndChar

StartChar: C
Encoding: 67 67 39
GlifName: C_
Width: 755
VWidth: 0
Flags: HMW
AnchorPoint: "LatinCedilla.mark" 352 0 basechar 0
AnchorPoint: "LatinBelow.mark" 350 0 basechar 0
AnchorPoint: "LatinAbove.mark" 382 150 basechar 0
LayerCount: 2
Fore
SplineSet
78 406 m 2
 116 585 242 800 522 800 c 0
 725 800 786 670 786 589 c 0
 786 588 786 586 786 585 c 1
 635 572 l 1
 635 573 635 573 635 574 c 0
 635 628 596 690 499 690 c 0
 365 690 268 586 230 406 c 2
 223 374 l 2
 215 336 211 301 211 270 c 0
 211 155 266 90 371 90 c 0
 469 90 536 154 557 208 c 1
 703 195 l 1
 671 114 554 -20 348 -20 c 0
 126 -20 58 114 58 259 c 0
 58 297 63 337 71 374 c 2
 78 406 l 2
EndSplineSet
PickledDataWithLists: "(dp0
Vcom.fontlab.hintData
p1
(dp2
Vvhints
p3
(lp4
(dp5
Vposition
p6
L68L
sVwidth
p7
L10L
sa(dp8
g6
L172L
sg7
L10L
sa(dp9
g6
L569L
sg7
L10L
sa(dp10
g6
L673L
sg7
L10L
sa(dp11
g6
L707L
sg7
L10L
sasVhhints
p12
(lp13
(dp14
g6
L-20L
sg7
L10L
sa(dp15
g6
L52L
sg7
L10L
sa(dp16
g6
L169L
sg7
L10L
sa(dp17
g6
L586L
sg7
L10L
sa(dp18
g6
L739L
sg7
L10L
sa(dp19
g6
L811L
sg7
L10L
sass."
Colour: ff00
EndChar

StartChar: D
Encoding: 68 68 40
GlifName: D_
Width: 770
VWidth: 0
Flags: HMW
AnchorPoint: "LatinBelow.mark" 260 0 basechar 0
AnchorPoint: "LatinAbove.mark" 292 150 basechar 0
LayerCount: 2
Fore
SplineSet
188 97 m 1
 211 96 236 96 256 96 c 0
 457 96 556 208 592 378 c 2
 597 402 l 2
 604 435 608 466 608 494 c 0
 608 611 543 684 381 684 c 0
 361 684 335 684 312 683 c 1
 188 97 l 1
188 780 m 1
 188 780 301 789 404 789 c 0
 666 789 753 652 753 500 c 0
 753 468 749 434 742 402 c 2
 737 378 l 2
 697 192 551 -9 234 -9 c 0
 131 -9 22 0 22 0 c 1
 188 780 l 1
EndSplineSet
PickledDataWithLists: "(dp0
Vcom.fontlab.hintData
p1
(dp2
Vvhints
p3
(lp4
(dp5
Vposition
p6
L26L
sVwidth
p7
L10L
sa(dp8
g6
L116L
sg7
L10L
sa(dp9
g6
L121L
sg7
L10L
sa(dp10
g6
L223L
sg7
L10L
sa(dp11
g6
L630L
sg7
L10L
sa(dp12
g6
L729L
sg7
L10L
sasVhhints
p13
(lp14
(dp15
g6
L-21L
sg7
L10L
sa(dp16
g6
L49L
sg7
L10L
sa(dp17
g6
L634L
sg7
L10L
sa(dp18
g6
L661L
sg7
L10L
sa(dp19
g6
L742L
sg7
L10L
sa(dp20
g6
L810L
sg7
L10L
sass."
EndChar

StartChar: E
Encoding: 69 69 41
GlifName: E_
Width: 675
VWidth: 0
Flags: HMW
AnchorPoint: "LatinOgonek.mark" 485 0 basechar 0
AnchorPoint: "LatinBelow.mark" 290 0 basechar 0
AnchorPoint: "LatinAbove.mark" 322 150 basechar 0
LayerCount: 2
Fore
SplineSet
22 0 m 1
 188 780 l 1
 718 780 l 1
 694 669 l 1
 309 669 l 1
 260 436 l 1
 607 436 l 1
 585 334 l 1
 238 334 l 1
 191 111 l 1
 591 111 l 1
 567 0 l 1
 22 0 l 1
EndSplineSet
PickledDataWithLists: "(dp0
Vcom.fontlab.hintData
p1
(dp2
Vvhints
p3
(lp4
(dp5
Vposition
p6
L66L
sVwidth
p7
L10L
sa(dp8
g6
L106L
sg7
L10L
sa(dp9
g6
L121L
sg7
L10L
sa(dp10
g6
L204L
sg7
L10L
sa(dp11
g6
L220L
sg7
L10L
sa(dp12
g6
L564L
sg7
L10L
sa(dp13
g6
L644L
sg7
L10L
sa(dp14
g6
L674L
sg7
L10L
sasVhhints
p15
(lp16
(dp17
g6
L-24L
sg7
L10L
sa(dp18
g6
L-9L
sg7
L10L
sa(dp19
g6
L46L
sg7
L10L
sa(dp20
g6
L59L
sg7
L10L
sa(dp21
g6
L361L
sg7
L10L
sa(dp22
g6
L423L
sg7
L10L
sa(dp23
g6
L726L
sg7
L10L
sa(dp24
g6
L794L
sg7
L10L
sa(dp25
g6
L799L
sg7
L10L
sa(dp26
g6
L804L
sg7
L10L
sass."
Colour: ff00
EndChar

StartChar: F
Encoding: 70 70 42
GlifName: F_
Width: 640
VWidth: 0
Flags: HMW
AnchorPoint: "LatinBelow.mark" 100 0 basechar 0
AnchorPoint: "LatinAbove.mark" 312 150 basechar 0
LayerCount: 2
Fore
SplineSet
22 0 m 1
 188 780 l 1
 708 780 l 1
 684 669 l 1
 311 669 l 1
 263 441 l 1
 598 441 l 1
 574 329 l 1
 239 329 l 1
 169 0 l 1
 22 0 l 1
EndSplineSet
PickledDataWithLists: "(dp0
Vcom.fontlab.hintData
p1
(dp2
Vvhints
p3
(lp4
(dp5
Vposition
p6
L59L
sVwidth
p7
L10L
sa(dp8
g6
L66L
sg7
L10L
sa(dp9
g6
L116L
sg7
L10L
sa(dp10
g6
L124L
sg7
L10L
sa(dp11
g6
L214L
sg7
L10L
sa(dp12
g6
L222L
sg7
L10L
sa(dp13
g6
L564L
sg7
L10L
sa(dp14
g6
L644L
sg7
L10L
sasVhhints
p15
(lp16
(dp17
g6
L-14L
sg7
L10L
sa(dp18
g6
L355L
sg7
L10L
sa(dp19
g6
L360L
sg7
L10L
sa(dp20
g6
L423L
sg7
L10L
sa(dp21
g6
L726L
sg7
L10L
sa(dp22
g6
L794L
sg7
L10L
sa(dp23
g6
L799L
sg7
L10L
sa(dp24
g6
L804L
sg7
L10L
sass."
Colour: ff00
EndChar

StartChar: G
Encoding: 71 71 43
GlifName: G_
Width: 770
VWidth: 0
Flags: HMW
AnchorPoint: "LatinBelow.mark" 350 0 basechar 0
AnchorPoint: "LatinAbove.mark" 382 150 basechar 0
LayerCount: 2
Fore
SplineSet
419 294 m 1
 441 397 l 1
 741 397 l 1
 686 136 l 1
 635 68 521 -20 348 -20 c 0
 127 -20 59 114 59 259 c 0
 59 298 64 337 72 375 c 2
 78 405 l 2
 116 584 242 800 522 800 c 0
 725 800 786 670 786 589 c 0
 786 588 786 586 786 585 c 1
 636 571 l 1
 636 572 636 572 636 573 c 0
 636 627 598 692 499 692 c 0
 362 692 266 589 227 405 c 2
 221 375 l 2
 213 335 208 299 208 267 c 0
 208 151 264 88 371 88 c 0
 467 88 523 120 557 154 c 1
 586 294 l 1
 419 294 l 1
EndSplineSet
PickledDataWithLists: "(dp0
Vcom.fontlab.hintData
p1
(dp2
Vvhints
p3
(lp4
(dp5
Vposition
p6
L71L
sVwidth
p7
L10L
sa(dp8
g6
L169L
sg7
L10L
sa(dp9
g6
L386L
sg7
L10L
sa(dp10
g6
L572L
sg7
L10L
sa(dp11
g6
L615L
sg7
L10L
sa(dp12
g6
L670L
sg7
L10L
sa(dp13
g6
L715L
sg7
L10L
sasVhhints
p14
(lp15
(dp16
g6
L-24L
sg7
L10L
sa(dp17
g6
L44L
sg7
L10L
sa(dp18
g6
L290L
sg7
L10L
sa(dp19
g6
L390L
sg7
L10L
sa(dp20
g6
L587L
sg7
L10L
sa(dp21
g6
L741L
sg7
L10L
sa(dp22
g6
L810L
sg7
L10L
sass."
Colour: ff00
EndChar

StartChar: H
Encoding: 72 72 44
GlifName: H_
Width: 790
VWidth: 0
Flags: HMW
AnchorPoint: "LatinBelow.mark" 335 0 basechar 0
AnchorPoint: "LatinAbove.mark" 367 150 basechar 0
LayerCount: 2
Fore
SplineSet
22 0 m 1
 188 780 l 1
 333 780 l 1
 262 446 l 1
 598 446 l 1
 669 780 l 1
 814 780 l 1
 648 0 l 1
 503 0 l 1
 574 334 l 1
 238 334 l 1
 167 0 l 1
 22 0 l 1
EndSplineSet
PickledDataWithLists: "(dp0
Vcom.fontlab.hintData
p1
(dp2
Vvhints
p3
(lp4
(dp5
Vposition
p6
L66L
sVwidth
p7
L10L
sa(dp8
g6
L101L
sg7
L10L
sa(dp9
g6
L111L
sg7
L10L
sa(dp10
g6
L211L
sg7
L10L
sa(dp11
g6
L605L
sg7
L10L
sa(dp12
g6
L704L
sg7
L10L
sa(dp13
g6
L744L
sg7
L10L
sasVhhints
p14
(lp15
(dp16
g6
L-14L
sg7
L10L
sa(dp17
g6
L355L
sg7
L10L
sa(dp18
g6
L423L
sg7
L10L
sa(dp19
g6
L794L
sg7
L10L
sa(dp20
g6
L799L
sg7
L10L
sass."
Colour: ff00
EndChar

StartChar: I
Encoding: 73 73 45
GlifName: I_
Width: 320
VWidth: 0
Flags: HMW
AnchorPoint: "LatinOgonek.mark" 105 0 basechar 0
AnchorPoint: "LatinBelow.mark" 100 0 basechar 0
AnchorPoint: "LatinAbove.mark" 132 150 basechar 0
LayerCount: 2
Fore
SplineSet
27 0 m 1
 193 780 l 1
 339 780 l 1
 173 0 l 1
 27 0 l 1
EndSplineSet
PickledDataWithLists: "(dp0
Vcom.fontlab.hintData
p1
(dp2
Vvhints
p3
(lp4
(dp5
Vposition
p6
L53L
sVwidth
p7
L10L
sa(dp8
g6
L77L
sg7
L10L
sa(dp9
g6
L188L
sg7
L10L
sa(dp10
g6
L194L
sg7
L10L
sa(dp11
g6
L282L
sg7
L10L
sa(dp12
g6
L288L
sg7
L10L
sa(dp13
g6
L414L
sg7
L10L
sasVhhints
p14
(lp15
(dp16
g6
L-3L
sg7
L10L
sa(dp17
g6
L3L
sg7
L10L
sa(dp18
g6
L59L
sg7
L10L
sa(dp19
g6
L67L
sg7
L10L
sa(dp20
g6
L729L
sg7
L10L
sa(dp21
g6
L788L
sg7
L10L
sass."
Colour: ff00
EndChar

StartChar: J
Encoding: 74 74 46
GlifName: J_
Width: 520
VWidth: 0
Flags: HMW
AnchorPoint: "LatinBelow.mark" 170 0 basechar 0
AnchorPoint: "LatinAbove.mark" 332 150 basechar 0
LayerCount: 2
Fore
SplineSet
-18 140 m 1
 129 151 l 1
 129 148 129 146 129 143 c 0
 129 99 151 83 182 83 c 0
 214 83 253 98 267 166 c 2
 398 780 l 1
 543 780 l 1
 412 166 l 2
 391 68 298 -20 160 -20 c 0
 30 -20 -18 58 -18 129 c 0
 -18 133 -18 136 -18 140 c 1
EndSplineSet
PickledDataWithLists: "(dp0
Vcom.fontlab.hintData
p1
(dp2
Vvhints
p3
(lp4
(dp5
Vposition
p6
L16L
sVwidth
p7
L10L
sa(dp8
g6
L152L
sg7
L10L
sa(dp9
g6
L318L
sg7
L10L
sa(dp10
g6
L412L
sg7
L10L
sa(dp11
g6
L492L
sg7
L10L
sasVhhints
p12
(lp13
(dp14
g6
L-14L
sg7
L10L
sa(dp15
g6
L55L
sg7
L9L
sa(dp16
g6
L129L
sg7
L10L
sa(dp17
g6
L730L
sg7
L10L
sa(dp18
g6
L788L
sg7
L10L
sass."
Colour: ff00
EndChar

StartChar: K
Encoding: 75 75 47
GlifName: K_
Width: 715
VWidth: 0
Flags: HMW
AnchorPoint: "LatinBelow.mark" 300 0 basechar 0
AnchorPoint: "LatinAbove.mark" 332 150 basechar 0
LayerCount: 2
Fore
SplineSet
22 0 m 1
 188 780 l 1
 328 780 l 1
 255 437 l 1
 625 780 l 1
 784 769 l 1
 783 762 l 1
 414 448 l 1
 658 7 l 1
 657 0 l 1
 487 0 l 1
 301 351 l 1
 222 284 l 1
 162 0 l 1
 22 0 l 1
EndSplineSet
PickledDataWithLists: "(dp0
Vcom.fontlab.hintData
p1
(dp2
Vvhints
p3
(lp4
(dp5
Vposition
p6
L64L
sVwidth
p7
L10L
sa(dp8
g6
L86L
sg7
L10L
sa(dp9
g6
L116L
sg7
L10L
sa(dp10
g6
L211L
sg7
L10L
sa(dp11
g6
L219L
sg7
L10L
sa(dp12
g6
L679L
sg7
L10L
sa(dp13
g6
L734L
sg7
L10L
sasVhhints
p14
(lp15
(dp16
g6
L-14L
sg7
L10L
sa(dp17
g6
L-9L
sg7
L10L
sa(dp18
g6
L799L
sg7
L10L
sass."
Colour: ff00
EndChar

StartChar: L
Encoding: 76 76 48
GlifName: L_
Width: 570
VWidth: 0
Flags: HMW
AnchorPoint: "LatinBelow.mark" 260 0 basechar 0
AnchorPoint: "LatinAbove.mark" 132 150 basechar 0
LayerCount: 2
Fore
SplineSet
22 0 m 1
 188 780 l 1
 335 780 l 1
 193 111 l 1
 516 111 l 1
 492 0 l 1
 22 0 l 1
EndSplineSet
PickledDataWithLists: "(dp0
Vcom.fontlab.hintData
p1
(dp2
Vvhints
p3
(lp4
(dp5
Vposition
p6
L126L
sVwidth
p7
L10L
sa(dp8
g6
L131L
sg7
L10L
sa(dp9
g6
L144L
sg7
L10L
sa(dp10
g6
L224L
sg7
L10L
sa(dp11
g6
L242L
sg7
L10L
sa(dp12
g6
L624L
sg7
L10L
sasVhhints
p13
(lp14
(dp15
g6
L-23L
sg7
L10L
sa(dp16
g6
L-9L
sg7
L10L
sa(dp17
g6
L45L
sg7
L10L
sa(dp18
g6
L59L
sg7
L10L
sa(dp19
g6
L794L
sg7
L10L
sass."
Colour: ff00
EndChar

StartChar: M
Encoding: 77 77 49
GlifName: M_
Width: 880
VWidth: 0
Flags: HMW
AnchorPoint: "LatinBelow.mark" 380 0 basechar 0
AnchorPoint: "LatinAbove.mark" 412 150 basechar 0
LayerCount: 2
Fore
SplineSet
738 0 m 1
 595 0 l 1
 704 511 l 1
 455 195 l 1
 387 195 l 1
 274 511 l 1
 165 0 l 1
 22 0 l 1
 185 767 l 1
 308 780 l 1
 452 341 l 1
 784 780 l 1
 901 767 l 1
 738 0 l 1
EndSplineSet
PickledDataWithLists: "(dp0
Vcom.fontlab.hintData
p1
(dp2
Vvhints
p3
(lp4
(dp5
Vposition
p6
L66L
sVwidth
p7
L10L
sa(dp8
g6
L102L
sg7
L10L
sa(dp9
g6
L197L
sg7
L10L
sa(dp10
g6
L691L
sg7
L10L
sa(dp11
g6
L785L
sg7
L10L
sa(dp12
g6
L824L
sg7
L10L
sasVhhints
p13
(lp14
(dp15
g6
L-19L
sg7
L10L
sa(dp16
g6
L-9L
sg7
L10L
sa(dp17
g6
L137L
sg7
L10L
sa(dp18
g6
L604L
sg7
L20L
sa(dp19
g6
L783L
sg7
L10L
sa(dp20
g6
L795L
sg7
L10L
sass."
Colour: ff00
EndChar

StartChar: N
Encoding: 78 78 50
GlifName: N_
Width: 790
VWidth: 0
Flags: HMW
AnchorPoint: "LatinBelow.mark" 335 0 basechar 0
AnchorPoint: "LatinAbove.mark" 367 150 basechar 0
LayerCount: 2
Fore
SplineSet
23 0 m 1
 186 767 l 1
 313 780 l 1
 555 233 l 1
 671 780 l 1
 813 780 l 1
 647 0 l 1
 523 0 l 1
 281 547 l 1
 165 0 l 1
 23 0 l 1
EndSplineSet
PickledDataWithLists: "(dp0
Vcom.fontlab.hintData
p1
(dp2
Vvhints
p3
(lp4
(dp5
Vposition
p6
L97L
sVwidth
p7
L10L
sa(dp8
g6
L111L
sg7
L10L
sa(dp9
g6
L209L
sg7
L10L
sa(dp10
g6
L601L
sg7
L10L
sa(dp11
g6
L613L
sg7
L10L
sa(dp12
g6
L699L
sg7
L10L
sa(dp13
g6
L711L
sg7
L10L
sasVhhints
p14
(lp15
(dp16
g6
L-14L
sg7
L10L
sa(dp17
g6
L-8L
sg7
L10L
sa(dp18
g6
L794L
sg7
L10L
sass."
Colour: ff00
EndChar

StartChar: O
Encoding: 79 79 51
GlifName: O_
Width: 820
VWidth: 0
Flags: HMW
AnchorPoint: "LatinOgonek.mark" 420 0 basechar 0
AnchorPoint: "LatinBelow.mark" 350 0 basechar 0
AnchorPoint: "LatinAbove.mark" 382 150 basechar 0
LayerCount: 2
Fore
SplineSet
71 373 m 2
 79 407 l 2
 117 585 240 800 520 800 c 0
 741 800 808 667 808 523 c 0
 808 484 803 445 795 407 c 2
 787 373 l 2
 749 195 626 -20 346 -20 c 0
 125 -20 58 113 58 257 c 0
 58 296 63 335 71 373 c 2
368 87 m 0
 505 87 600 194 638 373 c 2
 646 407 l 2
 654 446 658 481 658 513 c 0
 658 628 604 693 497 693 c 0
 360 693 266 586 228 407 c 2
 220 373 l 2
 212 334 208 299 208 267 c 0
 208 153 261 87 368 87 c 0
EndSplineSet
PickledDataWithLists: "(dp0
Vcom.fontlab.hintData
p1
(dp2
Vvhints
p3
(lp4
(dp5
Vposition
p6
L66L
sVwidth
p7
L10L
sa(dp8
g6
L164L
sg7
L10L
sa(dp9
g6
L572L
sg7
L10L
sa(dp10
g6
L659L
sg7
L10L
sa(dp11
g6
L690L
sg7
L10L
sa(dp12
g6
L757L
sg7
L10L
sasVhhints
p13
(lp14
(dp15
g6
L-22L
sg7
L10L
sa(dp16
g6
L47L
sg7
L10L
sa(dp17
g6
L742L
sg7
L10L
sa(dp18
g6
L811L
sg7
L10L
sass."
Colour: ff00
EndChar

StartChar: P
Encoding: 80 80 52
GlifName: P_
Width: 710
VWidth: 0
Flags: HMW
AnchorPoint: "LatinBelow.mark" 100 0 basechar 0
AnchorPoint: "LatinAbove.mark" 332 150 basechar 0
LayerCount: 2
Fore
SplineSet
253 416 m 1
 281 414 321 413 361 413 c 0
 472 413 569 445 591 550 c 0
 593 561 595 572 595 582 c 0
 595 662 518 686 419 686 c 0
 379 686 338 685 310 683 c 1
 253 416 l 1
231 312 m 1
 165 0 l 1
 22 0 l 1
 90 319 l 1
 188 780 l 1
 197 781 328 789 457 789 c 0
 629 789 739 719 739 598 c 0
 739 583 738 567 734 550 c 0
 702 400 549 310 355 310 c 0
 312 310 269 311 231 312 c 1
EndSplineSet
PickledDataWithLists: "(dp0
Vcom.fontlab.hintData
p1
(dp2
Vvhints
p3
(lp4
(dp5
Vposition
p6
L26L
sVwidth
p7
L10L
sa(dp8
g6
L36L
sg7
L10L
sa(dp9
g6
L116L
sg7
L10L
sa(dp10
g6
L130L
sg7
L10L
sa(dp11
g6
L228L
sg7
L10L
sa(dp12
g6
L592L
sg7
L10L
sa(dp13
g6
L693L
sg7
L10L
sasVhhints
p14
(lp15
(dp16
g6
L-24L
sg7
L10L
sa(dp17
g6
L302L
sg7
L10L
sa(dp18
g6
L369L
sg7
L10L
sa(dp19
g6
L429L
sg7
L10L
sa(dp20
g6
L634L
sg7
L10L
sa(dp21
g6
L661L
sg7
L10L
sa(dp22
g6
L744L
sg7
L10L
sa(dp23
g6
L813L
sg7
L10L
sass."
Colour: ff00
EndChar

StartChar: Q
Encoding: 81 81 53
GlifName: Q_
Width: 820
VWidth: 0
Flags: HMW
AnchorPoint: "LatinBelow.mark" 350 0 basechar 0
AnchorPoint: "LatinAbove.mark" 382 150 basechar 0
LayerCount: 2
Fore
SplineSet
71 373 m 2
 79 407 l 2
 117 585 240 800 520 800 c 0
 741 800 808 667 808 523 c 0
 808 484 803 445 795 407 c 2
 787 373 l 2
 769 289 733 197 669 123 c 1
 754 43 l 1
 676 -39 l 1
 586 49 l 1
 523 7 444 -20 346 -20 c 0
 125 -20 58 113 58 257 c 0
 58 296 63 335 71 373 c 2
374 257 m 1
 446 330 l 1
 575 209 l 1
 602 253 624 309 638 373 c 2
 646 407 l 2
 654 446 658 481 658 513 c 0
 658 628 604 693 497 693 c 0
 360 693 266 586 228 407 c 2
 220 373 l 2
 212 334 208 299 208 267 c 0
 208 153 261 87 368 87 c 0
 419 87 465 102 504 130 c 1
 374 257 l 1
EndSplineSet
PickledDataWithLists: "(dp0
Vcom.fontlab.hintData
p1
(dp2
Vvhints
p3
(lp4
(dp5
Vposition
p6
L66L
sVwidth
p7
L10L
sa(dp8
g6
L164L
sg7
L10L
sa(dp9
g6
L407L
sg7
L10L
sa(dp10
g6
L491L
sg7
L10L
sa(dp11
g6
L675L
sg7
L10L
sa(dp12
g6
L690L
sg7
L10L
sa(dp13
g6
L760L
sg7
L10L
sa(dp14
g6
L769L
sg7
L10L
sasVhhints
p15
(lp16
(dp17
g6
L-206L
sg7
L10L
sa(dp18
g6
L-17L
sg7
L10L
sa(dp19
g6
L46L
sg7
L10L
sa(dp20
g6
L514L
sg7
L10L
sa(dp21
g6
L576L
sg7
L10L
sa(dp22
g6
L598L
sg7
L10L
sa(dp23
g6
L742L
sg7
L10L
sa(dp24
g6
L811L
sg7
L10L
sass."
Colour: ff00
EndChar

StartChar: R
Encoding: 82 82 54
GlifName: R_
Width: 730
VWidth: 0
Flags: HMW
AnchorPoint: "LatinBelow.mark" 300 0 basechar 0
AnchorPoint: "LatinAbove.mark" 332 150 basechar 0
LayerCount: 2
Fore
SplineSet
297 310 m 1
 274 310 252 311 231 312 c 1
 165 0 l 1
 22 0 l 1
 90 319 l 1
 188 780 l 1
 197 781 328 789 457 789 c 0
 629 789 739 719 739 598 c 0
 739 583 738 567 734 550 c 0
 708 427 601 345 456 319 c 1
 648 7 l 1
 647 0 l 1
 483 0 l 1
 297 310 l 1
253 416 m 1
 281 414 321 413 361 413 c 0
 472 413 569 445 591 550 c 0
 593 561 595 572 595 582 c 0
 595 662 518 686 419 686 c 0
 379 686 338 685 310 683 c 1
 253 416 l 1
EndSplineSet
PickledDataWithLists: "(dp0
Vcom.fontlab.hintData
p1
(dp2
Vvhints
p3
(lp4
(dp5
Vposition
p6
L26L
sVwidth
p7
L10L
sa(dp8
g6
L116L
sg7
L10L
sa(dp9
g6
L126L
sg7
L10L
sa(dp10
g6
L228L
sg7
L10L
sa(dp11
g6
L605L
sg7
L10L
sa(dp12
g6
L705L
sg7
L10L
sa(dp13
g6
L734L
sg7
L10L
sasVhhints
p14
(lp15
(dp16
g6
L-29L
sg7
L10L
sa(dp17
g6
L-24L
sg7
L10L
sa(dp18
g6
L332L
sg7
L10L
sa(dp19
g6
L401L
sg7
L10L
sa(dp20
g6
L430L
sg7
L10L
sa(dp21
g6
L634L
sg7
L10L
sa(dp22
g6
L661L
sg7
L10L
sa(dp23
g6
L745L
sg7
L10L
sa(dp24
g6
L812L
sg7
L10L
sass."
Colour: ff00
EndChar

StartChar: S
Encoding: 83 83 55
GlifName: S_
Width: 710
VWidth: 0
Flags: HMW
AnchorPoint: "LatinCedilla.mark" 320 0 basechar 0
AnchorPoint: "LatinBelow.mark" 295 0 basechar 0
AnchorPoint: "LatinAbove.mark" 327 150 basechar 0
LayerCount: 2
Fore
SplineSet
26 182 m 1
 173 202 l 1
 173 201 173 199 173 198 c 0
 173 144 214 85 313 85 c 0
 423 85 488 129 504 204 c 0
 506 213 507 222 507 230 c 0
 507 280 468 298 439 307 c 0
 386 322 307 351 253 371 c 0
 195 394 123 443 123 534 c 0
 123 547 124 560 127 574 c 0
 155 704 292 800 465 800 c 0
 645 800 710 684 710 606 c 0
 710 605 710 603 710 602 c 1
 563 582 l 1
 563 583 563 585 563 586 c 0
 563 640 524 695 443 695 c 0
 352 695 284 651 269 581 c 0
 268 574 267 569 267 563 c 0
 267 521 304 502 341 487 c 0
 391 468 468 442 516 427 c 0
 583 405 652 355 652 259 c 0
 652 244 651 227 647 210 c 0
 619 80 482 -20 291 -20 c 0
 94 -20 26 99 26 179 c 0
 26 180 26 181 26 182 c 1
EndSplineSet
PickledDataWithLists: "(dp0
Vcom.fontlab.hintData
p1
(dp2
Vvhints
p3
(lp4
(dp5
Vposition
p6
L60L
sVwidth
p7
L10L
sa(dp8
g6
L68L
sg7
L10L
sa(dp9
g6
L159L
sg7
L10L
sa(dp10
g6
L494L
sg7
L10L
sa(dp11
g6
L555L
sg7
L10L
sa(dp12
g6
L594L
sg7
L10L
sa(dp13
g6
L654L
sg7
L10L
sasVhhints
p14
(lp15
(dp16
g6
L-22L
sg7
L10L
sa(dp17
g6
L46L
sg7
L10L
sa(dp18
g6
L192L
sg7
L10L
sa(dp19
g6
L584L
sg7
L10L
sa(dp20
g6
L744L
sg7
L10L
sa(dp21
g6
L812L
sg7
L10L
sass."
Colour: ff00
EndChar

StartChar: T
Encoding: 84 84 56
GlifName: T_
Width: 620
VWidth: 0
Flags: HMW
AnchorPoint: "LatinCedilla.mark" 260 0 basechar 0
AnchorPoint: "LatinBelow.mark" 250 0 basechar 0
AnchorPoint: "LatinAbove.mark" 282 150 basechar 0
LayerCount: 2
Fore
SplineSet
105 673 m 1
 128 780 l 1
 704 780 l 1
 681 673 l 1
 466 673 l 1
 323 0 l 1
 177 0 l 1
 320 673 l 1
 105 673 l 1
EndSplineSet
PickledDataWithLists: "(dp0
Vcom.fontlab.hintData
p1
(dp2
Vvhints
p3
(lp4
(dp5
Vposition
p6
L25L
sVwidth
p7
L10L
sa(dp8
g6
L301L
sg7
L10L
sa(dp9
g6
L306L
sg7
L10L
sa(dp10
g6
L407L
sg7
L10L
sa(dp11
g6
L674L
sg7
L10L
sasVhhints
p12
(lp13
(dp14
g6
L-19L
sg7
L10L
sa(dp15
g6
L722L
sg7
L10L
sa(dp16
g6
L731L
sg7
L10L
sa(dp17
g6
L790L
sg7
L10L
sa(dp18
g6
L800L
sg7
L10L
sass."
Colour: ff00
EndChar

StartChar: U
Encoding: 85 85 57
GlifName: U_
Width: 770
VWidth: 0
Flags: HMW
AnchorPoint: "LatinOgonek.mark" 420 0 basechar 0
AnchorPoint: "LatinBelow.mark" 325 0 basechar 0
AnchorPoint: "LatinAbove.mark" 357 150 basechar 0
LayerCount: 2
Fore
SplineSet
64 242 m 2
 179 780 l 1
 326 780 l 1
 211 242 l 2
 208 226 206 212 206 199 c 0
 206 121 262 86 343 86 c 0
 438 86 518 134 541 242 c 2
 656 780 l 1
 803 780 l 1
 688 242 l 2
 657 95 513 -20 321 -20 c 0
 153 -20 58 68 58 189 c 0
 58 206 60 224 64 242 c 2
EndSplineSet
PickledDataWithLists: "(dp0
Vcom.fontlab.hintData
p1
(dp2
Vvhints
p3
(lp4
(dp5
Vposition
p6
L96L
sVwidth
p7
L10L
sa(dp8
g6
L107L
sg7
L10L
sa(dp9
g6
L194L
sg7
L10L
sa(dp10
g6
L205L
sg7
L10L
sa(dp11
g6
L603L
sg7
L10L
sa(dp12
g6
L616L
sg7
L10L
sa(dp13
g6
L704L
sg7
L10L
sa(dp14
g6
L714L
sg7
L10L
sasVhhints
p15
(lp16
(dp17
g6
L-24L
sg7
L10L
sa(dp18
g6
L44L
sg7
L10L
sa(dp19
g6
L789L
sg7
L10L
sass."
EndChar

StartChar: V
Encoding: 86 86 58
GlifName: V_
Width: 750
VWidth: 0
Flags: HMW
AnchorPoint: "LatinBelow.mark" 315 0 basechar 0
AnchorPoint: "LatinAbove.mark" 347 150 basechar 0
LayerCount: 2
Fore
SplineSet
114 758 m 1
 116 767 l 1
 290 780 l 1
 355 189 l 1
 672 780 l 1
 840 767 l 1
 838 758 l 1
 376 0 l 1
 254 0 l 1
 114 758 l 1
EndSplineSet
PickledDataWithLists: "(dp0
Vcom.fontlab.hintData
p1
(dp2
Vvhints
p3
(lp4
(dp5
Vposition
p6
L41L
sVwidth
p7
L10L
sa(dp8
g6
L759L
sg7
L10L
sasVhhints
p9
(lp10
(dp11
g6
L-21L
sg7
L10L
sa(dp12
g6
L781L
sg7
L10L
sa(dp13
g6
L794L
sg7
L10L
sass."
EndChar

StartChar: W
Encoding: 87 87 59
GlifName: W_
Width: 1060
VWidth: 0
Flags: HMW
AnchorPoint: "LatinBelow.mark" 470 0 basechar 0
AnchorPoint: "LatinAbove.mark" 502 150 basechar 0
LayerCount: 2
Fore
SplineSet
1144 758 m 1
 756 0 l 1
 632 0 l 1
 588 555 l 1
 308 0 l 1
 184 0 l 1
 118 758 l 1
 120 766 l 1
 281 780 l 1
 301 206 l 1
 572 760 l 1
 692 760 l 1
 727 206 l 1
 991 780 l 1
 1146 766 l 1
 1144 758 l 1
EndSplineSet
PickledDataWithLists: "(dp0
Vcom.fontlab.hintData
p1
(dp2
Vvhints
p3
(lp4
(dp5
Vposition
p6
L46L
sVwidth
p7
L10L
sa(dp8
g6
L1045L
sg7
L10L
sasVhhints
p9
(lp10
(dp11
g6
L-10L
sg7
L10L
sa(dp12
g6
L762L
sg7
L10L
sa(dp13
g6
L790L
sg7
L10L
sass."
Colour: ff00
EndChar

StartChar: X
Encoding: 88 88 60
GlifName: X_
Width: 740
VWidth: 0
Flags: HMW
AnchorPoint: "LatinBelow.mark" 310 0 basechar 0
AnchorPoint: "LatinAbove.mark" 342 150 basechar 0
LayerCount: 2
Fore
SplineSet
149 758 m 1
 151 766 l 1
 314 780 l 1
 418 507 l 1
 639 780 l 1
 796 766 l 1
 794 758 l 1
 480 414 l 1
 684 7 l 1
 683 0 l 1
 515 0 l 1
 373 297 l 1
 106 0 l 1
 -62 0 l 1
 -61 7 l 1
 317 414 l 1
 149 758 l 1
EndSplineSet
PickledDataWithLists: "(dp0
Vcom.fontlab.hintData
p1
(dp2
Vvhints
p3
(lp4
(dp5
Vposition
p6
L31L
sVwidth
p7
L10L
sa(dp8
g6
L91L
sg7
L10L
sa(dp9
g6
L687L
sg7
L10L
sa(dp10
g6
L734L
sg7
L10L
sasVhhints
p11
(lp12
(dp13
g6
L-9L
sg7
L10L
sa(dp14
g6
L4L
sg7
L10L
sa(dp15
g6
L789L
sg7
L10L
sass."
Colour: ff00
EndChar

StartChar: Y
Encoding: 89 89 61
GlifName: Y_
Width: 670
VWidth: 0
Flags: HMW
AnchorPoint: "LatinBelow.mark" 275 0 basechar 0
AnchorPoint: "LatinAbove.mark" 307 150 basechar 0
LayerCount: 2
Fore
SplineSet
104 758 m 1
 106 767 l 1
 271 780 l 1
 367 431 l 1
 611 780 l 1
 770 767 l 1
 768 758 l 1
 409 291 l 1
 347 0 l 1
 203 0 l 1
 265 291 l 1
 104 758 l 1
EndSplineSet
PickledDataWithLists: "(dp0
Vcom.fontlab.hintData
p1
(dp2
Vvhints
p3
(lp4
(dp5
Vposition
p6
L35L
sVwidth
p7
L10L
sa(dp8
g6
L310L
sg7
L10L
sa(dp9
g6
L408L
sg7
L10L
sa(dp10
g6
L414L
sg7
L10L
sa(dp11
g6
L675L
sg7
L10L
sasVhhints
p12
(lp13
(dp14
g6
L-20L
sg7
L10L
sa(dp15
g6
L789L
sg7
L10L
sa(dp16
g6
L800L
sg7
L10L
sass."
EndChar

StartChar: Z
Encoding: 90 90 62
GlifName: Z_
Width: 670
VWidth: 0
Flags: HMW
AnchorPoint: "LatinBelow.mark" 275 0 basechar 0
AnchorPoint: "LatinAbove.mark" 307 150 basechar 0
LayerCount: 2
Fore
SplineSet
-15 82 m 1
 521 668 l 1
 138 668 l 1
 162 780 l 1
 728 780 l 1
 720 698 l 1
 187 112 l 1
 607 112 l 1
 583 0 l 1
 -22 0 l 1
 -15 82 l 1
EndSplineSet
PickledDataWithLists: "(dp0
Vcom.fontlab.hintData
p1
(dp2
Vvhints
p3
(lp4
(dp5
Vposition
p6
L46L
sVwidth
p7
L10L
sa(dp8
g6
L66L
sg7
L10L
sa(dp9
g6
L679L
sg7
L10L
sa(dp10
g6
L699L
sg7
L10L
sasVhhints
p11
(lp12
(dp13
g6
L-13L
sg7
L10L
sa(dp14
g6
L64L
sg7
L10L
sa(dp15
g6
L75L
sg7
L10L
sa(dp16
g6
L709L
sg7
L10L
sa(dp17
g6
L779L
sg7
L10L
sa(dp18
g6
L785L
sg7
L10L
sa(dp19
g6
L790L
sg7
L10L
sass."
Colour: ff00
EndChar

StartChar: bracketleft
Encoding: 91 91 63
GlifName: bracketleft
Width: 435
VWidth: 0
Flags: HMW
LayerCount: 2
Fore
SplineSet
26 -120 m 1
 243 900 l 1
 483 900 l 1
 466 818 l 1
 342 818 l 1
 160 -38 l 1
 282 -38 l 1
 264 -120 l 1
 26 -120 l 1
EndSplineSet
PickledDataWithLists: "(dp0
Vcom.fontlab.hintData
p1
(dp2
Vvhints
p3
(lp4
(dp5
Vposition
p6
L71L
sVwidth
p7
L10L
sa(dp8
g6
L92L
sg7
L10L
sa(dp9
g6
L161L
sg7
L10L
sa(dp10
g6
L289L
sg7
L10L
sasVhhints
p11
(lp12
(dp13
g6
L-91L
sg7
L10L
sa(dp14
g6
L-44L
sg7
L10L
sa(dp15
g6
L830L
sg7
L10L
sa(dp16
g6
L877L
sg7
L10L
sass."
EndChar

StartChar: backslash
Encoding: 92 92 64
GlifName: backslash
Width: 510
VWidth: 0
Flags: HMW
LayerCount: 2
Fore
SplineSet
420 0 m 1
 296 0 l 1
 134 773 l 1
 136 780 l 1
 260 780 l 1
 421 7 l 1
 420 0 l 1
EndSplineSet
PickledDataWithLists: "(dp0
Vcom.fontlab.hintData
p1
(dp2
Vvhints
p3
(lp4
(dp5
Vposition
p6
L40L
sVwidth
p7
L10L
sa(dp8
g6
L430L
sg7
L10L
sasVhhints
p9
(lp10
(dp11
g6
L-29L
sg7
L10L
sa(dp12
g6
L819L
sg7
L10L
sass."
EndChar

StartChar: bracketright
Encoding: 93 93 65
GlifName: bracketright
Width: 435
VWidth: 0
Flags: HMW
LayerCount: 2
Fore
SplineSet
454 900 m 1
 237 -120 l 1
 -3 -120 l 1
 15 -38 l 1
 139 -38 l 1
 321 818 l 1
 199 818 l 1
 216 900 l 1
 454 900 l 1
EndSplineSet
PickledDataWithLists: "(dp0
Vcom.fontlab.hintData
p1
(dp2
Vvhints
p3
(lp4
(dp5
Vposition
p6
L61L
sVwidth
p7
L10L
sa(dp8
g6
L189L
sg7
L10L
sa(dp9
g6
L258L
sg7
L10L
sa(dp10
g6
L279L
sg7
L10L
sasVhhints
p11
(lp12
(dp13
g6
L-90L
sg7
L10L
sa(dp14
g6
L-42L
sg7
L10L
sa(dp15
g6
L829L
sg7
L10L
sa(dp16
g6
L879L
sg7
L10L
sass."
EndChar

StartChar: asciicircum
Encoding: 94 94 66
GlifName: asciicircum
Width: 630
VWidth: 0
Flags: HMW
LayerCount: 2
Fore
SplineSet
88 592 m 1
 418 894 l 1
 471 894 l 1
 673 592 l 1
 594 544 l 1
 413 750 l 1
 147 544 l 1
 88 592 l 1
EndSplineSet
PickledDataWithLists: "(dp0
Vcom.fontlab.hintData
p1
(dp2
Vvhints
p3
(lp4
(dp5
Vposition
p6
L23L
sVwidth
p7
L10L
sasVhhints
p8
(lp9
(dp10
g6
L532L
sg7
L10L
sa(dp11
g6
L839L
sg7
L10L
sass."
EndChar

StartChar: underscore
Encoding: 95 95 67
GlifName: underscore
Width: 600
VWidth: 0
Flags: HMW
LayerCount: 2
Fore
SplineSet
-60 0 m 25
 540 0 l 25
 518 -104 l 25
 -82 -104 l 25
 -60 0 l 25
EndSplineSet
PickledDataWithLists: "(dp0
Vcom.fontlab.hintData
p1
(dp2
Vvhints
p3
(lp4
(dp5
Vposition
p6
L30L
sVwidth
p7
L10L
sa(dp8
g6
L559L
sg7
L10L
sasVhhints
p9
(lp10
(dp11
g6
L-69L
sg7
L10L
sa(dp12
g6
L-6L
sg7
L10L
sa(dp13
g6
L1L
sg7
L10L
sass."
EndChar

StartChar: grave
Encoding: 96 96 68
GlifName: grave
Width: 390
VWidth: 0
Flags: HMW
LayerCount: 2
Fore
SplineSet
107 818 m 1
 226 894 l 1
 434 592 l 1
 355 544 l 1
 107 818 l 1
EndSplineSet
PickledDataWithLists: "(dp0
Vcom.fontlab.hintData
p1
(dp2
Vvhints
p3
(lp4
(dp5
Vposition
p6
L20L
sVwidth
p7
L10L
sasVhhints
p8
(lp9
(dp10
g6
L541L
sg7
L10L
sa(dp11
g6
L838L
sg7
L10L
sass."
EndChar

StartChar: a
Encoding: 97 97 69
GlifName: a
Width: 625
VWidth: 0
Flags: HMW
AnchorPoint: "LatinOgonek.mark" 455 0 basechar 0
AnchorPoint: "LatinBelow.mark" 270 0 basechar 0
AnchorPoint: "LatinAbove.mark" 250 0 basechar 0
LayerCount: 2
Fore
SplineSet
25 173 m 0
 41 249 120 326 262 326 c 0
 320 326 378 322 423 318 c 1
 443 415 l 2
 445 426 447 437 447 446 c 0
 447 501 406 522 352 522 c 0
 294 522 244 489 219 419 c 1
 84 430 l 1
 117 522 216 620 373 620 c 0
 506 620 581 552 581 457 c 0
 581 443 579 430 576 415 c 2
 520 149 l 2
 517 136 515 124 515 115 c 0
 515 89 529 77 564 73 c 1
 511 -15 l 1
 474 -10 413 4 401 64 c 1
 356 20 293 -15 209 -15 c 0
 88 -15 20 41 20 130 c 0
 20 144 22 158 25 173 c 0
412 237 m 1
 370 242 312 248 253 248 c 0
 215 248 168 226 157 172 c 0
 155 162 154 153 154 144 c 0
 154 88 196 67 243 67 c 0
 329 67 378 133 405 204 c 1
 412 237 l 1
EndSplineSet
PickledDataWithLists: "(dp0
Vcom.fontlab.hintData
p1
(dp2
Vvhints
p3
(lp4
(dp5
Vposition
p6
L60L
sVwidth
p7
L10L
sa(dp8
g6
L149L
sg7
L10L
sa(dp9
g6
L441L
sg7
L10L
sa(dp10
g6
L529L
sg7
L10L
sa(dp11
g6
L649L
sg7
L10L
sasVhhints
p12
(lp13
(dp14
g6
L-21L
sg7
L10L
sa(dp15
g6
L-11L
sg7
L10L
sa(dp16
g6
L41L
sg7
L10L
sa(dp17
g6
L362L
sg7
L10L
sa(dp18
g6
L432L
sg7
L10L
sa(dp19
g6
L549L
sg7
L10L
sa(dp20
g6
L611L
sg7
L10L
sass."
Substitution2: "Latin.ss20 subtable" uni0251
Substitution2: "Latin.ss19 subtable" uni0251
Colour: ff00
EndChar

StartChar: b
Encoding: 98 98 70
GlifName: b
Width: 675
VWidth: 0
Flags: HMW
AnchorPoint: "LatinBelow.mark" 300 0 basechar 0
AnchorPoint: "LatinAbove.mark" 113 180 basechar 0
LayerCount: 2
Fore
SplineSet
633 311 m 2
 628 289 l 2
 600 155 499 -15 311 -15 c 0
 233 -15 187 28 160 82 c 1
 133 0 l 1
 17 0 l 1
 189 810 l 1
 322 810 l 1
 262 528 l 1
 310 578 372 615 445 615 c 0
 594 615 642 509 642 398 c 0
 642 369 639 339 633 311 c 2
229 371 m 1
 199 229 l 1
 201 149 235 84 315 84 c 0
 396 84 461 150 491 289 c 2
 496 311 l 2
 503 343 506 372 506 396 c 0
 506 477 469 516 407 516 c 0
 327 516 265 451 229 371 c 1
EndSplineSet
PickledDataWithLists: "(dp0
Vcom.fontlab.hintData
p1
(dp2
Vvhints
p3
(lp4
(dp5
Vposition
p6
L81L
sVwidth
p7
L10L
sa(dp8
g6
L91L
sg7
L10L
sa(dp9
g6
L179L
sg7
L10L
sa(dp10
g6
L211L
sg7
L10L
sa(dp11
g6
L504L
sg7
L10L
sa(dp12
g6
L593L
sg7
L10L
sasVhhints
p13
(lp14
(dp15
g6
L-21L
sg7
L10L
sa(dp16
g6
L41L
sg7
L10L
sa(dp17
g6
L524L
sg7
L10L
sa(dp18
g6
L546L
sg7
L10L
sa(dp19
g6
L607L
sg7
L10L
sa(dp20
g6
L836L
sg7
L10L
sass."
Colour: ff00
EndChar

StartChar: c
Encoding: 99 99 71
GlifName: c
Width: 605
VWidth: 0
Flags: HMW
AnchorPoint: "LatinCedilla.mark" 270 0 basechar 0
AnchorPoint: "LatinBelow.mark" 270 0 basechar 0
AnchorPoint: "LatinAbove.mark" 270 0 basechar 0
LayerCount: 2
Fore
SplineSet
49 288 m 2
 54 312 l 2
 82 446 176 620 403 620 c 0
 564 620 613 519 613 455 c 0
 613 453 613 451 613 449 c 1
 473 437 l 1
 473 476 444 521 382 521 c 0
 296 521 223 449 194 312 c 2
 189 288 l 2
 183 259 180 232 180 209 c 0
 180 123 220 79 288 79 c 0
 350 79 399 124 415 163 c 1
 550 151 l 1
 525 87 433 -20 267 -20 c 0
 89 -20 39 86 39 197 c 0
 39 228 43 259 49 288 c 2
EndSplineSet
PickledDataWithLists: "(dp0
Vcom.fontlab.hintData
p1
(dp2
Vvhints
p3
(lp4
(dp5
Vposition
p6
L58L
sVwidth
p7
L10L
sa(dp8
g6
L152L
sg7
L10L
sa(dp9
g6
L433L
sg7
L10L
sa(dp10
g6
L527L
sg7
L10L
sa(dp11
g6
L552L
sg7
L10L
sasVhhints
p12
(lp13
(dp14
g6
L-22L
sg7
L10L
sa(dp15
g6
L44L
sg7
L10L
sa(dp16
g6
L133L
sg7
L10L
sa(dp17
g6
L433L
sg7
L10L
sa(dp18
g6
L548L
sg7
L10L
sa(dp19
g6
L614L
sg7
L10L
sass."
Colour: ff00
EndChar

StartChar: d
Encoding: 100 100 72
GlifName: d
Width: 680
VWidth: 0
Flags: HMW
AnchorPoint: "LatinBelow.mark" 300 0 basechar 0
AnchorPoint: "LatinAbove.mark" 503 180 basechar 0
LayerCount: 2
Fore
SplineSet
49 289 m 2
 54 311 l 2
 82 445 184 615 372 615 c 0
 445 615 491 578 517 528 c 1
 577 810 l 1
 710 810 l 1
 570 149 l 2
 567 136 565 124 565 115 c 0
 565 89 579 77 614 73 c 1
 561 -15 l 1
 519 -9 448 9 448 89 c 0
 448 94 448 99 449 105 c 1
 398 40 327 -15 238 -15 c 0
 89 -15 40 92 40 203 c 0
 40 232 43 261 49 289 c 2
484 371 m 1
 482 451 448 516 368 516 c 0
 287 516 221 450 191 311 c 2
 186 289 l 2
 179 257 176 229 176 205 c 0
 176 123 213 84 276 84 c 0
 356 84 418 149 454 229 c 1
 484 371 l 1
EndSplineSet
PickledDataWithLists: "(dp0
Vcom.fontlab.hintData
p1
(dp2
Vvhints
p3
(lp4
(dp5
Vposition
p6
L61L
sVwidth
p7
L10L
sa(dp8
g6
L149L
sg7
L10L
sa(dp9
g6
L476L
sg7
L10L
sa(dp10
g6
L564L
sg7
L10L
sa(dp11
g6
L679L
sg7
L10L
sasVhhints
p12
(lp13
(dp14
g6
L-21L
sg7
L10L
sa(dp15
g6
L41L
sg7
L10L
sa(dp16
g6
L544L
sg7
L10L
sa(dp17
g6
L606L
sg7
L10L
sa(dp18
g6
L836L
sg7
L10L
sass."
Colour: ff00
EndChar

StartChar: e
Encoding: 101 101 73
GlifName: e
Width: 640
VWidth: 0
Flags: HMW
AnchorPoint: "LatinOgonek.mark" 350 0 basechar 0
AnchorPoint: "LatinBelow.mark" 270 0 basechar 0
AnchorPoint: "LatinAbove.mark" 270 0 basechar 0
LayerCount: 2
Fore
SplineSet
49 287 m 2
 55 313 l 2
 84 448 180 620 400 620 c 0
 551 620 616 527 616 420 c 0
 616 400 613 380 609 359 c 0
 603 330 594 301 582 273 c 1
 583 272 l 1
 582 272 l 1
 179 272 l 1
 175 248 173 227 173 207 c 0
 173 122 212 76 284 76 c 0
 353 76 404 123 419 162 c 1
 549 150 l 1
 523 84 428 -20 264 -20 c 0
 89 -20 39 85 39 195 c 0
 39 226 43 257 49 287 c 2
199 358 m 1
 481 358 l 2
 481 359 l 0
 485 379 487 398 487 414 c 0
 487 490 442 524 379 524 c 0
 299 524 233 465 199 358 c 1
EndSplineSet
PickledDataWithLists: "(dp0
Vcom.fontlab.hintData
p1
(dp2
Vvhints
p3
(lp4
(dp5
Vposition
p6
L45L
sVwidth
p7
L10L
sa(dp8
g6
L71L
sg7
L10L
sa(dp9
g6
L159L
sg7
L10L
sa(dp10
g6
L471L
sg7
L10L
sa(dp11
g6
L559L
sg7
L10L
sa(dp12
g6
L570L
sg7
L10L
sasVhhints
p13
(lp14
(dp15
g6
L-20L
sg7
L10L
sa(dp16
g6
L42L
sg7
L10L
sa(dp17
g6
L131L
sg7
L10L
sa(dp18
g6
L552L
sg7
L10L
sa(dp19
g6
L613L
sg7
L10L
sass."
Colour: ff00
EndChar

StartChar: f
Encoding: 102 102 74
GlifName: f
Width: 400
VWidth: 0
Flags: HMW
AnchorPoint: "LatinBelow.mark" 120 0 basechar 0
AnchorPoint: "LatinAbove.mark" 248 180 basechar 0
LayerCount: 2
Fore
SplineSet
74 514 m 1
 93 600 l 1
 178 600 l 1
 193 672 l 2
 205 730 263 830 399 830 c 0
 481 830 524 792 536 781 c 1
 463 708 l 1
 453 716 427 735 389 735 c 0
 357 735 334 710 326 672 c 2
 311 600 l 1
 453 600 l 1
 434 514 l 1
 296 514 l 1
 187 0 l 1
 50 0 l 1
 159 514 l 1
 74 514 l 1
EndSplineSet
PickledDataWithLists: "(dp0
Vcom.fontlab.hintData
p1
(dp2
Vvhints
p3
(lp4
(dp5
Vposition
p6
L20L
sVwidth
p7
L10L
sa(dp8
g6
L132L
sg7
L10L
sa(dp9
g6
L166L
sg7
L10L
sa(dp10
g6
L219L
sg7
L9L
sa(dp11
g6
L255L
sg7
L10L
sa(dp12
g6
L399L
sg7
L10L
sa(dp13
g6
L469L
sg7
L10L
sasVhhints
p14
(lp15
(dp16
g6
L-20L
sg7
L10L
sa(dp17
g6
L521L
sg7
L10L
sa(dp18
g6
L586L
sg7
L10L
sa(dp19
g6
L591L
sg7
L10L
sa(dp20
g6
L759L
sg7
L10L
sa(dp21
g6
L803L
sg7
L10L
sa(dp22
g6
L864L
sg7
L10L
sass."
Colour: ff00
EndChar

StartChar: h
Encoding: 104 104 76
GlifName: h
Width: 665
VWidth: 0
Flags: HMW
AnchorPoint: "LatinBelow.mark" 300 0 basechar 0
AnchorPoint: "LatinAbove.mark" 113 180 basechar 0
LayerCount: 2
Fore
SplineSet
17 0 m 1
 189 810 l 1
 321 810 l 1
 248 465 l 1
 307 545 392 615 499 615 c 0
 596 615 635 550 635 470 c 0
 635 451 633 431 629 411 c 2
 542 0 l 1
 405 0 l 1
 491 406 l 2
 494 421 495 433 495 444 c 0
 495 494 467 507 438 507 c 0
 358 507 261 409 219 306 c 1
 154 0 l 1
 17 0 l 1
EndSplineSet
PickledDataWithLists: "(dp0
Vcom.fontlab.hintData
p1
(dp2
Vvhints
p3
(lp4
(dp5
Vposition
p6
L65L
sVwidth
p7
L10L
sa(dp8
g6
L106L
sg7
L10L
sa(dp9
g6
L187L
sg7
L10L
sa(dp10
g6
L491L
sg7
L10L
sa(dp11
g6
L496L
sg7
L10L
sa(dp12
g6
L579L
sg7
L10L
sa(dp13
g6
L584L
sg7
L10L
sasVhhints
p14
(lp15
(dp16
g6
L-14L
sg7
L10L
sa(dp17
g6
L549L
sg7
L10L
sa(dp18
g6
L611L
sg7
L10L
sa(dp19
g6
L836L
sg7
L10L
sass."
Colour: ff00
EndChar

StartChar: i
Encoding: 105 105 77
GlifName: i
Width: 300
VWidth: 0
GlyphClass: 3
Flags: HMW
AnchorPoint: "LatinOgonek.mark" 95 0 basechar 0
AnchorPoint: "LatinBelow.mark" 90 0 basechar 0
AnchorPoint: "LatinAbove.mark" 128 180 basechar 0
LayerCount: 2
Fore
SplineSet
21 0 m 1
 149 600 l 1
 287 600 l 1
 159 0 l 1
 21 0 l 1
273 861 m 0
 316 861 346 838 346 799 c 0
 346 793 345 787 344 780 c 0
 333 730 289 699 239 699 c 0
 196 699 166 722 166 761 c 0
 166 767 167 773 168 780 c 0
 179 830 223 861 273 861 c 0
EndSplineSet
PickledDataWithLists: "(dp0
Vcom.fontlab.hintData
p1
(dp2
Vvhints
p3
(lp4
(dp5
Vposition
p6
L86L
sVwidth
p7
L10L
sa(dp8
g6
L116L
sg7
L10L
sa(dp9
g6
L204L
sg7
L10L
sa(dp10
g6
L234L
sg7
L10L
sa(dp11
g6
L244L
sg7
L10L
sasVhhints
p12
(lp13
(dp14
g6
L-21L
sg7
L10L
sa(dp15
g6
L595L
sg7
L10L
sa(dp16
g6
L725L
sg7
L10L
sa(dp17
g6
L826L
sg7
L20L
sa(dp18
g6
L852L
sg7
L10L
sass."
Substitution2: "Latin.ij.dotless subtable" dotlessi
Ligature2: "Latin.ij subtable" dotlessi uni0307
EndChar

StartChar: j
Encoding: 106 106 78
GlifName: j
Width: 310
VWidth: 0
GlyphClass: 3
Flags: HMW
AnchorPoint: "LatinBelow.mark" 52 -180 basechar 0
AnchorPoint: "LatinAbove.mark" 128 180 basechar 0
LayerCount: 2
Fore
SplineSet
-100 -138 m 1
 -30 -119 12 -89 29 -10 c 2
 159 600 l 1
 295 600 l 1
 163 -18 l 2
 138 -135 29 -201 -76 -225 c 1
 -100 -138 l 1
282 861 m 0
 325 861 355 838 355 799 c 0
 355 793 354 787 353 780 c 0
 342 730 298 699 248 699 c 0
 205 699 175 722 175 761 c 0
 175 767 176 773 177 780 c 0
 188 830 232 861 282 861 c 0
EndSplineSet
PickledDataWithLists: "(dp0
Vcom.fontlab.hintData
p1
(dp2
Vvhints
p3
(lp4
(dp5
Vposition
p6
L31L
sVwidth
p7
L10L
sa(dp8
g6
L86L
sg7
L10L
sa(dp9
g6
L126L
sg7
L10L
sa(dp10
g6
L146L
sg7
L10L
sa(dp11
g6
L234L
sg7
L10L
sa(dp12
g6
L244L
sg7
L10L
sasVhhints
p13
(lp14
(dp15
g6
L-246L
sg7
L10L
sa(dp16
g6
L596L
sg7
L10L
sa(dp17
g6
L725L
sg7
L10L
sa(dp18
g6
L826L
sg7
L20L
sa(dp19
g6
L852L
sg7
L10L
sass."
Substitution2: "Latin.ij.dotless subtable" uni0237
Ligature2: "Latin.ij subtable" uni0237 uni200D uni0307
Ligature2: "Latin.ij subtable" uni0237 uni0307
Ligature2: "Latin.ij subtable" dotlessi uni200D uni0307
EndChar

StartChar: k
Encoding: 107 107 79
GlifName: k
Width: 605
VWidth: 0
Flags: HMW
AnchorPoint: "LatinBelow.mark" 300 0 basechar 0
AnchorPoint: "LatinAbove.mark" 113 180 basechar 0
LayerCount: 2
Fore
SplineSet
28 0 m 1
 200 810 l 1
 330 810 l 1
 233 355 l 1
 502 600 l 1
 649 591 l 1
 648 586 l 1
 359 343 l 1
 549 5 l 1
 548 0 l 1
 392 0 l 1
 254 254 l 1
 203 212 l 1
 158 0 l 1
 28 0 l 1
EndSplineSet
PickledDataWithLists: "(dp0
Vcom.fontlab.hintData
p1
(dp2
Vvhints
p3
(lp4
(dp5
Vposition
p6
L75L
sVwidth
p7
L10L
sa(dp8
g6
L105L
sg7
L10L
sa(dp9
g6
L194L
sg7
L10L
sa(dp10
g6
L539L
sg7
L10L
sa(dp11
g6
L580L
sg7
L10L
sasVhhints
p12
(lp13
(dp14
g6
L-11L
sg7
L10L
sa(dp15
g6
L596L
sg7
L10L
sa(dp16
g6
L836L
sg7
L10L
sass."
Colour: ff00
EndChar

StartChar: l
Encoding: 108 108 80
GlifName: l
Width: 315
VWidth: 0
Flags: HMW
AnchorPoint: "LatinBelow.mark" 130 0 basechar 0
AnchorPoint: "LatinAbove.mark" 118 180 basechar 0
LayerCount: 2
Fore
SplineSet
48 134 m 2
 192 810 l 1
 329 810 l 1
 188 147 l 2
 186 140 186 133 186 127 c 0
 186 92 212 79 266 74 c 1
 221 -15 l 1
 146 -10 44 10 44 102 c 0
 44 112 45 122 48 134 c 2
EndSplineSet
PickledDataWithLists: "(dp0
Vcom.fontlab.hintData
p1
(dp2
Vvhints
p3
(lp4
(dp5
Vposition
p6
L106L
sVwidth
p7
L10L
sa(dp8
g6
L111L
sg7
L10L
sa(dp9
g6
L194L
sg7
L10L
sa(dp10
g6
L199L
sg7
L10L
sa(dp11
g6
L315L
sg7
L10L
sasVhhints
p12
(lp13
(dp14
g6
L-23L
sg7
L10L
sa(dp15
g6
L830L
sg7
L10L
sass."
EndChar

StartChar: m
Encoding: 109 109 81
GlifName: m
Width: 945
VWidth: 0
Flags: HMW
AnchorPoint: "LatinBelow.mark" 420 0 basechar 0
AnchorPoint: "LatinAbove.mark" 420 0 basechar 0
LayerCount: 2
Fore
SplineSet
133 593 m 1
 259 603 l 1
 250 495 l 1
 298 561 362 613 450 613 c 0
 537 613 576 559 581 490 c 1
 628 558 695 613 785 613 c 0
 879 613 916 551 916 473 c 0
 916 453 913 432 909 411 c 2
 822 0 l 1
 685 0 l 1
 771 406 l 2
 774 422 776 436 776 447 c 0
 776 494 751 505 724 505 c 0
 657 505 593 419 557 323 c 1
 488 0 l 1
 351 0 l 1
 437 406 l 2
 440 422 442 436 442 447 c 0
 442 494 417 505 390 505 c 0
 323 505 259 419 223 323 c 1
 154 0 l 1
 17 0 l 1
 106 420 l 1
 133 593 l 1
EndSplineSet
PickledDataWithLists: "(dp0
Vcom.fontlab.hintData
p1
(dp2
Vvhints
p3
(lp4
(dp5
Vposition
p6
L76L
sVwidth
p7
L10L
sa(dp8
g6
L96L
sg7
L10L
sa(dp9
g6
L167L
sg7
L10L
sa(dp10
g6
L436L
sg7
L10L
sa(dp11
g6
L441L
sg7
L10L
sa(dp12
g6
L776L
sg7
L10L
sa(dp13
g6
L781L
sg7
L10L
sa(dp14
g6
L864L
sg7
L10L
sa(dp15
g6
L869L
sg7
L10L
sasVhhints
p16
(lp17
(dp18
g6
L-19L
sg7
L10L
sa(dp19
g6
L-10L
sg7
L10L
sa(dp20
g6
L549L
sg7
L10L
sa(dp21
g6
L606L
sg7
L10L
sa(dp22
g6
L611L
sg7
L10L
sass."
Colour: ff00
EndChar

StartChar: n
Encoding: 110 110 82
GlifName: n
Width: 655
VWidth: 0
Flags: HMW
AnchorPoint: "LatinBelow.mark" 300 0 basechar 0
AnchorPoint: "LatinAbove.mark" 270 0 basechar 0
LayerCount: 2
Fore
SplineSet
17 0 m 1
 106 420 l 1
 133 593 l 1
 259 603 l 1
 248 470 l 1
 305 548 386 615 490 615 c 0
 587 615 626 551 626 471 c 0
 626 452 623 431 619 411 c 2
 532 0 l 1
 395 0 l 1
 481 406 l 2
 484 421 485 433 485 444 c 0
 485 494 457 507 429 507 c 0
 351 507 260 410 219 307 c 1
 154 0 l 1
 17 0 l 1
EndSplineSet
PickledDataWithLists: "(dp0
Vcom.fontlab.hintData
p1
(dp2
Vvhints
p3
(lp4
(dp5
Vposition
p6
L55L
sVwidth
p7
L10L
sa(dp8
g6
L96L
sg7
L10L
sa(dp9
g6
L481L
sg7
L10L
sa(dp10
g6
L486L
sg7
L10L
sa(dp11
g6
L569L
sg7
L10L
sa(dp12
g6
L574L
sg7
L10L
sasVhhints
p13
(lp14
(dp15
g6
L-15L
sg7
L10L
sa(dp16
g6
L-10L
sg7
L10L
sa(dp17
g6
L549L
sg7
L10L
sa(dp18
g6
L606L
sg7
L10L
sa(dp19
g6
L611L
sg7
L10L
sass."
Substitution2: "Latin.sups subtable" n.sups
Substitution2: "Latin.sups subtable" n.sups
Colour: ff00
EndChar

StartChar: o
Encoding: 111 111 83
GlifName: o
Width: 660
VWidth: 0
Flags: HMW
AnchorPoint: "LatinOgonek.mark" 340 0 basechar 0
AnchorPoint: "LatinBelow.mark" 270 0 basechar 0
AnchorPoint: "LatinAbove.mark" 270 0 basechar 0
LayerCount: 2
Fore
SplineSet
49 287 m 2
 55 313 l 2
 83 447 176 620 402 620 c 0
 579 620 629 514 629 404 c 0
 629 373 625 342 619 313 c 2
 613 287 l 2
 585 153 492 -20 266 -20 c 0
 89 -20 39 86 39 196 c 0
 39 227 43 258 49 287 c 2
287 78 m 0
 377 78 447 150 476 287 c 2
 482 313 l 2
 488 343 491 369 491 393 c 0
 491 478 452 522 381 522 c 0
 291 522 221 450 192 313 c 2
 186 287 l 2
 180 257 177 231 177 207 c 0
 177 122 216 78 287 78 c 0
EndSplineSet
PickledDataWithLists: "(dp0
Vcom.fontlab.hintData
p1
(dp2
Vvhints
p3
(lp4
(dp5
Vposition
p6
L61L
sVwidth
p7
L10L
sa(dp8
g6
L149L
sg7
L10L
sa(dp9
g6
L441L
sg7
L10L
sa(dp10
g6
L506L
sg7
L10L
sa(dp11
g6
L594L
sg7
L10L
sasVhhints
p12
(lp13
(dp14
g6
L-21L
sg7
L10L
sa(dp15
g6
L42L
sg7
L9L
sa(dp16
g6
L552L
sg7
L10L
sa(dp17
g6
L614L
sg7
L10L
sass."
Colour: ff00
EndChar

StartChar: p
Encoding: 112 112 84
GlifName: p
Width: 675
VWidth: 0
Flags: HMW
AnchorPoint: "LatinBelow.mark" 52 -180 basechar 0
AnchorPoint: "LatinAbove.mark" 270 0 basechar 0
LayerCount: 2
Fore
SplineSet
633 311 m 2
 628 289 l 2
 600 155 499 -15 311 -15 c 0
 240 -15 195 20 168 67 c 1
 109 -210 l 1
 -28 -210 l 1
 106 420 l 1
 133 593 l 1
 259 603 l 1
 252 517 l 1
 302 572 366 615 445 615 c 0
 594 615 642 509 642 398 c 0
 642 369 639 339 633 311 c 2
199 214 m 1
 204 141 240 84 315 84 c 0
 396 84 461 150 491 289 c 2
 496 311 l 2
 503 343 506 372 506 396 c 0
 506 477 469 516 407 516 c 0
 332 516 273 459 236 386 c 1
 199 214 l 1
EndSplineSet
PickledDataWithLists: "(dp0
Vcom.fontlab.hintData
p1
(dp2
Vvhints
p3
(lp4
(dp5
Vposition
p6
L41L
sVwidth
p7
L10L
sa(dp8
g6
L101L
sg7
L10L
sa(dp9
g6
L108L
sg7
L10L
sa(dp10
g6
L193L
sg7
L10L
sa(dp11
g6
L523L
sg7
L10L
sa(dp12
g6
L612L
sg7
L10L
sasVhhints
p13
(lp14
(dp15
g6
L-246L
sg7
L10L
sa(dp16
g6
L-16L
sg7
L10L
sa(dp17
g6
L46L
sg7
L10L
sa(dp18
g6
L549L
sg7
L10L
sa(dp19
g6
L610L
sg7
L10L
sass."
Colour: ff00
EndChar

StartChar: q
Encoding: 113 113 85
GlifName: q
Width: 675
VWidth: 0
Flags: HMW
AnchorPoint: "LatinBelow.mark" 424 -240 basechar 0
AnchorPoint: "LatinAbove.mark" 300 0 basechar 0
LayerCount: 2
Fore
SplineSet
49 289 m 2
 54 311 l 2
 82 445 184 615 372 615 c 0
 450 615 495 572 522 518 c 1
 550 600 l 1
 666 600 l 1
 493 -210 l 1
 360 -210 l 1
 420 72 l 1
 372 22 311 -15 238 -15 c 0
 89 -15 40 92 40 203 c 0
 40 232 43 261 49 289 c 2
454 229 m 1
 484 371 l 1
 482 451 448 516 368 516 c 0
 287 516 221 450 191 311 c 2
 186 289 l 2
 179 257 176 229 176 205 c 0
 176 123 213 84 276 84 c 0
 356 84 418 149 454 229 c 1
EndSplineSet
PickledDataWithLists: "(dp0
Vcom.fontlab.hintData
p1
(dp2
Vvhints
p3
(lp4
(dp5
Vposition
p6
L59L
sVwidth
p7
L10L
sa(dp8
g6
L149L
sg7
L10L
sa(dp9
g6
L444L
sg7
L10L
sa(dp10
g6
L459L
sg7
L10L
sa(dp11
g6
L471L
sg7
L10L
sa(dp12
g6
L547L
sg7
L10L
sa(dp13
g6
L559L
sg7
L10L
sa(dp14
g6
L649L
sg7
L10L
sasVhhints
p15
(lp16
(dp17
g6
L-261L
sg7
L10L
sa(dp18
g6
L-184L
sg7
L10L
sa(dp19
g6
L-17L
sg7
L10L
sa(dp20
g6
L44L
sg7
L10L
sa(dp21
g6
L66L
sg7
L10L
sa(dp22
g6
L549L
sg7
L10L
sa(dp23
g6
L611L
sg7
L10L
sass."
Colour: ff00
EndChar

StartChar: r
Encoding: 114 114 86
GlifName: r
Width: 435
VWidth: 0
Flags: HMW
AnchorPoint: "LatinBelow.mark" 110 0 basechar 0
AnchorPoint: "LatinAbove.mark" 180 0 basechar 0
LayerCount: 2
Fore
SplineSet
127 590 m 1
 245 603 l 1
 251 475 l 1
 292 550 353 615 442 615 c 0
 470 615 491 609 509 599 c 1
 434 487 l 1
 423 494 411 498 394 498 c 0
 333 498 277 417 243 323 c 1
 174 0 l 1
 37 0 l 1
 131 443 l 1
 127 590 l 1
EndSplineSet
PickledDataWithLists: "(dp0
Vcom.fontlab.hintData
p1
(dp2
Vvhints
p3
(lp4
(dp5
Vposition
p6
L20L
sVwidth
p7
L10L
sa(dp8
g6
L171L
sg7
L10L
sa(dp9
g6
L261L
sg7
L10L
sa(dp10
g6
L479L
sg7
L10L
sasVhhints
p11
(lp12
(dp13
g6
L-13L
sg7
L10L
sa(dp14
g6
L524L
sg7
L10L
sa(dp15
g6
L549L
sg7
L10L
sa(dp16
g6
L596L
sg7
L10L
sa(dp17
g6
L611L
sg7
L10L
sass."
Colour: ff00
EndChar

StartChar: s
Encoding: 115 115 87
GlifName: s
Width: 570
VWidth: 0
Flags: HMW
AnchorPoint: "LatinCedilla.mark" 250 0 basechar 0
AnchorPoint: "LatinBelow.mark" 225 0 basechar 0
AnchorPoint: "LatinAbove.mark" 225 0 basechar 0
LayerCount: 2
Fore
SplineSet
7 141 m 1
 143 158 l 1
 143 156 143 155 143 153 c 0
 143 113 175 76 245 76 c 0
 317 76 365 108 376 159 c 0
 377 165 378 170 378 175 c 0
 378 211 349 227 329 233 c 0
 288 246 229 263 188 279 c 0
 141 297 81 331 81 405 c 0
 81 416 82 427 85 439 c 0
 107 541 217 620 357 620 c 0
 506 620 555 530 555 466 c 0
 555 465 555 463 555 462 c 1
 419 445 l 1
 419 447 419 448 419 450 c 0
 419 490 396 524 336 524 c 0
 274 524 226 493 216 444 c 0
 215 440 215 437 215 433 c 0
 215 402 244 386 268 378 c 0
 307 364 368 346 401 335 c 0
 457 317 512 283 512 206 c 0
 512 193 510 179 507 164 c 0
 485 60 374 -20 221 -20 c 0
 61 -20 7 72 7 137 c 0
 7 138 7 140 7 141 c 1
EndSplineSet
PickledDataWithLists: "(dp0
Vcom.fontlab.hintData
p1
(dp2
Vvhints
p3
(lp4
(dp5
Vposition
p6
L60L
sVwidth
p7
L10L
sa(dp8
g6
L139L
sg7
L10L
sa(dp9
g6
L381L
sg7
L10L
sa(dp10
g6
L431L
sg7
L10L
sa(dp11
g6
L470L
sg7
L10L
sa(dp12
g6
L516L
sg7
L10L
sasVhhints
p13
(lp14
(dp15
g6
L-20L
sg7
L10L
sa(dp16
g6
L42L
sg7
L10L
sa(dp17
g6
L151L
sg7
L10L
sa(dp18
g6
L434L
sg7
L10L
sa(dp19
g6
L554L
sg7
L10L
sa(dp20
g6
L616L
sg7
L10L
sass."
Colour: ff00
EndChar

StartChar: t
Encoding: 116 116 88
GlifName: t
Width: 415
VWidth: 0
Flags: HMW
AnchorPoint: "LatinCedilla.mark" 210 0 basechar 0
AnchorPoint: "LatinBelow.mark" 220 0 basechar 0
AnchorPoint: "LatinAbove.mark" 146 120 basechar 0
LayerCount: 2
Fore
SplineSet
74 514 m 1
 93 600 l 1
 183 600 l 1
 209 725 l 1
 340 735 l 1
 312 600 l 1
 453 600 l 1
 434 514 l 1
 296 514 l 1
 220 154 l 2
 217 139 215 127 215 117 c 0
 215 91 227 83 251 83 c 0
 289 83 329 96 345 105 c 1
 358 16 l 1
 325 0 275 -15 213 -15 c 0
 129 -15 73 15 73 91 c 0
 73 104 75 118 78 134 c 2
 159 514 l 1
 74 514 l 1
EndSplineSet
PickledDataWithLists: "(dp0
Vcom.fontlab.hintData
p1
(dp2
Vvhints
p3
(lp4
(dp5
Vposition
p6
L20L
sVwidth
p7
L10L
sa(dp8
g6
L131L
sg7
L10L
sa(dp9
g6
L136L
sg7
L10L
sa(dp10
g6
L141L
sg7
L10L
sa(dp11
g6
L219L
sg7
L10L
sa(dp12
g6
L225L
sg7
L10L
sa(dp13
g6
L399L
sg7
L10L
sa(dp14
g6
L439L
sg7
L10L
sasVhhints
p15
(lp16
(dp17
g6
L-18L
sg7
L10L
sa(dp18
g6
L41L
sg7
L10L
sa(dp19
g6
L86L
sg7
L10L
sa(dp20
g6
L524L
sg7
L10L
sa(dp21
g6
L586L
sg7
L10L
sa(dp22
g6
L741L
sg7
L10L
sass."
Colour: ff00
EndChar

StartChar: u
Encoding: 117 117 89
GlifName: u
Width: 620
VWidth: 0
Flags: HMW
AnchorPoint: "LatinOgonek.mark" 320 0 basechar 0
AnchorPoint: "LatinBelow.mark" 250 0 basechar 0
AnchorPoint: "LatinAbove.mark" 250 0 basechar 0
LayerCount: 2
Fore
SplineSet
39 191 m 2
 126 600 l 1
 263 600 l 1
 176 191 l 2
 174 179 172 168 172 158 c 0
 172 101 212 78 267 78 c 0
 331 78 389 110 406 191 c 2
 493 600 l 1
 630 600 l 1
 543 191 l 2
 518 75 402 -20 246 -20 c 0
 110 -20 34 52 34 148 c 0
 34 162 36 176 39 191 c 2
EndSplineSet
PickledDataWithLists: "(dp0
Vcom.fontlab.hintData
p1
(dp2
Vvhints
p3
(lp4
(dp5
Vposition
p6
L81L
sVwidth
p7
L10L
sa(dp8
g6
L86L
sg7
L10L
sa(dp9
g6
L174L
sg7
L10L
sa(dp10
g6
L471L
sg7
L10L
sa(dp11
g6
L649L
sg7
L10L
sasVhhints
p12
(lp13
(dp14
g6
L-21L
sg7
L10L
sa(dp15
g6
L-16L
sg7
L10L
sa(dp16
g6
L41L
sg7
L10L
sa(dp17
g6
L601L
sg7
L10L
sass."
EndChar

StartChar: v
Encoding: 118 118 90
GlifName: v
Width: 600
VWidth: 0
Flags: HMW
AnchorPoint: "LatinBelow.mark" 240 0 basechar 0
AnchorPoint: "LatinAbove.mark" 240 0 basechar 0
LayerCount: 2
Fore
SplineSet
71 583 m 1
 72 590 l 1
 224 600 l 1
 276 168 l 1
 512 600 l 1
 658 590 l 1
 657 583 l 1
 296 0 l 1
 184 0 l 1
 71 583 l 1
EndSplineSet
PickledDataWithLists: "(dp0
Vcom.fontlab.hintData
p1
(dp2
Vvhints
p3
(lp4
(dp5
Vposition
p6
L35L
sVwidth
p7
L10L
sa(dp8
g6
L584L
sg7
L10L
sasVhhints
p9
(lp10
(dp11
g6
L-18L
sg7
L10L
sa(dp12
g6
L581L
sg7
L10L
sa(dp13
g6
L591L
sg7
L10L
sass."
Colour: ff00
EndChar

StartChar: w
Encoding: 119 119 91
GlifName: w
Width: 830
VWidth: 0
Flags: HMW
AnchorPoint: "LatinBelow.mark" 355 0 basechar 0
AnchorPoint: "LatinAbove.mark" 355 0 basechar 0
LayerCount: 2
Fore
SplineSet
882 582 m 1
 584 0 l 1
 468 0 l 1
 467 0 l 1
 438 394 l 1
 242 0 l 1
 126 0 l 1
 76 582 l 1
 77 590 l 1
 225 600 l 1
 237 196 l 1
 424 585 l 1
 533 585 l 1
 556 194 l 1
 741 600 l 1
 883 590 l 1
 882 582 l 1
EndSplineSet
PickledDataWithLists: "(dp0
Vcom.fontlab.hintData
p1
(dp2
Vvhints
p3
(lp4
(dp5
Vposition
p6
L41L
sVwidth
p7
L10L
sa(dp8
g6
L790L
sg7
L10L
sasVhhints
p9
(lp10
(dp11
g6
L-11L
sg7
L10L
sa(dp12
g6
L568L
sg7
L10L
sa(dp13
g6
L590L
sg7
L10L
sass."
Colour: ff00
EndChar

StartChar: x
Encoding: 120 120 92
GlifName: x
Width: 600
VWidth: 0
Flags: HMW
AnchorPoint: "LatinBelow.mark" 240 0 basechar 0
AnchorPoint: "LatinAbove.mark" 240 0 basechar 0
LayerCount: 2
Fore
SplineSet
107 583 m 1
 108 590 l 1
 256 600 l 1
 328 410 l 1
 481 600 l 1
 623 590 l 1
 622 583 l 1
 385 323 l 1
 539 5 l 1
 538 0 l 1
 386 0 l 1
 286 214 l 1
 95 0 l 1
 -57 0 l 1
 -56 5 l 1
 234 323 l 1
 107 583 l 1
EndSplineSet
PickledDataWithLists: "(dp0
Vcom.fontlab.hintData
p1
(dp2
Vvhints
p3
(lp4
(dp5
Vposition
p6
L26L
sVwidth
p7
L10L
sa(dp8
g6
L71L
sg7
L10L
sa(dp9
g6
L524L
sg7
L10L
sa(dp10
g6
L559L
sg7
L10L
sasVhhints
p11
(lp12
(dp13
g6
L-6L
sg7
L10L
sa(dp14
g6
L5L
sg7
L10L
sa(dp15
g6
L591L
sg7
L10L
sass."
Colour: ff00
EndChar

StartChar: y
Encoding: 121 121 93
GlifName: y
Width: 600
VWidth: 0
Flags: HMW
AnchorPoint: "LatinBelow.mark" 202 -180 basechar 0
AnchorPoint: "LatinAbove.mark" 240 0 basechar 0
LayerCount: 2
Fore
SplineSet
71 583 m 1
 72 590 l 1
 224 600 l 1
 276 164 l 1
 512 600 l 1
 658 590 l 1
 657 583 l 1
 288 -20 l 1
 221 -121 158 -230 29 -230 c 0
 -26 -230 -61 -208 -83 -188 c 1
 -1 -107 l 1
 12 -121 25 -136 45 -136 c 0
 88 -136 123 -84 182 6 c 2
 182 7 l 1
 71 583 l 1
EndSplineSet
PickledDataWithLists: "(dp0
Vcom.fontlab.hintData
p1
(dp2
Vvhints
p3
(lp4
(dp5
Vposition
p6
L56L
sVwidth
p7
L10L
sa(dp8
g6
L130L
sg7
L10L
sasVhhints
p9
(lp10
(dp11
g6
L-257L
sg7
L10L
sa(dp12
g6
L-195L
sg7
L10L
sa(dp13
g6
L-164L
sg7
L10L
sa(dp14
g6
L4L
sg7
L10L
sa(dp15
g6
L584L
sg7
L10L
sa(dp16
g6
L595L
sg7
L10L
sass."
Colour: ff00
EndChar

StartChar: z
Encoding: 122 122 94
GlifName: z
Width: 530
VWidth: 0
Flags: HMW
AnchorPoint: "LatinBelow.mark" 205 0 basechar 0
AnchorPoint: "LatinAbove.mark" 205 0 basechar 0
LayerCount: 2
Fore
SplineSet
-24 68 m 1
 369 505 l 1
 92 505 l 1
 113 600 l 1
 561 600 l 1
 554 532 l 1
 161 95 l 1
 467 95 l 1
 447 0 l 1
 -30 0 l 1
 -24 68 l 1
EndSplineSet
PickledDataWithLists: "(dp0
Vcom.fontlab.hintData
p1
(dp2
Vvhints
p3
(lp4
(dp5
Vposition
p6
L46L
sVwidth
p7
L10L
sa(dp8
g6
L61L
sg7
L10L
sa(dp9
g6
L531L
sg7
L10L
sa(dp10
g6
L544L
sg7
L10L
sasVhhints
p11
(lp12
(dp13
g6
L-17L
sg7
L10L
sa(dp14
g6
L51L
sg7
L10L
sa(dp15
g6
L59L
sg7
L10L
sa(dp16
g6
L525L
sg7
L15L
sa(dp17
g6
L587L
sg7
L10L
sa(dp18
g6
L592L
sg7
L10L
sass."
Colour: ff00
EndChar

StartChar: braceleft
Encoding: 123 123 95
GlifName: braceleft
Width: 390
VWidth: 0
Flags: HMW
LayerCount: 2
Fore
SplineSet
55 368 m 1
 60 390 l 1
 65 412 l 1
 113 424 170 455 188 539 c 0
 190 548 191 562 191 577 c 0
 191 601 189 630 189 659 c 0
 189 685 190 711 195 732 c 0
 214 822 287 900 398 900 c 2
 453 900 l 1
 439 831 l 1
 401 831 l 2
 376 831 333 818 313 724 c 0
 303 675 312 578 301 527 c 0
 285 454 240 411 185 390 c 1
 223 373 248 342 248 293 c 0
 248 281 246 267 243 253 c 0
 232 202 181 105 171 56 c 0
 167 37 165 22 165 9 c 0
 165 -43 193 -51 213 -51 c 2
 251 -51 l 1
 236 -120 l 1
 181 -120 l 2
 88 -120 44 -65 44 6 c 0
 44 19 46 34 49 48 c 0
 62 108 116 204 124 241 c 0
 127 254 128 265 128 276 c 0
 128 334 90 358 55 368 c 1
EndSplineSet
PickledDataWithLists: "(dp0
Vcom.fontlab.hintData
p1
(dp2
Vvhints
p3
(lp4
(dp5
Vposition
p6
L22L
sVwidth
p7
L10L
sa(dp8
g6
L112L
sg7
L10L
sa(dp9
g6
L128L
sg7
L10L
sa(dp10
g6
L182L
sg7
L10L
sa(dp11
g6
L197L
sg7
L10L
sa(dp12
g6
L205L
sg7
L10L
sa(dp13
g6
L289L
sg7
L10L
sasVhhints
p14
(lp15
(dp16
g6
L-89L
sg7
L10L
sa(dp17
g6
L-41L
sg7
L10L
sa(dp18
g6
L830L
sg7
L10L
sa(dp19
g6
L879L
sg7
L10L
sass."
EndChar

StartChar: bar
Encoding: 124 124 96
GlifName: bar
Width: 360
VWidth: 0
Flags: HMW
LayerCount: 2
Fore
SplineSet
34 -120 m 1
 251 900 l 1
 371 900 l 1
 154 -120 l 1
 34 -120 l 1
EndSplineSet
PickledDataWithLists: "(dp0
Vcom.fontlab.hintData
p1
(dp2
Vvhints
p3
(lp4
(dp5
Vposition
p6
L131L
sVwidth
p7
L10L
sa(dp8
g6
L209L
sg7
L10L
sa(dp9
g6
L216L
sg7
L10L
sasVhhints
p10
(lp11
(dp12
g6
L-92L
sg7
L10L
sa(dp13
g6
L882L
sg7
L10L
sass."
EndChar

StartChar: braceright
Encoding: 125 125 97
GlifName: braceright
Width: 390
VWidth: 0
Flags: HMW
LayerCount: 2
Fore
SplineSet
381 412 m 1
 376 390 l 1
 371 368 l 1
 323 356 266 325 248 241 c 0
 246 232 245 218 245 203 c 0
 245 179 247 150 247 121 c 0
 247 95 246 69 241 48 c 0
 222 -42 148 -120 37 -120 c 2
 -18 -120 l 1
 -3 -51 l 1
 35 -51 l 2
 60 -51 103 -38 123 56 c 0
 133 105 124 202 135 253 c 0
 151 326 196 369 251 390 c 1
 213 407 188 438 188 487 c 0
 188 499 190 513 193 527 c 0
 204 578 255 675 265 724 c 0
 269 743 271 758 271 771 c 0
 271 823 243 831 223 831 c 2
 185 831 l 1
 199 900 l 1
 254 900 l 2
 348 900 391 844 391 773 c 0
 391 760 390 746 387 732 c 0
 374 672 320 576 312 539 c 0
 309 526 308 515 308 504 c 0
 308 446 346 422 381 412 c 1
EndSplineSet
PickledDataWithLists: "(dp0
Vcom.fontlab.hintData
p1
(dp2
Vvhints
p3
(lp4
(dp5
Vposition
p6
L61L
sVwidth
p7
L10L
sa(dp8
g6
L145L
sg7
L10L
sa(dp9
g6
L153L
sg7
L10L
sa(dp10
g6
L166L
sg7
L10L
sa(dp11
g6
L216L
sg7
L10L
sa(dp12
g6
L222L
sg7
L10L
sa(dp13
g6
L237L
sg7
L10L
sa(dp14
g6
L328L
sg7
L10L
sasVhhints
p15
(lp16
(dp17
g6
L-89L
sg7
L10L
sa(dp18
g6
L-41L
sg7
L10L
sa(dp19
g6
L831L
sg7
L10L
sa(dp20
g6
L879L
sg7
L10L
sass."
EndChar

StartChar: asciitilde
Encoding: 126 126 98
GlifName: asciitilde
Width: 600
VWidth: 0
Flags: HMW
LayerCount: 2
Fore
SplineSet
45 320 m 1
 92 405 150 497 248 497 c 0
 314 497 346 453 367 426 c 0
 391 396 406 381 422 381 c 0
 456 381 492 430 519 486 c 1
 600 460 l 1
 553 375 495 283 397 283 c 0
 331 283 299 327 278 354 c 0
 254 384 239 399 223 399 c 0
 189 399 152 350 125 294 c 1
 45 320 l 1
EndSplineSet
PickledDataWithLists: "(dp0
Vcom.fontlab.hintData
p1
(dp2
Vvhints
p3
(lp4
(dp5
Vposition
p6
L51L
sVwidth
p7
L10L
sa(dp8
g6
L539L
sg7
L10L
sasVhhints
p9
(lp10
(dp11
g6
L249L
sg7
L10L
sa(dp12
g6
L260L
sg7
L10L
sa(dp13
g6
L311L
sg7
L10L
sa(dp14
g6
L359L
sg7
L10L
sa(dp15
g6
L411L
sg7
L10L
sa(dp16
g6
L421L
sg7
L10L
sass."
EndChar

StartChar: copyright
Encoding: 169 169 100
GlifName: copyright
Width: 1020
VWidth: 0
Flags: HMW
LayerCount: 2
Fore
SplineSet
359 396 m 2
 362 411 l 2
 381 499 444 609 588 609 c 0
 692 609 723 542 723 501 c 0
 723 500 723 500 723 499 c 1
 635 491 l 1
 635 492 635 492 635 493 c 0
 635 518 617 545 575 545 c 0
 517 545 470 499 451 411 c 2
 448 396 l 2
 444 378 442 361 442 346 c 0
 442 291 469 262 515 262 c 0
 558 262 589 290 598 315 c 1
 682 307 l 1
 665 266 607 198 501 198 c 0
 387 198 353 267 353 339 c 0
 353 358 355 378 359 396 c 2
447 -15 m 0
 224 -15 96 118 96 306 c 0
 96 338 100 371 107 405 c 0
 158 644 364 825 625 825 c 0
 848 825 976 692 976 504 c 0
 976 472 972 439 965 405 c 0
 914 166 708 -15 447 -15 c 0
462 55 m 0
 675 55 843 196 887 405 c 0
 894 436 897 465 897 493 c 0
 897 653 791 755 610 755 c 0
 397 755 229 614 185 405 c 0
 178 374 175 345 175 317 c 0
 175 157 281 55 462 55 c 0
EndSplineSet
PickledDataWithLists: "(dp0
Vcom.fontlab.hintData
p1
(dp2
Vvhints
p3
(lp4
(dp5
Vposition
p6
L83L
sVwidth
p7
L10L
sa(dp8
g6
L147L
sg7
L10L
sa(dp9
g6
L315L
sg7
L10L
sa(dp10
g6
L395L
sg7
L10L
sa(dp11
g6
L565L
sg7
L10L
sa(dp12
g6
L645L
sg7
L10L
sa(dp13
g6
L661L
sg7
L10L
sa(dp14
g6
L798L
sg7
L10L
sa(dp15
g6
L863L
sg7
L10L
sa(dp16
g6
L927L
sg7
L10L
sasVhhints
p17
(lp18
(dp19
g6
L-27L
sg7
L10L
sa(dp20
g6
L17L
sg7
L10L
sa(dp21
g6
L170L
sg7
L10L
sa(dp22
g6
L224L
sg7
L10L
sa(dp23
g6
L283L
sg7
L10L
sa(dp24
g6
L472L
sg7
L10L
sa(dp25
g6
L549L
sg7
L10L
sa(dp26
g6
L603L
sg7
L10L
sa(dp27
g6
L773L
sg7
L10L
sa(dp28
g6
L817L
sg7
L10L
sass."
EndChar

StartChar: registered
Encoding: 174 174 101
GlifName: registered
Width: 870
VWidth: 0
Flags: HMW
LayerCount: 2
Fore
SplineSet
431 263 m 0
 250 263 148 370 148 520 c 0
 148 545 151 572 157 600 c 0
 198 791 362 937 574 937 c 0
 755 937 858 830 858 679 c 0
 858 654 855 628 849 600 c 0
 808 409 643 263 431 263 c 0
442 315 m 0
 612 315 750 429 786 600 c 0
 791 625 794 649 794 672 c 0
 794 802 708 885 563 885 c 0
 393 885 256 771 220 600 c 0
 215 575 212 551 212 528 c 0
 212 398 297 315 442 315 c 0
456 551 m 1
 450 551 444 551 438 551 c 1
 406 400 l 1
 322 400 l 1
 355 555 l 1
 405 790 l 1
 405 790 475 795 544 795 c 0
 633 795 688 758 688 697 c 0
 688 689 687 681 685 673 c 0
 672 613 619 570 548 556 c 1
 643 404 l 1
 642 400 l 1
 546 400 l 1
 456 551 l 1
451 612 m 1
 463 611 479 611 495 611 c 0
 546 611 590 623 601 673 c 0
 602 679 603 684 603 689 c 0
 603 726 566 735 521 735 c 0
 505 735 489 734 477 733 c 1
 451 612 l 1
EndSplineSet
PickledDataWithLists: "(dp0
Vcom.fontlab.hintData
p1
(dp2
Vvhints
p3
(lp4
(dp5
Vposition
p6
L90L
sVwidth
p7
L10L
sa(dp8
g6
L140L
sg7
L10L
sa(dp9
g6
L263L
sg7
L10L
sa(dp10
g6
L301L
sg7
L10L
sa(dp11
g6
L303L
sg7
L10L
sa(dp12
g6
L363L
sg7
L10L
sa(dp13
g6
L480L
sg7
L10L
sa(dp14
g6
L544L
sg7
L10L
sa(dp15
g6
L557L
sg7
L10L
sa(dp16
g6
L628L
sg7
L10L
sa(dp17
g6
L677L
sg7
L10L
sa(dp18
g6
L727L
sg7
L10L
sasVhhints
p19
(lp20
(dp21
g6
L319L
sg7
L10L
sa(dp22
g6
L351L
sg7
L10L
sa(dp23
g6
L469L
sg7
L10L
sa(dp24
g6
L596L
sg7
L20L
sa(dp25
g6
L644L
sg7
L10L
sa(dp26
g6
L654L
sg7
L10L
sa(dp27
g6
L725L
sg7
L11L
sa(dp28
g6
L757L
sg7
L10L
sa(dp29
g6
L799L
sg7
L10L
sa(dp30
g6
L919L
sg7
L10L
sa(dp31
g6
L951L
sg7
L10L
sass."
EndChar

StartChar: guillemotleft
Encoding: 171 171 102
GlifName: guillemotleft
Width: 780
VWidth: 0
Flags: HMW
LayerCount: 2
Fore
SplineSet
78 334 m 1
 89 386 l 1
 448 652 l 1
 481 584 l 1
 228 360 l 1
 386 136 l 1
 323 68 l 1
 78 334 l 1
373 334 m 1
 384 386 l 1
 744 652 l 1
 776 584 l 1
 523 360 l 1
 681 136 l 1
 619 68 l 1
 373 334 l 1
EndSplineSet
PickledDataWithLists: "(dp0
Vcom.fontlab.hintData
p1
(dp2
Vvhints
p3
(lp4
(dp5
Vposition
p6
L66L
sVwidth
p7
L10L
sa(dp8
g6
L336L
sg7
L10L
sa(dp9
g6
L356L
sg7
L10L
sa(dp10
g6
L368L
sg7
L10L
sa(dp11
g6
L626L
sg7
L10L
sa(dp12
g6
L638L
sg7
L10L
sasVhhints
p13
(lp14
(dp15
g6
L65L
sg7
L10L
sa(dp16
g6
L605L
sg7
L10L
sass."
EndChar

StartChar: guillemotright
Encoding: 187 187 103
GlifName: guillemotright
Width: 780
VWidth: 0
Flags: HMW
LayerCount: 2
Fore
SplineSet
735 386 m 1
 724 334 l 1
 365 68 l 1
 332 136 l 1
 586 360 l 1
 427 584 l 1
 490 652 l 1
 735 386 l 1
440 386 m 1
 429 334 l 1
 69 68 l 1
 37 136 l 1
 291 360 l 1
 132 584 l 1
 194 652 l 1
 440 386 l 1
EndSplineSet
PickledDataWithLists: "(dp0
Vcom.fontlab.hintData
p1
(dp2
Vvhints
p3
(lp4
(dp5
Vposition
p6
L72L
sVwidth
p7
L10L
sa(dp8
g6
L84L
sg7
L10L
sa(dp9
g6
L342L
sg7
L10L
sa(dp10
g6
L354L
sg7
L10L
sa(dp11
g6
L374L
sg7
L10L
sa(dp12
g6
L644L
sg7
L10L
sasVhhints
p13
(lp14
(dp15
g6
L64L
sg7
L10L
sa(dp16
g6
L605L
sg7
L10L
sass."
EndChar

StartChar: uni2010
Encoding: 8208 8208 111
GlifName: uni2010
Width: 600
VWidth: 0
Flags: HMW
LayerCount: 2
Fore
SplineSet
110 412 m 1
 546 412 l 1
 523 308 l 1
 87 308 l 1
 110 412 l 1
EndSplineSet
PickledDataWithLists: "(dp0
Vcom.fontlab.hintData
p1
(dp2
Vvhints
p3
(lp4
(dp5
Vposition
p6
L75L
sVwidth
p7
L10L
sa(dp8
g6
L514L
sg7
L10L
sasVhhints
p9
(lp10
(dp11
g6
L301L
sg7
L10L
sa(dp12
g6
L363L
sg7
L10L
sa(dp13
g6
L371L
sg7
L10L
sass."
EndChar

StartChar: uni2011
Encoding: 8209 8209 112
GlifName: uni2011
Width: 600
VWidth: 0
Flags: HMW
LayerCount: 2
Fore
SplineSet
110 412 m 1
 546 412 l 1
 523 308 l 1
 87 308 l 1
 110 412 l 1
EndSplineSet
PickledDataWithLists: "(dp0
Vcom.fontlab.hintData
p1
(dp2
Vvhints
p3
(lp4
(dp5
Vposition
p6
L75L
sVwidth
p7
L10L
sa(dp8
g6
L514L
sg7
L10L
sasVhhints
p9
(lp10
(dp11
g6
L301L
sg7
L10L
sa(dp12
g6
L363L
sg7
L10L
sa(dp13
g6
L371L
sg7
L10L
sass."
EndChar

StartChar: figuredash
Encoding: 8210 8210 113
GlifName: figuredash
Width: 660
VWidth: 0
Flags: HMW
LayerCount: 2
Fore
SplineSet
110 412 m 1
 606 412 l 1
 583 308 l 1
 87 308 l 1
 110 412 l 1
EndSplineSet
PickledDataWithLists: "(dp0
Vcom.fontlab.hintData
p1
(dp2
Vvhints
p3
(lp4
(dp5
Vposition
p6
L105L
sVwidth
p7
L10L
sa(dp8
g6
L604L
sg7
L10L
sasVhhints
p9
(lp10
(dp11
g6
L301L
sg7
L10L
sa(dp12
g6
L364L
sg7
L10L
sa(dp13
g6
L371L
sg7
L10L
sass."
EndChar

StartChar: uni2015
Encoding: 8213 8213 114
GlifName: uni2015
Width: 1200
VWidth: 0
Flags: HMW
LayerCount: 2
Fore
SplineSet
110 412 m 1
 1146 412 l 1
 1123 308 l 1
 87 308 l 1
 110 412 l 1
EndSplineSet
PickledDataWithLists: "(dp0
Vcom.fontlab.hintData
p1
(dp2
Vvhints
p3
(lp4
(dp5
Vposition
p6
L90L
sVwidth
p7
L10L
sa(dp8
g6
L1099L
sg7
L10L
sasVhhints
p9
(lp10
(dp11
g6
L299L
sg7
L10L
sa(dp12
g6
L304L
sg7
L10L
sa(dp13
g6
L309L
sg7
L10L
sa(dp14
g6
L361L
sg7
L10L
sa(dp15
g6
L366L
sg7
L10L
sa(dp16
g6
L371L
sg7
L10L
sass."
EndChar

StartChar: endash
Encoding: 8211 8211 115
GlifName: endash
Width: 660
VWidth: 0
Flags: HMW
LayerCount: 2
Fore
SplineSet
110 412 m 1
 606 412 l 1
 583 308 l 1
 87 308 l 1
 110 412 l 1
EndSplineSet
PickledDataWithLists: "(dp0
Vcom.fontlab.hintData
p1
(dp2
Vvhints
p3
(lp4
(dp5
Vposition
p6
L75L
sVwidth
p7
L10L
sa(dp8
g6
L574L
sg7
L10L
sasVhhints
p9
(lp10
(dp11
g6
L301L
sg7
L10L
sa(dp12
g6
L364L
sg7
L10L
sa(dp13
g6
L371L
sg7
L10L
sass."
EndChar

StartChar: emdash
Encoding: 8212 8212 116
GlifName: emdash
Width: 1200
VWidth: 0
Flags: HMW
LayerCount: 2
Fore
SplineSet
110 412 m 1
 1146 412 l 1
 1123 308 l 1
 87 308 l 1
 110 412 l 1
EndSplineSet
PickledDataWithLists: "(dp0
Vcom.fontlab.hintData
p1
(dp2
Vvhints
p3
(lp4
(dp5
Vposition
p6
L90L
sVwidth
p7
L10L
sa(dp8
g6
L1099L
sg7
L10L
sasVhhints
p9
(lp10
(dp11
g6
L299L
sg7
L10L
sa(dp12
g6
L304L
sg7
L10L
sa(dp13
g6
L309L
sg7
L10L
sa(dp14
g6
L361L
sg7
L10L
sa(dp15
g6
L366L
sg7
L10L
sa(dp16
g6
L371L
sg7
L10L
sass."
EndChar

StartChar: quoteleft
Encoding: 8216 8216 117
GlifName: quoteleft
Width: 330
VWidth: 0
Flags: HMW
LayerCount: 2
Fore
SplineSet
328 637 m 0
 318 588 277 552 222 552 c 0
 164 552 142 590 142 635 c 0
 142 647 143 659 146 671 c 0
 171 787 266 871 345 915 c 1
 376 859 l 1
 325 831 276 783 249 714 c 1
 253 714 258 715 262 715 c 0
 303 715 330 692 330 655 c 0
 330 649 329 643 328 637 c 0
EndSplineSet
PickledDataWithLists: "(dp0
Vcom.fontlab.hintData
p1
(dp2
Vvhints
p3
(lp4
(dp5
Vposition
p6
L69L
sVwidth
p7
L10L
sa(dp8
g6
L150L
sg7
L10L
sa(dp9
g6
L255L
sg7
L10L
sasVhhints
p10
(lp11
(dp12
g6
L533L
sg7
L10L
sa(dp13
g6
L602L
sg7
L10L
sa(dp14
g6
L832L
sg7
L10L
sass."
EndChar

StartChar: quoteright
Encoding: 8217 8217 118
GlifName: quoteright
Width: 330
VWidth: 0
Flags: HMW
LayerCount: 2
Fore
SplineSet
190 813 m 0
 200 862 241 898 296 898 c 0
 354 898 377 860 377 814 c 0
 377 803 376 791 373 779 c 0
 348 663 252 579 173 535 c 1
 143 591 l 1
 194 619 242 667 269 736 c 1
 265 736 260 735 256 735 c 0
 215 735 188 758 188 795 c 0
 188 801 189 807 190 813 c 0
EndSplineSet
PickledDataWithLists: "(dp0
Vcom.fontlab.hintData
p1
(dp2
Vvhints
p3
(lp4
(dp5
Vposition
p6
L61L
sVwidth
p7
L10L
sa(dp8
g6
L170L
sg7
L10L
sa(dp9
g6
L251L
sg7
L10L
sasVhhints
p10
(lp11
(dp12
g6
L538L
sg7
L10L
sa(dp13
g6
L768L
sg7
L10L
sa(dp14
g6
L837L
sg7
L10L
sass."
EndChar

StartChar: quotedblleft
Encoding: 8220 8220 119
GlifName: quotedblleft
Width: 570
VWidth: 0
Flags: HMW
LayerCount: 2
Fore
SplineSet
333 637 m 0
 323 588 282 552 227 552 c 0
 169 552 147 590 147 635 c 0
 147 647 148 659 151 671 c 0
 176 787 271 871 350 915 c 1
 381 859 l 1
 330 831 281 783 254 714 c 1
 258 714 263 715 267 715 c 0
 308 715 335 692 335 655 c 0
 335 649 334 643 333 637 c 0
563 637 m 0
 553 588 512 552 457 552 c 0
 399 552 377 590 377 635 c 0
 377 647 378 659 381 671 c 0
 406 787 501 871 580 915 c 1
 611 859 l 1
 560 831 511 783 484 714 c 1
 488 714 493 715 497 715 c 0
 538 715 565 692 565 655 c 0
 565 649 564 643 563 637 c 0
EndSplineSet
PickledDataWithLists: "(dp0
Vcom.fontlab.hintData
p1
(dp2
Vvhints
p3
(lp4
(dp5
Vposition
p6
L69L
sVwidth
p7
L10L
sa(dp8
g6
L150L
sg7
L10L
sa(dp9
g6
L255L
sg7
L10L
sa(dp10
g6
L309L
sg7
L10L
sa(dp11
g6
L390L
sg7
L10L
sa(dp12
g6
L495L
sg7
L10L
sasVhhints
p13
(lp14
(dp15
g6
L533L
sg7
L10L
sa(dp16
g6
L602L
sg7
L10L
sa(dp17
g6
L832L
sg7
L10L
sass."
EndChar

StartChar: quotedblright
Encoding: 8221 8221 120
GlifName: quotedblright
Width: 570
VWidth: 0
Flags: HMW
LayerCount: 2
Fore
SplineSet
195 813 m 0
 205 862 246 898 301 898 c 0
 359 898 382 860 382 814 c 0
 382 803 381 791 378 779 c 0
 353 663 257 579 178 535 c 1
 148 591 l 1
 199 619 247 667 274 736 c 1
 270 736 265 735 261 735 c 0
 220 735 193 758 193 795 c 0
 193 801 194 807 195 813 c 0
425 813 m 0
 435 862 476 898 531 898 c 0
 589 898 612 860 612 814 c 0
 612 803 611 791 608 779 c 0
 583 663 487 579 408 535 c 1
 378 591 l 1
 429 619 477 667 504 736 c 1
 500 736 495 735 491 735 c 0
 450 735 423 758 423 795 c 0
 423 801 424 807 425 813 c 0
EndSplineSet
PickledDataWithLists: "(dp0
Vcom.fontlab.hintData
p1
(dp2
Vvhints
p3
(lp4
(dp5
Vposition
p6
L61L
sVwidth
p7
L10L
sa(dp8
g6
L170L
sg7
L10L
sa(dp9
g6
L251L
sg7
L10L
sa(dp10
g6
L301L
sg7
L10L
sa(dp11
g6
L410L
sg7
L10L
sa(dp12
g6
L491L
sg7
L10L
sasVhhints
p13
(lp14
(dp15
g6
L538L
sg7
L10L
sa(dp16
g6
L768L
sg7
L10L
sa(dp17
g6
L837L
sg7
L10L
sass."
EndChar

StartChar: bullet
Encoding: 8226 8226 121
GlifName: bullet
Width: 660
VWidth: 0
Flags: HMW
LayerCount: 2
Fore
SplineSet
211 360 m 0
 228 438 296 486 373 486 c 0
 440 486 486 450 486 389 c 0
 486 380 485 370 483 360 c 0
 466 282 397 234 320 234 c 0
 253 234 208 270 208 330 c 0
 208 339 209 350 211 360 c 0
EndSplineSet
PickledDataWithLists: "(dp0
Vcom.fontlab.hintData
p1
(dp2
Vvhints
p3
(lp4
(dp5
Vposition
p6
L231L
sVwidth
p7
L10L
sa(dp8
g6
L479L
sg7
L10L
sasVhhints
p9
(lp10
(dp11
g6
L234L
sg7
L10L
sa(dp12
g6
L456L
sg7
L10L
sass."
EndChar

StartChar: ellipsis
Encoding: 8230 8230 122
GlifName: ellipsis
Width: 870
VWidth: 0
GlyphClass: 3
Flags: HMW
LayerCount: 2
Fore
SplineSet
138 157 m 128
 181 157 211 134 211 95 c 0
 211 89 210 83 209 76 c 128
 198 26 154 -5 104 -5 c 128
 61 -5 31 18 31 57 c 0
 31 63 32 69 33 76 c 128
 44 126 88 157 138 157 c 128
408 157 m 128
 451 157 481 134 481 95 c 0
 481 89 480 83 479 76 c 128
 468 26 424 -5 374 -5 c 128
 331 -5 301 18 301 57 c 0
 301 63 302 69 303 76 c 128
 314 126 358 157 408 157 c 128
678 157 m 128
 721 157 751 134 751 95 c 0
 751 89 750 83 749 76 c 128
 738 26 694 -5 644 -5 c 128
 601 -5 571 18 571 57 c 0
 571 63 572 69 573 76 c 128
 584 126 628 157 678 157 c 128
EndSplineSet
PickledDataWithLists: "(dp0
Vcom.fontlab.hintData
p1
(dp2
Vvhints
p3
(lp4
(dp5
Vposition
p6
L60L
sVwidth
p7
L10L
sa(dp8
g6
L200L
sg7
L10L
sa(dp9
g6
L285L
sg7
L10L
sa(dp10
g6
L425L
sg7
L10L
sa(dp11
g6
L510L
sg7
L10L
sa(dp12
g6
L650L
sg7
L10L
sasVhhints
p13
(lp14
(dp15
g6
L2L
sg7
L10L
sa(dp16
g6
L115L
sg7
L10L
sass."
Ligature2: "Latin.liga subtable" period uni200D period uni200D period
Ligature2: "Latin.liga subtable" period period period
EndChar

StartChar: Euro
Encoding: 8364 8364 124
GlifName: E_uro
Width: 660
VWidth: 0
Flags: HMW
LayerCount: 2
Fore
SplineSet
38 426 m 1
 54 504 l 1
 136 504 l 1
 186 652 289 800 484 800 c 0
 653 800 693 675 693 599 c 0
 693 594 693 590 693 586 c 1
 554 574 l 1
 554 577 554 581 554 584 c 0
 554 642 522 696 462 696 c 0
 389 696 320 629 274 504 c 1
 524 504 l 1
 508 426 l 1
 251 426 l 1
 250 419 247 413 246 406 c 2
 239 374 l 2
 238 367 236 361 235 354 c 1
 492 354 l 1
 476 276 l 1
 226 276 l 1
 225 266 225 256 225 246 c 0
 225 140 265 84 332 84 c 0
 396 84 454 144 476 206 c 1
 609 194 l 1
 582 121 489 -20 310 -20 c 0
 136 -20 86 98 86 229 c 0
 86 245 87 260 88 276 c 1
 6 276 l 1
 22 354 l 1
 98 354 l 1
 99 361 101 367 102 374 c 2
 109 406 l 2
 110 413 113 419 114 426 c 1
 38 426 l 1
EndSplineSet
PickledDataWithLists: "(dp0
Vcom.fontlab.hintData
p1
(dp2
Vvhints
p3
(lp4
(dp5
Vposition
p6
L21L
sVwidth
p7
L10L
sa(dp8
g6
L115L
sg7
L10L
sa(dp9
g6
L203L
sg7
L10L
sa(dp10
g6
L484L
sg7
L10L
sa(dp11
g6
L659L
sg7
L10L
sasVhhints
p12
(lp13
(dp14
g6
L-15L
sg7
L10L
sa(dp15
g6
L48L
sg7
L9L
sa(dp16
g6
L165L
sg7
L10L
sa(dp17
g6
L268L
sg7
L10L
sa(dp18
g6
L323L
sg7
L10L
sa(dp19
g6
L448L
sg7
L10L
sa(dp20
g6
L453L
sg7
L10L
sa(dp21
g6
L503L
sg7
L10L
sa(dp22
g6
L590L
sg7
L10L
sa(dp23
g6
L745L
sg7
L10L
sa(dp24
g6
L806L
sg7
L10L
sass."
EndChar

StartChar: trademark
Encoding: 8482 8482 125
GlifName: trademark
Width: 765
VWidth: 0
Flags: HMW
LayerCount: 2
Fore
SplineSet
128 838 m 1
 141 900 l 1
 436 900 l 1
 423 838 l 1
 318 838 l 1
 248 510 l 1
 163 510 l 1
 233 838 l 1
 128 838 l 1
770 510 m 1
 686 510 l 1
 736 743 l 1
 629 608 l 1
 589 608 l 1
 540 743 l 1
 490 510 l 1
 406 510 l 1
 488 892 l 1
 559 900 l 1
 628 694 l 1
 783 900 l 1
 852 892 l 1
 770 510 l 1
EndSplineSet
PickledDataWithLists: "(dp0
Vcom.fontlab.hintData
p1
(dp2
Vvhints
p3
(lp4
(dp5
Vposition
p6
L39L
sVwidth
p7
L10L
sa(dp8
g6
L180L
sg7
L10L
sa(dp9
g6
L251L
sg7
L10L
sa(dp10
g6
L383L
sg7
L10L
sa(dp11
g6
L421L
sg7
L10L
sa(dp12
g6
L440L
sg7
L10L
sa(dp13
g6
L504L
sg7
L10L
sa(dp14
g6
L735L
sg7
L10L
sa(dp15
g6
L800L
sg7
L10L
sa(dp16
g6
L819L
sg7
L10L
sasVhhints
p17
(lp18
(dp19
g6
L381L
sg7
L10L
sa(dp20
g6
L390L
sg7
L10L
sa(dp21
g6
L395L
sg7
L10L
sa(dp22
g6
L473L
sg7
L10L
sa(dp23
g6
L745L
sg7
L10L
sa(dp24
g6
L751L
sg7
L10L
sa(dp25
g6
L803L
sg7
L10L
sass."
EndChar

StartChar: uni25CC
Encoding: 9676 9676 126
GlifName: uni25C_C_
Width: 720
VWidth: 0
GlyphClass: 2
Flags: HMW
AnchorPoint: "LatinCedilla.mark" 320 0 basechar 0
AnchorPoint: "LatinBelow.mark" 300 0 basechar 0
AnchorPoint: "LatinAbove.mark" 300 0 basechar 0
LayerCount: 2
Fore
SplineSet
333 15 m 0
 329 -2 314 -15 297 -15 c 0
 282 -15 272 -6 272 8 c 0
 272 10 272 13 273 15 c 0
 277 32 293 45 310 45 c 0
 324 45 334 35 334 22 c 0
 334 20 334 18 333 15 c 0
454 585 m 0
 450 568 435 555 418 555 c 0
 403 555 393 564 393 578 c 0
 393 580 393 583 394 585 c 0
 398 602 414 615 431 615 c 0
 445 615 455 605 455 592 c 0
 455 590 455 588 454 585 c 0
655 330 m 0
 670 330 680 321 680 307 c 0
 680 305 680 302 679 300 c 0
 675 283 659 270 642 270 c 0
 628 270 618 280 618 293 c 0
 618 295 618 297 619 300 c 0
 623 317 638 330 655 330 c 0
85 330 m 0
 100 330 110 321 110 307 c 0
 110 305 110 302 109 300 c 0
 105 283 89 270 72 270 c 0
 58 270 48 280 48 293 c 0
 48 295 48 297 49 300 c 0
 53 317 68 330 85 330 c 0
130 439 m 0
 145 439 155 430 155 416 c 0
 155 414 155 411 154 409 c 0
 150 392 135 379 118 379 c 0
 103 379 93 388 93 402 c 0
 93 404 93 407 94 409 c 0
 98 426 113 439 130 439 c 0
84 221 m 0
 99 221 109 212 109 198 c 0
 109 196 109 193 108 191 c 0
 104 174 88 161 71 161 c 0
 57 161 47 171 47 184 c 0
 47 186 47 188 48 191 c 0
 52 208 67 221 84 221 c 0
656 439 m 0
 671 439 681 430 681 416 c 0
 681 414 681 411 680 409 c 0
 676 392 661 379 644 379 c 0
 629 379 619 388 619 402 c 0
 619 404 619 407 620 409 c 0
 624 426 639 439 656 439 c 0
610 221 m 0
 625 221 635 212 635 198 c 0
 635 196 635 193 634 191 c 0
 630 174 614 161 597 161 c 0
 583 161 573 171 573 184 c 0
 573 186 573 188 574 191 c 0
 578 208 593 221 610 221 c 0
211 531 m 0
 225 531 235 521 235 508 c 0
 235 506 235 504 234 501 c 0
 230 484 215 471 198 471 c 0
 183 471 173 480 173 494 c 0
 173 496 173 499 174 501 c 0
 178 518 194 531 211 531 c 0
614 531 m 0
 628 531 638 521 638 508 c 0
 638 506 638 504 637 501 c 0
 633 484 618 471 601 471 c 0
 586 471 576 480 576 494 c 0
 576 496 576 499 577 501 c 0
 581 518 597 531 614 531 c 0
125 128 m 0
 140 128 150 119 150 105 c 0
 150 103 150 100 149 98 c 0
 145 81 129 68 112 68 c 0
 98 68 88 78 88 91 c 0
 88 93 88 95 89 98 c 0
 93 115 108 128 125 128 c 0
528 128 m 0
 543 128 553 119 553 105 c 0
 553 103 553 100 552 98 c 0
 548 81 532 68 515 68 c 0
 501 68 491 78 491 91 c 0
 491 93 491 95 492 98 c 0
 496 115 511 128 528 128 c 0
423 67 m 0
 438 67 448 58 448 44 c 0
 448 42 448 39 447 37 c 0
 443 20 427 7 410 7 c 0
 396 7 386 17 386 30 c 0
 386 32 386 34 387 37 c 0
 391 54 406 67 423 67 c 0
205 67 m 0
 220 67 230 58 230 44 c 0
 230 42 230 39 229 37 c 0
 225 20 209 7 192 7 c 0
 178 7 168 17 168 30 c 0
 168 32 168 34 169 37 c 0
 173 54 188 67 205 67 c 0
535 593 m 0
 550 593 560 584 560 570 c 0
 560 568 560 565 559 563 c 0
 555 546 539 533 522 533 c 0
 508 533 498 543 498 556 c 0
 498 558 498 560 499 563 c 0
 503 580 518 593 535 593 c 0
317 593 m 0
 332 593 342 584 342 570 c 0
 342 568 342 565 341 563 c 0
 337 546 321 533 304 533 c 0
 290 533 280 543 280 556 c 0
 280 558 280 560 281 563 c 0
 285 580 300 593 317 593 c 0
EndSplineSet
PickledDataWithLists: "(dp0
Vcom.fontlab.hintData
p1
(dp2
Vvhints
p3
(lp4
(dp5
Vposition
p6
L40L
sVwidth
p7
L10L
sa(dp8
g6
L76L
sg7
L10L
sa(dp9
g6
L90L
sg7
L10L
sa(dp10
g6
L132L
sg7
L10L
sa(dp11
g6
L180L
sg7
L10L
sa(dp12
g6
L238L
sg7
L10L
sa(dp13
g6
L325L
sg7
L10L
sa(dp14
g6
L385L
sg7
L10L
sa(dp15
g6
L472L
sg7
L10L
sa(dp16
g6
L528L
sg7
L10L
sa(dp17
g6
L581L
sg7
L10L
sa(dp18
g6
L620L
sg7
L10L
sa(dp19
g6
L631L
sg7
L10L
sa(dp20
g6
L670L
sg7
L10L
sasVhhints
p21
(lp22
(dp23
g6
L-20L
sg7
L10L
sa(dp24
g6
L16L
sg7
L10L
sa(dp25
g6
L30L
sg7
L10L
sa(dp26
g6
L69L
sg7
L10L
sa(dp27
g6
L122L
sg7
L10L
sa(dp28
g6
L178L
sg7
L10L
sa(dp29
g6
L265L
sg7
L10L
sa(dp30
g6
L325L
sg7
L10L
sa(dp31
g6
L410L
sg7
L10L
sa(dp32
g6
L468L
sg7
L10L
sa(dp33
g6
L518L
sg7
L10L
sa(dp34
g6
L560L
sg7
L10L
sa(dp35
g6
L574L
sg7
L10L
sa(dp36
g6
L610L
sg7
L10L
sass."
Colour: ff00
EndChar

StartChar: uni0E01
Encoding: 3585 3585 127
GlifName: uni0E_01
Width: 655
VWidth: 0
GlyphClass: 2
Flags: HMW
LayerCount: 2
Fore
SplineSet
33 0 m 1
 95 292 l 2
 105 340 137 374 183 389 c 1
 71 412 l 1
 108 516 219 620 387 620 c 0
 532 620 617 546 617 440 c 0
 617 425 615 411 612 395 c 2
 528 0 l 1
 400 0 l 1
 484 395 l 2
 487 408 488 419 488 430 c 0
 488 496 440 525 367 525 c 0
 299 525 247 494 215 440 c 1
 344 411 l 1
 319 358 l 2
 318 358 301 362 287 362 c 0
 249 362 233 337 226 305 c 2
 161 0 l 1
 33 0 l 1
EndSplineSet
PickledDataWithLists: "(dp0
Vcom.fontlab.hintData
p1
(dp2
Vvhints
p3
(lp4
(dp5
Vposition
p6
L91L
sVwidth
p7
L10L
sa(dp8
g6
L105L
sg7
L10L
sa(dp9
g6
L179L
sg7
L10L
sa(dp10
g6
L193L
sg7
L10L
sa(dp11
g6
L467L
sg7
L10L
sa(dp12
g6
L476L
sg7
L10L
sa(dp13
g6
L559L
sg7
L10L
sa(dp14
g6
L564L
sg7
L10L
sasVhhints
p15
(lp16
(dp17
g6
L-16L
sg7
L10L
sa(dp18
g6
L4L
sg7
L10L
sa(dp19
g6
L544L
sg7
L10L
sa(dp20
g6
L606L
sg7
L10L
sass."
EndChar

StartChar: uni0E02
Encoding: 3586 3586 128
GlifName: uni0E_02
Width: 635
VWidth: 0
GlyphClass: 2
Flags: HMW
LayerCount: 2
Fore
SplineSet
168 512 m 0
 144 512 126 495 121 472 c 0
 120 468 120 465 120 462 c 0
 120 444 131 432 151 432 c 0
 175 432 192 449 197 472 c 0
 198 476 198 480 198 483 c 0
 198 500 188 512 168 512 c 0
48 472 m 0
 64 547 144 614 265 614 c 0
 369 614 425 566 425 494 c 0
 425 483 423 472 421 460 c 0
 391 321 236 279 211 163 c 0
 209 155 208 148 208 141 c 0
 208 97 244 75 291 75 c 0
 344 75 395 102 412 180 c 2
 502 600 l 1
 631 600 l 1
 541 180 l 2
 518 70 414 -20 271 -20 c 0
 146 -20 77 39 77 120 c 0
 77 131 79 142 81 153 c 0
 117 321 302 349 327 468 c 0
 328 475 329 481 329 487 c 0
 329 524 303 546 252 549 c 1
 265 536 273 518 273 496 c 0
 273 489 272 480 270 472 c 0
 257 410 201 370 138 370 c 0
 83 370 46 400 46 449 c 0
 46 456 46 464 48 472 c 0
EndSplineSet
PickledDataWithLists: "(dp0
Vcom.fontlab.hintData
p1
(dp2
Vvhints
p3
(lp4
(dp5
Vposition
p6
L14L
sVwidth
p7
L10L
sa(dp8
g6
L547L
sg7
L10L
sasVhhints
p9
(lp10
(dp11
g6
L-19L
sg7
L10L
sa(dp12
g6
L432L
sg7
L10L
sa(dp13
g6
L584L
sg7
L10L
sa(dp14
g6
L594L
sg7
L10L
sass."
EndChar

StartChar: uni0E03
Encoding: 3587 3587 129
GlifName: uni0E_03
Width: 635
VWidth: 0
GlyphClass: 2
Flags: HMW
LayerCount: 2
Fore
SplineSet
175 548 m 0
 151 548 134 531 129 508 c 0
 128 504 128 500 128 497 c 0
 128 480 138 468 158 468 c 0
 182 468 200 485 205 508 c 0
 206 512 206 515 206 518 c 0
 206 536 195 548 175 548 c 0
189 610 m 0
 244 610 280 580 280 531 c 0
 280 524 280 516 278 508 c 0
 276 500 274 491 271 484 c 1
 306 514 336 557 357 599 c 1
 403 605 l 1
 416 589 429 560 429 519 c 0
 429 505 428 490 424 473 c 0
 394 334 236 279 211 163 c 0
 209 155 208 148 208 141 c 0
 208 97 244 75 291 75 c 0
 344 75 396 103 413 181 c 2
 503 600 l 1
 631 600 l 1
 541 181 l 2
 518 71 414 -20 271 -20 c 0
 146 -20 77 39 77 120 c 0
 77 131 79 142 81 153 c 0
 115 315 293 350 333 475 c 1
 292 429 239 395 160 395 c 0
 91 395 53 429 53 482 c 0
 53 490 54 499 56 508 c 0
 69 570 126 610 189 610 c 0
EndSplineSet
PickledDataWithLists: "(dp0
Vcom.fontlab.hintData
p1
(dp2
Vvhints
p3
(lp4
(dp5
Vposition
p6
L11L
sVwidth
p7
L10L
sa(dp8
g6
L224L
sg7
L10L
sa(dp9
g6
L230L
sg7
L10L
sa(dp10
g6
L297L
sg7
L10L
sasVhhints
p11
(lp12
(dp13
g6
L-24L
sg7
L10L
sa(dp14
g6
L400L
sg7
L10L
sa(dp15
g6
L584L
sg7
L10L
sa(dp16
g6
L603L
sg7
L10L
sass."
EndChar

StartChar: uni0E04
Encoding: 3588 3588 130
GlifName: uni0E_04
Width: 665
VWidth: 0
GlyphClass: 2
Flags: HMW
LayerCount: 2
Fore
SplineSet
346 357 m 0
 322 357 304 340 299 317 c 0
 298 313 298 310 298 307 c 0
 298 289 309 277 329 277 c 0
 353 277 370 294 375 317 c 0
 376 321 376 325 376 328 c 0
 376 345 366 357 346 357 c 0
359 419 m 0
 414 419 450 389 450 340 c 0
 450 333 449 325 447 317 c 0
 434 255 379 215 316 215 c 0
 281 215 254 227 238 248 c 1
 215 214 194 167 176 95 c 2
 154 0 l 1
 16 0 l 1
 16 0 41 71 51 117 c 0
 72 215 54 243 86 395 c 0
 113 523 239 620 402 620 c 0
 545 620 626 545 626 441 c 0
 626 426 624 411 621 395 c 2
 537 0 l 1
 409 0 l 1
 429 95 l 2
 443 162 464 235 498 395 c 0
 501 408 502 421 502 432 c 0
 502 497 455 525 382 525 c 0
 297 525 229 487 209 395 c 0
 198 343 191 304 185 272 c 1
 207 319 236 361 275 390 c 0
 299 408 328 419 359 419 c 0
EndSplineSet
PickledDataWithLists: "(dp0
Vcom.fontlab.hintData
p1
(dp2
Vvhints
p3
(lp4
(dp5
Vposition
p6
L59L
sVwidth
p7
L10L
sa(dp8
g6
L142L
sg7
L10L
sa(dp9
g6
L381L
sg7
L10L
sa(dp10
g6
L439L
sg7
L10L
sa(dp11
g6
L508L
sg7
L10L
sa(dp12
g6
L590L
sg7
L10L
sasVhhints
p13
(lp14
(dp15
g6
L-19L
sg7
L10L
sa(dp16
g6
L-4L
sg7
L10L
sa(dp17
g6
L363L
sg7
L10L
sa(dp18
g6
L551L
sg7
L10L
sa(dp19
g6
L608L
sg7
L10L
sass."
EndChar

StartChar: uni0E05
Encoding: 3589 3589 131
GlifName: uni0E_05
Width: 665
VWidth: 0
GlyphClass: 2
Flags: HMW
LayerCount: 2
Fore
SplineSet
346 357 m 0
 322 357 304 340 299 317 c 0
 298 313 298 310 298 307 c 0
 298 289 309 277 329 277 c 0
 353 277 370 294 375 317 c 0
 376 321 376 325 376 328 c 0
 376 345 366 357 346 357 c 0
359 419 m 0
 414 419 450 389 450 340 c 0
 450 333 449 325 447 317 c 0
 434 255 379 215 316 215 c 0
 281 215 254 227 238 248 c 1
 215 214 194 167 176 95 c 2
 154 0 l 1
 16 0 l 1
 16 0 41 71 51 117 c 0
 72 215 54 243 86 395 c 0
 103 473 157 614 311 614 c 1
 384 537 l 1
 491 614 l 1
 603 614 630 540 630 470 c 0
 630 443 626 417 621 395 c 2
 537 0 l 1
 409 0 l 1
 429 95 l 2
 443 162 464 235 498 395 c 0
 504 424 507 447 507 466 c 0
 507 502 496 520 477 524 c 1
 382 459 l 1
 368 459 l 1
 354 459 l 1
 284 524 l 1
 252 518 222 481 204 395 c 0
 192 338 185 295 181 262 c 1
 204 313 233 359 275 390 c 0
 299 408 328 419 359 419 c 0
EndSplineSet
PickledDataWithLists: "(dp0
Vcom.fontlab.hintData
p1
(dp2
Vvhints
p3
(lp4
(dp5
Vposition
p6
L60L
sVwidth
p7
L10L
sa(dp8
g6
L142L
sg7
L10L
sa(dp9
g6
L444L
sg7
L10L
sa(dp10
g6
L508L
sg7
L10L
sa(dp11
g6
L590L
sg7
L10L
sasVhhints
p12
(lp13
(dp14
g6
L-18L
sg7
L10L
sa(dp15
g6
L-4L
sg7
L10L
sa(dp16
g6
L363L
sg7
L10L
sa(dp17
g6
L469L
sg7
L10L
sa(dp18
g6
L549L
sg7
L10L
sa(dp19
g6
L606L
sg7
L10L
sass."
EndChar

StartChar: uni0E06
Encoding: 3590 3590 132
GlifName: uni0E_06
Width: 650
VWidth: 0
GlyphClass: 2
Flags: HMW
LayerCount: 2
Fore
SplineSet
132 132 m 0
 108 132 91 115 86 92 c 0
 85 88 85 84 85 81 c 0
 85 64 95 52 115 52 c 0
 139 52 157 69 162 92 c 0
 163 96 163 99 163 102 c 0
 163 120 152 132 132 132 c 0
185 548 m 0
 161 548 144 531 139 508 c 0
 138 504 138 500 138 497 c 0
 138 480 148 468 168 468 c 0
 192 468 210 485 215 508 c 0
 216 512 216 515 216 518 c 0
 216 536 205 548 185 548 c 0
199 610 m 0
 254 610 290 580 290 531 c 0
 290 524 290 516 288 508 c 0
 286 500 284 491 281 484 c 1
 316 514 346 557 367 599 c 1
 413 605 l 1
 426 589 439 560 439 519 c 0
 439 505 438 490 434 473 c 0
 407 347 275 290 232 195 c 1
 319 184 373 148 411 110 c 1
 416 143 423 178 430 210 c 2
 513 600 l 1
 641 600 l 1
 513 0 l 1
 395 0 l 1
 367 52 319 101 237 118 c 1
 237 110 237 101 235 92 c 0
 222 30 165 -10 102 -10 c 0
 47 -10 11 20 11 69 c 0
 11 76 11 84 13 92 c 0
 23 139 58 173 101 187 c 1
 151 321 307 360 343 475 c 1
 302 429 249 395 170 395 c 0
 101 395 63 429 63 482 c 0
 63 490 64 499 66 508 c 0
 79 570 136 610 199 610 c 0
EndSplineSet
PickledDataWithLists: "(dp0
Vcom.fontlab.hintData
p1
(dp2
Vvhints
p3
(lp4
(dp5
Vposition
p6
L11L
sVwidth
p7
L10L
sa(dp8
g6
L35L
sg7
L10L
sa(dp9
g6
L110L
sg7
L10L
sa(dp10
g6
L239L
sg7
L10L
sa(dp11
g6
L251L
sg7
L10L
sa(dp12
g6
L317L
sg7
L10L
sa(dp13
g6
L325L
sg7
L10L
sa(dp14
g6
L486L
sg7
L10L
sa(dp15
g6
L494L
sg7
L10L
sa(dp16
g6
L566L
sg7
L10L
sa(dp17
g6
L576L
sg7
L10L
sasVhhints
p18
(lp19
(dp20
g6
L-27L
sg7
L10L
sa(dp21
g6
L223L
sg7
L10L
sa(dp22
g6
L277L
sg7
L10L
sa(dp23
g6
L403L
sg7
L10L
sa(dp24
g6
L598L
sg7
L10L
sa(dp25
g6
L608L
sg7
L10L
sass."
EndChar

StartChar: uni0E07
Encoding: 3591 3591 133
GlifName: uni0E_07
Width: 525
VWidth: 0
GlyphClass: 2
Flags: HMW
AnchorPoint: "ThaiAbove.mark" 485 0 basechar 0
LayerCount: 2
Fore
SplineSet
361 548 m 0
 337 548 320 531 315 508 c 0
 314 504 314 500 314 497 c 0
 314 480 324 468 344 468 c 0
 368 468 386 485 391 508 c 0
 392 512 392 515 392 518 c 0
 392 536 381 548 361 548 c 0
11 323 m 1
 104 395 l 1
 302 107 l 1
 300 117 299 129 299 142 c 0
 299 157 300 173 304 190 c 2
 326 292 l 2
 339 351 357 374 373 412 c 1
 360 408 345 406 331 406 c 0
 276 406 240 436 240 485 c 0
 240 492 240 500 242 508 c 0
 255 570 312 610 375 610 c 0
 459 610 500 569 500 504 c 0
 500 491 498 478 495 463 c 0
 483 408 464 353 448 280 c 2
 388 0 l 1
 251 0 l 1
 11 323 l 1
EndSplineSet
PickledDataWithLists: "(dp0
Vcom.fontlab.hintData
p1
(dp2
Vvhints
p3
(lp4
(dp5
Vposition
p6
L41L
sVwidth
p7
L10L
sa(dp8
g6
L151L
sg7
L10L
sa(dp9
g6
L381L
sg7
L10L
sa(dp10
g6
L469L
sg7
L10L
sasVhhints
p11
(lp12
(dp13
g6
L-26L
sg7
L10L
sa(dp14
g6
L355L
sg7
L10L
sa(dp15
g6
L504L
sg7
L10L
sa(dp16
g6
L549L
sg7
L10L
sa(dp17
g6
L611L
sg7
L10L
sass."
EndChar

StartChar: uni0E08
Encoding: 3592 3592 134
GlifName: uni0E_08
Width: 590
VWidth: 0
GlyphClass: 2
Flags: HMW
AnchorPoint: "ThaiBelow.mark" 500 0 basechar 0
LayerCount: 2
Fore
SplineSet
53 427 m 1
 86 523 191 620 347 620 c 0
 481 620 559 552 559 455 c 0
 559 442 558 427 555 413 c 0
 524 266 448 195 426 90 c 2
 407 0 l 1
 270 0 l 1
 275 30 278 60 278 89 c 0
 278 129 273 166 263 194 c 1
 238 170 203 156 166 156 c 0
 111 156 75 186 75 235 c 0
 75 242 75 250 77 258 c 0
 90 320 147 360 210 360 c 0
 311 360 341 264 345 169 c 1
 369 257 403 301 427 413 c 0
 429 425 431 436 431 446 c 0
 431 503 390 525 327 525 c 0
 257 525 204 488 179 418 c 1
 53 427 l 1
179 218 m 0
 203 218 221 235 226 258 c 0
 227 262 227 265 227 268 c 0
 227 286 216 298 196 298 c 0
 172 298 155 281 150 258 c 0
 149 254 149 250 149 247 c 0
 149 230 159 218 179 218 c 0
EndSplineSet
PickledDataWithLists: "(dp0
Vcom.fontlab.hintData
p1
(dp2
Vvhints
p3
(lp4
(dp5
Vposition
p6
L31L
sVwidth
p7
L10L
sa(dp8
g6
L101L
sg7
L10L
sa(dp9
g6
L444L
sg7
L10L
sa(dp10
g6
L529L
sg7
L10L
sasVhhints
p11
(lp12
(dp13
g6
L-11L
sg7
L10L
sa(dp14
g6
L229L
sg7
L10L
sa(dp15
g6
L307L
sg7
L10L
sa(dp16
g6
L429L
sg7
L10L
sa(dp17
g6
L552L
sg7
L9L
sa(dp18
g6
L614L
sg7
L10L
sass."
EndChar

StartChar: uni0E09
Encoding: 3593 3593 135
GlifName: uni0E_09
Width: 645
VWidth: 0
GlyphClass: 2
Flags: HMW
LayerCount: 2
Fore
SplineSet
67 0 m 1
 91 111 l 2
 95 130 103 145 114 157 c 1
 69 163 40 191 40 234 c 0
 40 241 41 250 43 258 c 0
 56 320 113 360 176 360 c 0
 231 360 267 330 267 281 c 0
 267 274 267 266 265 258 c 0
 254 208 229 187 219 138 c 2
 213 106 l 1
 264 148 330 188 420 197 c 1
 422 202 424 207 425 212 c 2
 466 405 l 2
 469 417 470 429 470 439 c 0
 470 500 426 525 357 525 c 0
 281 525 224 484 198 410 c 1
 72 420 l 1
 107 520 215 620 377 620 c 0
 516 620 599 549 599 448 c 0
 599 434 597 420 594 405 c 2
 559 238 l 2
 554 216 540 200 523 187 c 1
 554 175 573 150 573 115 c 0
 573 108 572 100 570 92 c 0
 557 30 500 -10 437 -10 c 0
 382 -10 346 20 346 69 c 0
 346 76 346 84 348 92 c 0
 350 100 352 107 354 114 c 1
 285 93 231 47 185 0 c 1
 67 0 l 1
467 132 m 0
 443 132 426 115 421 92 c 0
 420 88 420 84 420 81 c 0
 420 64 430 52 450 52 c 0
 474 52 492 69 497 92 c 0
 498 96 498 99 498 102 c 0
 498 120 487 132 467 132 c 0
162 298 m 0
 138 298 121 281 116 258 c 0
 115 254 115 250 115 247 c 0
 115 230 125 218 145 218 c 0
 169 218 187 235 192 258 c 0
 193 262 193 265 193 268 c 0
 193 286 182 298 162 298 c 0
EndSplineSet
PickledDataWithLists: "(dp0
Vcom.fontlab.hintData
p1
(dp2
Vvhints
p3
(lp4
(dp5
Vposition
p6
L33L
sVwidth
p7
L10L
sa(dp8
g6
L87L
sg7
L10L
sa(dp9
g6
L156L
sg7
L10L
sa(dp10
g6
L410L
sg7
L10L
sa(dp11
g6
L426L
sg7
L10L
sa(dp12
g6
L480L
sg7
L10L
sa(dp13
g6
L498L
sg7
L10L
sa(dp14
g6
L570L
sg7
L10L
sa(dp15
g6
L640L
sg7
L10L
sasVhhints
p16
(lp17
(dp18
g6
L-19L
sg7
L10L
sa(dp19
g6
L29L
sg7
L10L
sa(dp20
g6
L231L
sg7
L10L
sa(dp21
g6
L279L
sg7
L10L
sa(dp22
g6
L318L
sg7
L10L
sa(dp23
g6
L431L
sg7
L10L
sa(dp24
g6
L557L
sg7
L10L
sa(dp25
g6
L616L
sg7
L10L
sass."
EndChar

StartChar: uni0E0A
Encoding: 3594 3594 136
GlifName: uni0E_0A_
Width: 640
VWidth: 0
GlyphClass: 2
Flags: HMW
LayerCount: 2
Fore
SplineSet
168 512 m 0
 144 512 126 495 121 472 c 0
 120 468 120 465 120 462 c 0
 120 444 131 432 151 432 c 0
 175 432 192 449 197 472 c 0
 198 476 198 480 198 483 c 0
 198 500 188 512 168 512 c 0
424 489 m 1
 500 502 539 549 557 626 c 1
 684 616 l 1
 667 541 603 481 516 455 c 1
 556 440 582 416 582 379 c 0
 582 373 581 367 580 360 c 2
 541 180 l 2
 518 70 414 -20 271 -20 c 0
 146 -20 77 39 77 120 c 0
 77 131 79 142 81 153 c 0
 117 321 302 349 327 468 c 0
 328 475 329 481 329 487 c 0
 329 524 303 546 252 549 c 1
 265 536 273 518 273 496 c 0
 273 489 272 480 270 472 c 0
 257 410 201 370 138 370 c 0
 83 370 46 400 46 449 c 0
 46 456 46 464 48 472 c 0
 64 547 144 614 265 614 c 0
 369 614 424 565 424 493 c 0
 424 492 424 490 424 489 c 1
408 421 m 1
 361 312 233 267 211 163 c 0
 209 155 208 148 208 141 c 0
 208 97 244 75 291 75 c 0
 344 75 396 102 413 180 c 2
 452 360 l 2
 453 367 454 372 454 378 c 0
 454 401 441 415 408 421 c 1
EndSplineSet
PickledDataWithLists: "(dp0
Vcom.fontlab.hintData
p1
(dp2
Vvhints
p3
(lp4
(dp5
Vposition
p6
L44L
sVwidth
p7
L10L
sa(dp8
g6
L186L
sg7
L10L
sa(dp9
g6
L197L
sg7
L10L
sa(dp10
g6
L268L
sg7
L10L
sa(dp11
g6
L279L
sg7
L10L
sa(dp12
g6
L473L
sg7
L10L
sa(dp13
g6
L555L
sg7
L10L
sa(dp14
g6
L586L
sg7
L10L
sasVhhints
p15
(lp16
(dp17
g6
L-29L
sg7
L10L
sa(dp18
g6
L29L
sg7
L10L
sa(dp19
g6
L437L
sg7
L10L
sa(dp20
g6
L599L
sg7
L10L
sa(dp21
g6
L644L
sg7
L10L
sass."
EndChar

StartChar: uni0E0B
Encoding: 3595 3595 137
GlifName: uni0E_0B_
Width: 640
VWidth: 0
GlyphClass: 2
Flags: HMW
LayerCount: 2
Fore
SplineSet
175 548 m 0
 151 548 134 531 129 508 c 0
 128 504 128 500 128 497 c 0
 128 480 138 468 158 468 c 0
 182 468 200 485 205 508 c 0
 206 512 206 515 206 518 c 0
 206 536 195 548 175 548 c 0
189 610 m 0
 244 610 280 580 280 531 c 0
 280 524 280 516 278 508 c 0
 276 500 274 491 271 484 c 1
 306 514 336 557 357 599 c 1
 403 605 l 1
 416 590 428 560 428 520 c 0
 428 510 428 501 426 490 c 1
 501 503 539 550 557 626 c 1
 684 616 l 1
 667 541 603 481 516 455 c 1
 556 440 582 416 582 379 c 0
 582 373 581 367 580 360 c 2
 541 181 l 2
 518 71 414 -20 271 -20 c 0
 146 -20 77 39 77 120 c 0
 77 131 79 142 81 153 c 0
 115 315 293 350 333 475 c 1
 292 429 239 395 160 395 c 0
 91 395 53 429 53 482 c 0
 53 490 54 499 56 508 c 0
 69 570 126 610 189 610 c 0
452 360 m 2
 454 367 454 373 454 379 c 0
 454 403 441 417 406 422 c 1
 355 319 232 264 211 163 c 0
 209 155 208 148 208 141 c 0
 208 97 244 75 291 75 c 0
 344 75 396 103 413 181 c 2
 452 360 l 2
EndSplineSet
PickledDataWithLists: "(dp0
Vcom.fontlab.hintData
p1
(dp2
Vvhints
p3
(lp4
(dp5
Vposition
p6
L11L
sVwidth
p7
L10L
sa(dp8
g6
L199L
sg7
L10L
sa(dp9
g6
L226L
sg7
L10L
sa(dp10
g6
L278L
sg7
L10L
sa(dp11
g6
L296L
sg7
L10L
sa(dp12
g6
L474L
sg7
L10L
sa(dp13
g6
L556L
sg7
L10L
sa(dp14
g6
L586L
sg7
L10L
sasVhhints
p15
(lp16
(dp17
g6
L-24L
sg7
L10L
sa(dp18
g6
L34L
sg7
L10L
sa(dp19
g6
L398L
sg7
L10L
sa(dp20
g6
L603L
sg7
L10L
sa(dp21
g6
L608L
sg7
L10L
sa(dp22
g6
L644L
sg7
L10L
sass."
EndChar

StartChar: uni0E0C
Encoding: 3596 3596 138
GlifName: uni0E_0C_
Width: 950
VWidth: 0
GlyphClass: 2
Flags: HMW
LayerCount: 2
Fore
SplineSet
459 132 m 0
 435 132 418 115 413 92 c 0
 412 88 412 84 412 81 c 0
 412 64 422 52 442 52 c 0
 466 52 484 69 489 92 c 0
 490 96 490 99 490 102 c 0
 490 120 479 132 459 132 c 0
161 132 m 0
 137 132 120 115 115 92 c 0
 114 88 114 84 114 81 c 0
 114 64 124 52 144 52 c 0
 168 52 186 69 191 92 c 0
 192 96 192 99 192 102 c 0
 192 120 181 132 161 132 c 0
455 193 m 1
 452 201 449 212 449 223 c 0
 449 228 450 234 451 240 c 2
 484 395 l 2
 487 408 488 419 488 430 c 0
 488 496 440 525 367 525 c 0
 299 525 248 495 215 440 c 1
 344 411 l 1
 319 358 l 2
 318 358 301 362 287 362 c 0
 249 362 233 337 226 305 c 2
 212 240 l 2
 208 221 200 206 190 193 c 1
 236 188 267 159 267 115 c 0
 267 108 266 100 264 92 c 0
 251 30 194 -10 131 -10 c 0
 76 -10 40 20 40 69 c 0
 40 76 40 84 42 92 c 0
 52 139 68 164 78 210 c 2
 95 292 l 2
 105 340 137 374 183 389 c 1
 71 412 l 1
 108 516 219 620 387 620 c 0
 532 620 617 546 617 440 c 0
 617 425 615 411 612 395 c 2
 573 212 l 2
 572 205 570 198 570 192 c 1
 640 180 683 147 712 110 c 1
 717 143 724 178 731 210 c 2
 814 600 l 1
 942 600 l 1
 814 0 l 1
 696 0 l 1
 670 51 637 99 566 116 c 1
 566 109 564 101 562 92 c 0
 549 30 492 -10 429 -10 c 0
 374 -10 338 20 338 69 c 0
 338 76 338 84 340 92 c 0
 352 148 400 186 455 193 c 1
EndSplineSet
PickledDataWithLists: "(dp0
Vcom.fontlab.hintData
p1
(dp2
Vvhints
p3
(lp4
(dp5
Vposition
p6
L84L
sVwidth
p7
L10L
sa(dp8
g6
L93L
sg7
L10L
sa(dp9
g6
L114L
sg7
L10L
sa(dp10
g6
L166L
sg7
L10L
sa(dp11
g6
L196L
sg7
L10L
sa(dp12
g6
L343L
sg7
L10L
sa(dp13
g6
L414L
sg7
L10L
sa(dp14
g6
L502L
sg7
L10L
sa(dp15
g6
L507L
sg7
L10L
sa(dp16
g6
L576L
sg7
L10L
sa(dp17
g6
L780L
sg7
L10L
sa(dp18
g6
L789L
sg7
L10L
sa(dp19
g6
L861L
sg7
L10L
sa(dp20
g6
L871L
sg7
L10L
sasVhhints
p21
(lp22
(dp23
g6
L-26L
sg7
L10L
sa(dp24
g6
L-17L
sg7
L10L
sa(dp25
g6
L41L
sg7
L10L
sa(dp26
g6
L234L
sg7
L10L
sa(dp27
g6
L286L
sg7
L10L
sa(dp28
g6
L546L
sg7
L10L
sa(dp29
g6
L593L
sg7
L10L
sa(dp30
g6
L604L
sg7
L10L
sass."
EndChar

StartChar: uni0E0D
Encoding: 3597 3597 139
GlifName: uni0E_0D_
Width: 950
VWidth: 0
GlyphClass: 2
Flags: HMW
LayerCount: 2
Fore
SplineSet
161 132 m 0
 137 132 120 115 115 92 c 0
 114 88 114 84 114 81 c 0
 114 64 124 52 144 52 c 0
 168 52 186 69 191 92 c 0
 192 96 192 99 192 102 c 0
 192 120 181 132 161 132 c 0
387 620 m 0
 532 620 617 546 617 440 c 0
 617 425 615 411 612 395 c 2
 563 164 l 2
 561 154 560 144 560 136 c 0
 560 90 590 75 626 75 c 0
 668 75 712 97 726 164 c 2
 819 600 l 1
 947 600 l 1
 854 164 l 2
 833 65 738 -20 606 -20 c 0
 491 -20 431 44 431 126 c 0
 431 138 432 151 435 164 c 2
 484 395 l 2
 487 408 488 419 488 430 c 0
 488 496 440 525 367 525 c 0
 299 525 248 495 215 440 c 1
 344 411 l 1
 319 358 l 2
 318 358 301 362 287 362 c 0
 249 362 233 337 226 305 c 2
 212 240 l 2
 208 221 200 206 190 193 c 1
 236 188 267 159 267 115 c 0
 267 108 266 100 264 92 c 0
 251 30 194 -10 131 -10 c 0
 76 -10 40 20 40 69 c 0
 40 76 40 84 42 92 c 0
 52 139 68 164 78 210 c 2
 95 292 l 2
 105 340 137 374 183 389 c 1
 71 412 l 1
 108 516 219 620 387 620 c 0
483 -117 m 0
 463 -117 447 -131 443 -150 c 0
 442 -153 442 -155 442 -158 c 0
 442 -173 452 -183 469 -183 c 0
 489 -183 505 -169 509 -150 c 0
 510 -147 510 -145 510 -142 c 0
 510 -127 500 -117 483 -117 c 0
495 -62 m 0
 542 -62 573 -88 573 -130 c 0
 573 -136 572 -143 571 -150 c 0
 567 -171 557 -188 544 -202 c 1
 547 -202 550 -202 553 -202 c 2
 568 -202 l 2
 626 -202 675 -175 696 -78 c 1
 789 -88 l 1
 766 -195 678 -262 572 -262 c 2
 507 -262 l 2
 427 -262 378 -230 378 -174 c 0
 378 -167 379 -158 381 -150 c 0
 392 -96 441 -62 495 -62 c 0
EndSplineSet
PickledDataWithLists: "(dp0
Vcom.fontlab.hintData
p1
(dp2
Vvhints
p3
(lp4
(dp5
Vposition
p6
L81L
sVwidth
p7
L10L
sa(dp8
g6
L101L
sg7
L10L
sa(dp9
g6
L169L
sg7
L10L
sa(dp10
g6
L189L
sg7
L10L
sa(dp11
g6
L315L
sg7
L10L
sa(dp12
g6
L471L
sg7
L10L
sa(dp13
g6
L476L
sg7
L10L
sa(dp14
g6
L513L
sg7
L10L
sa(dp15
g6
L559L
sg7
L10L
sa(dp16
g6
L564L
sg7
L10L
sa(dp17
g6
L591L
sg7
L10L
sa(dp18
g6
L771L
sg7
L10L
sa(dp19
g6
L781L
sg7
L10L
sa(dp20
g6
L859L
sg7
L10L
sa(dp21
g6
L869L
sg7
L10L
sa(dp22
g6
L879L
sg7
L10L
sasVhhints
p23
(lp24
(dp25
g6
L-252L
sg7
L10L
sa(dp26
g6
L-197L
sg7
L10L
sa(dp27
g6
L-98L
sg7
L10L
sa(dp28
g6
L-19L
sg7
L10L
sa(dp29
g6
L43L
sg7
L10L
sa(dp30
g6
L56L
sg7
L10L
sa(dp31
g6
L544L
sg7
L10L
sa(dp32
g6
L595L
sg7
L10L
sa(dp33
g6
L606L
sg7
L10L
sass."
Substitution2: "ThaiRC.rd subtable" uni0E0D.rd
Colour: ff00ff
EndChar

StartChar: uni0E0D.rd
Encoding: 63642 63642 140
GlifName: uni0E_0D_.rd
Width: 950
VWidth: 0
GlyphClass: 2
Flags: HMW
LayerCount: 2
Fore
SplineSet
161 132 m 0
 137 132 120 115 115 92 c 0
 114 88 114 84 114 81 c 0
 114 64 124 52 144 52 c 0
 168 52 186 69 191 92 c 0
 192 96 192 99 192 102 c 0
 192 120 181 132 161 132 c 0
387 620 m 0
 532 620 617 546 617 440 c 0
 617 425 615 411 612 395 c 2
 563 164 l 2
 561 154 560 144 560 136 c 0
 560 90 590 75 626 75 c 0
 668 75 712 97 726 164 c 2
 819 600 l 1
 947 600 l 1
 854 164 l 2
 833 65 738 -20 606 -20 c 0
 491 -20 431 44 431 126 c 0
 431 138 432 151 435 164 c 2
 484 395 l 2
 487 408 488 419 488 430 c 0
 488 496 440 525 367 525 c 0
 299 525 248 495 215 440 c 1
 344 411 l 1
 319 358 l 2
 318 358 301 362 287 362 c 0
 249 362 233 337 226 305 c 2
 212 240 l 2
 208 221 200 206 190 193 c 1
 236 188 267 159 267 115 c 0
 267 108 266 100 264 92 c 0
 251 30 194 -10 131 -10 c 0
 76 -10 40 20 40 69 c 0
 40 76 40 84 42 92 c 0
 52 139 68 164 78 210 c 2
 95 292 l 2
 105 340 137 374 183 389 c 1
 71 412 l 1
 108 516 219 620 387 620 c 0
EndSplineSet
PickledDataWithLists: "(dp0
Vcom.fontlab.hintData
p1
(dp2
Vvhints
p3
(lp4
(dp5
Vposition
p6
L81L
sVwidth
p7
L10L
sa(dp8
g6
L101L
sg7
L10L
sa(dp9
g6
L169L
sg7
L10L
sa(dp10
g6
L189L
sg7
L10L
sa(dp11
g6
L315L
sg7
L10L
sa(dp12
g6
L471L
sg7
L10L
sa(dp13
g6
L476L
sg7
L10L
sa(dp14
g6
L559L
sg7
L10L
sa(dp15
g6
L564L
sg7
L10L
sa(dp16
g6
L771L
sg7
L10L
sa(dp17
g6
L781L
sg7
L10L
sa(dp18
g6
L859L
sg7
L10L
sa(dp19
g6
L869L
sg7
L10L
sasVhhints
p20
(lp21
(dp22
g6
L-19L
sg7
L10L
sa(dp23
g6
L43L
sg7
L10L
sa(dp24
g6
L56L
sg7
L10L
sa(dp25
g6
L544L
sg7
L10L
sa(dp26
g6
L595L
sg7
L10L
sa(dp27
g6
L606L
sg7
L10L
sass."
EndChar

StartChar: uni0E0E
Encoding: 3598 3598 141
GlifName: uni0E_0E_
Width: 665
VWidth: 0
GlyphClass: 2
Flags: HMW
LayerCount: 2
Fore
SplineSet
116 132 m 0
 92 132 75 115 70 92 c 0
 69 88 69 84 69 81 c 0
 69 64 79 52 99 52 c 0
 123 52 141 69 146 92 c 0
 147 96 147 99 147 102 c 0
 147 120 136 132 116 132 c 0
397 620 m 0
 542 620 627 546 627 440 c 0
 627 425 625 411 622 395 c 2
 523 -70 l 1
 488 -235 l 1
 373 -235 l 1
 331 -200 273 -164 222 -140 c 1
 222 -144 222 -148 221 -152 c 0
 212 -192 168 -248 95 -248 c 0
 38 -248 8 -216 8 -173 c 0
 8 -166 9 -159 10 -152 c 0
 22 -95 72 -57 140 -57 c 0
 208 -57 303 -101 380 -153 c 1
 383 -130 388 -101 395 -70 c 2
 494 395 l 2
 497 408 498 419 498 430 c 0
 498 496 450 525 377 525 c 0
 310 525 257 495 225 441 c 1
 369 411 l 1
 344 358 l 2
 343 358 326 362 312 362 c 0
 274 362 258 337 251 305 c 2
 231 210 l 2
 221 164 229 139 219 92 c 0
 206 30 149 -10 86 -10 c 0
 31 -10 -5 20 -5 69 c 0
 -5 76 -5 84 -3 92 c 0
 9 148 57 186 112 193 c 1
 109 201 107 211 107 221 c 0
 107 227 108 233 109 240 c 2
 120 292 l 2
 130 340 160 373 206 388 c 1
 81 412 l 1
 118 516 229 620 397 620 c 0
158 -117 m 1
 147 -115 140 -113 132 -113 c 0
 113 -113 89 -122 83 -152 c 0
 82 -156 82 -160 82 -163 c 0
 82 -183 96 -191 111 -191 c 0
 137 -191 157 -174 162 -152 c 0
 165 -136 162 -125 158 -117 c 1
EndSplineSet
PickledDataWithLists: "(dp0
Vcom.fontlab.hintData
p1
(dp2
Vvhints
p3
(lp4
(dp5
Vposition
p6
L26L
sVwidth
p7
L10L
sa(dp8
g6
L81L
sg7
L10L
sa(dp9
g6
L126L
sg7
L10L
sa(dp10
g6
L219L
sg7
L10L
sa(dp11
g6
L470L
sg7
L10L
sa(dp12
g6
L476L
sg7
L10L
sa(dp13
g6
L556L
sg7
L10L
sa(dp14
g6
L564L
sg7
L10L
sasVhhints
p15
(lp16
(dp17
g6
L-242L
sg7
L10L
sa(dp18
g6
L-235L
sg7
L10L
sa(dp19
g6
L-137L
sg7
L10L
sa(dp20
g6
L-87L
sg7
L10L
sa(dp21
g6
L-16L
sg7
L10L
sa(dp22
g6
L66L
sg7
L10L
sa(dp23
g6
L544L
sg7
L10L
sa(dp24
g6
L606L
sg7
L10L
sass."
EndChar

StartChar: uni0E0F
Encoding: 3599 3599 142
GlifName: uni0E_0F_
Width: 665
VWidth: 0
GlyphClass: 2
Flags: HMW
LayerCount: 2
Fore
SplineSet
116 132 m 0
 92 132 75 115 70 92 c 0
 69 88 69 84 69 81 c 0
 69 64 79 52 99 52 c 0
 123 52 141 69 146 92 c 0
 147 96 147 99 147 102 c 0
 147 120 136 132 116 132 c 0
397 620 m 0
 542 620 627 546 627 440 c 0
 627 425 625 411 622 395 c 2
 523 -70 l 1
 488 -235 l 1
 373 -235 l 1
 276 -143 l 1
 262 -160 243 -179 220 -196 c 0
 183 -222 135 -248 84 -248 c 0
 25 -248 -7 -219 -7 -174 c 0
 -7 -167 -7 -160 -5 -152 c 0
 6 -98 55 -56 121 -56 c 0
 183 -56 207 -97 207 -134 c 0
 207 -136 207 -138 207 -139 c 1
 236 -110 257 -75 260 -70 c 1
 299 -70 l 1
 381 -152 l 1
 384 -129 388 -101 395 -70 c 2
 494 395 l 2
 497 408 498 419 498 430 c 0
 498 496 450 525 377 525 c 0
 310 525 257 495 225 441 c 1
 369 411 l 1
 344 358 l 2
 343 358 326 362 312 362 c 0
 274 362 258 337 251 305 c 2
 231 210 l 2
 221 164 229 139 219 92 c 0
 206 30 149 -10 86 -10 c 0
 31 -10 -5 20 -5 69 c 0
 -5 76 -5 84 -3 92 c 0
 9 148 57 186 112 193 c 1
 109 201 107 211 107 221 c 0
 107 227 108 233 109 240 c 2
 120 292 l 2
 130 340 160 373 206 388 c 1
 81 412 l 1
 118 516 229 620 397 620 c 0
68 -152 m 0
 67 -156 67 -160 67 -163 c 0
 67 -185 83 -191 100 -191 c 0
 109 -191 119 -190 128 -188 c 1
 136 -179 144 -168 147 -152 c 0
 148 -149 148 -146 148 -143 c 0
 148 -126 135 -113 113 -113 c 0
 96 -113 74 -124 68 -152 c 0
EndSplineSet
PickledDataWithLists: "(dp0
Vcom.fontlab.hintData
p1
(dp2
Vvhints
p3
(lp4
(dp5
Vposition
p6
L26L
sVwidth
p7
L10L
sa(dp8
g6
L81L
sg7
L10L
sa(dp9
g6
L97L
sg7
L10L
sa(dp10
g6
L131L
sg7
L10L
sa(dp11
g6
L166L
sg7
L10L
sa(dp12
g6
L179L
sg7
L10L
sa(dp13
g6
L221L
sg7
L10L
sa(dp14
g6
L470L
sg7
L10L
sa(dp15
g6
L476L
sg7
L10L
sa(dp16
g6
L553L
sg7
L10L
sa(dp17
g6
L564L
sg7
L10L
sasVhhints
p18
(lp19
(dp20
g6
L-240L
sg7
L10L
sa(dp21
g6
L-234L
sg7
L10L
sa(dp22
g6
L-191L
sg7
L10L
sa(dp23
g6
L-88L
sg7
L10L
sa(dp24
g6
L-83L
sg7
L10L
sa(dp25
g6
L-16L
sg7
L10L
sa(dp26
g6
L66L
sg7
L10L
sa(dp27
g6
L544L
sg7
L10L
sa(dp28
g6
L606L
sg7
L10L
sass."
EndChar

StartChar: uni0E10
Encoding: 3600 3600 143
GlifName: uni0E_10
Width: 555
VWidth: 0
GlyphClass: 2
Flags: HMW
AnchorPoint: "ThaiTone.mark" 475 0 basechar 0
AnchorPoint: "ThaiAbove.mark" 515 0 basechar 0
LayerCount: 2
Fore
SplineSet
163 330 m 0
 272 330 300 227 301 132 c 1
 315 180 342 234 353 284 c 0
 354 290 355 296 355 302 c 0
 355 367 263 390 65 390 c 1
 71 420 l 2
 96 538 204 620 335 620 c 0
 408 620 451 594 477 566 c 1
 480 571 483 575 486 579 c 2
 513 614 l 1
 604 596 l 1
 602 590 l 1
 489 478 l 1
 450 478 l 1
 438 500 408 534 338 534 c 0
 282 534 225 512 199 448 c 1
 373 441 484 410 484 324 c 0
 484 316 483 309 481 300 c 0
 465 224 397 138 380 60 c 2
 367 0 l 1
 229 0 l 1
 234 28 236 56 236 83 c 0
 236 116 233 147 225 172 c 1
 200 143 161 126 120 126 c 0
 65 126 28 156 28 205 c 0
 28 212 28 220 30 228 c 0
 43 290 100 330 163 330 c 0
150 268 m 0
 126 268 108 251 103 228 c 0
 102 224 102 221 102 218 c 0
 102 200 113 188 133 188 c 0
 157 188 174 205 179 228 c 0
 180 232 180 236 180 239 c 0
 180 256 170 268 150 268 c 0
187 -139 m 1
 216 -110 237 -75 240 -70 c 1
 279 -70 l 1
 332 -140 l 1
 335 -119 339 -96 345 -70 c 1
 440 -70 l 1
 405 -235 l 1
 323 -235 l 1
 253 -147 l 1
 240 -163 221 -180 200 -196 c 0
 163 -222 115 -248 64 -248 c 0
 5 -248 -27 -219 -27 -174 c 0
 -27 -167 -27 -160 -25 -152 c 0
 -14 -98 35 -56 101 -56 c 0
 163 -56 187 -97 187 -134 c 0
 187 -136 187 -138 187 -139 c 1
48 -152 m 0
 47 -156 47 -160 47 -163 c 0
 47 -185 63 -191 80 -191 c 0
 89 -191 99 -190 108 -188 c 1
 116 -179 124 -168 127 -152 c 0
 128 -149 128 -146 128 -143 c 0
 128 -126 115 -113 93 -113 c 0
 76 -113 54 -124 48 -152 c 0
EndSplineSet
PickledDataWithLists: "(dp0
Vcom.fontlab.hintData
p1
(dp2
Vvhints
p3
(lp4
(dp5
Vposition
p6
L30L
sVwidth
p7
L10L
sa(dp8
g6
L80L
sg7
L10L
sa(dp9
g6
L89L
sg7
L10L
sa(dp10
g6
L110L
sg7
L10L
sa(dp11
g6
L149L
sg7
L10L
sa(dp12
g6
L160L
sg7
L10L
sa(dp13
g6
L434L
sg7
L10L
sa(dp14
g6
L504L
sg7
L10L
sa(dp15
g6
L510L
sg7
L10L
sa(dp16
g6
L516L
sg7
L10L
sa(dp17
g6
L569L
sg7
L10L
sasVhhints
p18
(lp19
(dp20
g6
L-237L
sg7
L10L
sa(dp21
g6
L-229L
sg7
L10L
sa(dp22
g6
L-189L
sg7
L10L
sa(dp23
g6
L-92L
sg7
L10L
sa(dp24
g6
L-87L
sg7
L10L
sa(dp25
g6
L-72L
sg7
L10L
sa(dp26
g6
L-9L
sg7
L10L
sa(dp27
g6
L197L
sg7
L10L
sa(dp28
g6
L215L
sg7
L10L
sa(dp29
g6
L272L
sg7
L10L
sa(dp30
g6
L366L
sg7
L10L
sa(dp31
g6
L420L
sg7
L10L
sa(dp32
g6
L558L
sg7
L10L
sa(dp33
g6
L612L
sg7
L10L
sa(dp34
g6
L652L
sg7
L10L
sass."
Substitution2: "ThaiRC.rd subtable" uni0E10.rd
Colour: ff00ff
EndChar

StartChar: uni0E10.rd
Encoding: 63646 63646 144
GlifName: uni0E_10.rd
Width: 555
VWidth: 0
GlyphClass: 2
Flags: HMW
AnchorPoint: "ThaiBelow.mark" 450 0 basechar 0
AnchorPoint: "ThaiTone.mark" 475 0 basechar 0
AnchorPoint: "ThaiAbove.mark" 515 0 basechar 0
LayerCount: 2
Fore
SplineSet
163 330 m 0
 272 330 300 227 301 132 c 1
 315 180 342 234 353 284 c 0
 354 290 355 296 355 302 c 0
 355 367 263 390 65 390 c 1
 71 420 l 2
 96 538 204 620 335 620 c 0
 408 620 451 594 477 566 c 1
 480 571 483 575 486 579 c 2
 513 614 l 1
 604 596 l 1
 602 590 l 1
 489 478 l 1
 450 478 l 1
 438 500 408 534 338 534 c 0
 282 534 225 512 199 448 c 1
 373 441 484 410 484 324 c 0
 484 316 483 309 481 300 c 0
 465 224 397 138 380 60 c 2
 367 0 l 1
 229 0 l 1
 234 28 236 56 236 83 c 0
 236 116 233 147 225 172 c 1
 200 143 161 126 120 126 c 0
 65 126 28 156 28 205 c 0
 28 212 28 220 30 228 c 0
 43 290 100 330 163 330 c 0
150 268 m 0
 126 268 108 251 103 228 c 0
 102 224 102 221 102 218 c 0
 102 200 113 188 133 188 c 0
 157 188 174 205 179 228 c 0
 180 232 180 236 180 239 c 0
 180 256 170 268 150 268 c 0
EndSplineSet
PickledDataWithLists: "(dp0
Vcom.fontlab.hintData
p1
(dp2
Vvhints
p3
(lp4
(dp5
Vposition
p6
L30L
sVwidth
p7
L10L
sa(dp8
g6
L89L
sg7
L10L
sa(dp9
g6
L110L
sg7
L10L
sa(dp10
g6
L430L
sg7
L10L
sa(dp11
g6
L510L
sg7
L10L
sa(dp12
g6
L569L
sg7
L10L
sasVhhints
p13
(lp14
(dp15
g6
L-9L
sg7
L10L
sa(dp16
g6
L197L
sg7
L10L
sa(dp17
g6
L215L
sg7
L10L
sa(dp18
g6
L272L
sg7
L10L
sa(dp19
g6
L366L
sg7
L10L
sa(dp20
g6
L420L
sg7
L10L
sa(dp21
g6
L558L
sg7
L10L
sa(dp22
g6
L612L
sg7
L10L
sa(dp23
g6
L652L
sg7
L10L
sass."
EndChar

StartChar: uni0E11
Encoding: 3601 3601 145
GlifName: uni0E_11
Width: 665
VWidth: 0
GlyphClass: 2
Flags: HMW
LayerCount: 2
Fore
SplineSet
175 548 m 0
 151 548 134 531 129 508 c 0
 128 504 128 500 128 497 c 0
 128 480 138 468 158 468 c 0
 182 468 200 485 205 508 c 0
 206 512 206 515 206 518 c 0
 206 536 195 548 175 548 c 0
189 610 m 0
 244 610 280 580 280 531 c 0
 280 524 280 516 278 508 c 0
 276 500 274 491 271 484 c 1
 306 514 336 557 357 599 c 1
 403 605 l 1
 415 590 428 564 430 526 c 1
 474 574 524 610 568 610 c 0
 627 610 642 571 642 532 c 0
 642 515 639 497 636 483 c 2
 533 0 l 1
 404 0 l 1
 502 460 l 2
 504 468 505 476 505 483 c 0
 505 493 502 500 495 502 c 1
 473 493 437 459 408 424 c 1
 361 319 248 264 227 163 c 2
 192 0 l 1
 63 0 l 1
 96 153 l 2
 130 315 294 350 333 475 c 1
 292 428 239 395 160 395 c 0
 91 395 53 429 53 482 c 0
 53 490 54 499 56 508 c 0
 69 570 126 610 189 610 c 0
EndSplineSet
PickledDataWithLists: "(dp0
Vcom.fontlab.hintData
p1
(dp2
Vvhints
p3
(lp4
(dp5
Vposition
p6
L11L
sVwidth
p7
L10L
sa(dp8
g6
L161L
sg7
L10L
sa(dp9
g6
L235L
sg7
L10L
sa(dp10
g6
L283L
sg7
L10L
sa(dp11
g6
L524L
sg7
L10L
sa(dp12
g6
L529L
sg7
L10L
sa(dp13
g6
L606L
sg7
L10L
sa(dp14
g6
L608L
sg7
L10L
sasVhhints
p15
(lp16
(dp17
g6
L-15L
sg7
L10L
sa(dp18
g6
L-8L
sg7
L10L
sa(dp19
g6
L398L
sg7
L10L
sa(dp20
g6
L602L
sg7
L10L
sa(dp21
g6
L611L
sg7
L10L
sass."
EndChar

StartChar: uni0E12
Encoding: 3602 3602 146
GlifName: uni0E_12
Width: 960
VWidth: 0
GlyphClass: 2
Flags: HMW
LayerCount: 2
Fore
SplineSet
346 357 m 0
 322 357 304 340 299 317 c 0
 298 313 298 310 298 307 c 0
 298 289 309 277 329 277 c 0
 353 277 370 294 375 317 c 0
 376 321 376 325 376 328 c 0
 376 345 366 357 346 357 c 0
468 132 m 0
 444 132 427 115 422 92 c 0
 421 88 421 84 421 81 c 0
 421 64 431 52 451 52 c 0
 475 52 493 69 498 92 c 0
 499 96 499 99 499 102 c 0
 499 120 488 132 468 132 c 0
311 614 m 1
 384 537 l 1
 491 614 l 1
 603 614 630 540 630 470 c 0
 630 443 626 417 621 395 c 2
 582 212 l 2
 581 205 579 198 579 192 c 1
 649 180 692 146 720 110 c 1
 725 143 732 178 739 210 c 2
 822 600 l 1
 950 600 l 1
 822 0 l 1
 704 0 l 1
 678 51 645 99 575 116 c 1
 575 109 573 101 571 92 c 0
 558 30 501 -10 438 -10 c 0
 383 -10 347 20 347 69 c 0
 347 76 347 84 349 92 c 0
 361 149 410 188 467 193 c 1
 465 200 463 210 463 220 c 0
 463 226 463 233 465 240 c 2
 498 395 l 2
 504 424 507 447 507 466 c 0
 507 502 496 520 477 524 c 1
 382 459 l 1
 368 459 l 1
 354 459 l 1
 284 524 l 1
 252 518 222 481 204 395 c 0
 174 255 187 222 173 158 c 0
 169 139 163 120 158 104 c 1
 209 151 270 180 316 215 c 1
 261 215 224 245 224 294 c 0
 224 301 224 309 226 317 c 0
 239 379 296 419 359 419 c 0
 414 419 450 389 450 340 c 0
 450 333 450 325 448 317 c 0
 415 161 219 119 162 0 c 1
 16 0 l 1
 16 0 41 71 51 117 c 0
 72 215 54 243 86 395 c 0
 103 473 157 614 311 614 c 1
EndSplineSet
PickledDataWithLists: "(dp0
Vcom.fontlab.hintData
p1
(dp2
Vvhints
p3
(lp4
(dp5
Vposition
p6
L64L
sVwidth
p7
L10L
sa(dp8
g6
L146L
sg7
L10L
sa(dp9
g6
L322L
sg7
L10L
sa(dp10
g6
L328L
sg7
L10L
sa(dp11
g6
L375L
sg7
L10L
sa(dp12
g6
L445L
sg7
L10L
sa(dp13
g6
L535L
sg7
L10L
sa(dp14
g6
L605L
sg7
L10L
sa(dp15
g6
L781L
sg7
L10L
sa(dp16
g6
L789L
sg7
L10L
sa(dp17
g6
L861L
sg7
L10L
sa(dp18
g6
L871L
sg7
L10L
sasVhhints
p19
(lp20
(dp21
g6
L-19L
sg7
L10L
sa(dp22
g6
L-15L
sg7
L10L
sa(dp23
g6
L37L
sg7
L10L
sa(dp24
g6
L241L
sg7
L10L
sa(dp25
g6
L289L
sg7
L10L
sa(dp26
g6
L412L
sg7
L10L
sa(dp27
g6
L546L
sg7
L10L
sa(dp28
g6
L587L
sg7
L10L
sa(dp29
g6
L593L
sg7
L10L
sa(dp30
g6
L603L
sg7
L10L
sass."
EndChar

StartChar: uni0E13
Encoding: 3603 3603 147
GlifName: uni0E_13
Width: 960
VWidth: 0
GlyphClass: 2
Flags: HMW
LayerCount: 2
Fore
SplineSet
161 132 m 0
 137 132 120 115 115 92 c 0
 114 88 114 84 114 81 c 0
 114 64 124 52 144 52 c 0
 168 52 186 69 191 92 c 0
 192 96 192 99 192 102 c 0
 192 120 181 132 161 132 c 0
776 132 m 0
 752 132 735 115 730 92 c 0
 729 88 729 84 729 81 c 0
 729 64 739 52 759 52 c 0
 783 52 801 69 806 92 c 0
 807 96 807 99 807 102 c 0
 807 120 796 132 776 132 c 0
215 440 m 1
 344 411 l 1
 319 358 l 2
 318 358 301 362 287 362 c 0
 249 362 233 337 226 305 c 2
 212 240 l 2
 208 221 200 206 190 193 c 1
 236 188 267 159 267 115 c 0
 267 108 266 100 264 92 c 0
 251 30 194 -10 131 -10 c 0
 76 -10 40 20 40 69 c 0
 40 76 40 84 42 92 c 0
 52 139 68 164 78 210 c 2
 95 292 l 2
 105 340 137 374 183 389 c 1
 71 412 l 1
 108 516 219 620 387 620 c 0
 532 620 617 546 617 440 c 0
 617 425 615 411 612 395 c 2
 573 210 l 2
 567 180 558 147 550 116 c 1
 595 154 653 187 729 196 c 1
 731 201 733 206 734 212 c 2
 817 600 l 1
 946 600 l 1
 869 238 l 2
 864 216 850 200 832 187 c 1
 863 175 882 150 882 115 c 0
 882 108 881 100 879 92 c 0
 866 30 809 -10 746 -10 c 0
 691 -10 655 20 655 69 c 0
 655 76 655 84 657 92 c 0
 658 99 661 106 663 112 c 1
 603 90 558 46 518 0 c 1
 400 0 l 1
 484 395 l 2
 487 408 488 419 488 430 c 0
 488 496 440 525 367 525 c 0
 299 525 248 495 215 440 c 1
EndSplineSet
PickledDataWithLists: "(dp0
Vcom.fontlab.hintData
p1
(dp2
Vvhints
p3
(lp4
(dp5
Vposition
p6
L84L
sVwidth
p7
L10L
sa(dp8
g6
L104L
sg7
L10L
sa(dp9
g6
L166L
sg7
L10L
sa(dp10
g6
L186L
sg7
L10L
sa(dp11
g6
L311L
sg7
L10L
sa(dp12
g6
L454L
sg7
L10L
sa(dp13
g6
L469L
sg7
L10L
sa(dp14
g6
L540L
sg7
L10L
sa(dp15
g6
L551L
sg7
L10L
sa(dp16
g6
L709L
sg7
L10L
sa(dp17
g6
L780L
sg7
L10L
sa(dp18
g6
L816L
sg7
L10L
sa(dp19
g6
L865L
sg7
L10L
sa(dp20
g6
L935L
sg7
L10L
sasVhhints
p21
(lp22
(dp23
g6
L-17L
sg7
L10L
sa(dp24
g6
L29L
sg7
L10L
sa(dp25
g6
L41L
sg7
L10L
sa(dp26
g6
L54L
sg7
L10L
sa(dp27
g6
L241L
sg7
L10L
sa(dp28
g6
L289L
sg7
L10L
sa(dp29
g6
L546L
sg7
L10L
sa(dp30
g6
L594L
sg7
L10L
sa(dp31
g6
L604L
sg7
L10L
sass."
EndChar

StartChar: uni0E14
Encoding: 3604 3604 148
GlifName: uni0E_14
Width: 665
VWidth: 0
GlyphClass: 2
Flags: HMW
LayerCount: 2
Fore
SplineSet
409 0 m 1
 429 95 l 2
 443 162 464 235 498 395 c 0
 501 408 502 421 502 432 c 0
 502 497 455 525 382 525 c 0
 297 525 224 487 204 395 c 0
 174 255 187 222 173 158 c 0
 169 139 163 120 158 104 c 1
 209 151 270 180 316 215 c 1
 261 215 224 245 224 294 c 0
 224 301 224 309 226 317 c 0
 239 379 296 419 359 419 c 0
 414 419 450 389 450 340 c 0
 450 333 450 325 448 317 c 0
 415 161 219 119 162 0 c 1
 16 0 l 1
 16 0 41 71 51 117 c 0
 72 215 54 243 86 395 c 0
 113 523 239 620 402 620 c 0
 545 620 626 545 626 441 c 0
 626 426 624 411 621 395 c 2
 537 0 l 1
 409 0 l 1
346 357 m 0
 322 357 304 340 299 317 c 0
 298 313 298 310 298 307 c 0
 298 289 309 277 329 277 c 0
 353 277 370 294 375 317 c 0
 376 321 376 325 376 328 c 0
 376 345 366 357 346 357 c 0
EndSplineSet
PickledDataWithLists: "(dp0
Vcom.fontlab.hintData
p1
(dp2
Vvhints
p3
(lp4
(dp5
Vposition
p6
L60L
sVwidth
p7
L10L
sa(dp8
g6
L149L
sg7
L10L
sa(dp9
g6
L306L
sg7
L10L
sa(dp10
g6
L394L
sg7
L10L
sa(dp11
g6
L495L
sg7
L10L
sa(dp12
g6
L501L
sg7
L10L
sa(dp13
g6
L584L
sg7
L10L
sa(dp14
g6
L589L
sg7
L10L
sasVhhints
p15
(lp16
(dp17
g6
L-23L
sg7
L10L
sa(dp18
g6
L-15L
sg7
L10L
sa(dp19
g6
L40L
sg7
L10L
sa(dp20
g6
L140L
sg7
L10L
sa(dp21
g6
L547L
sg7
L10L
sa(dp22
g6
L609L
sg7
L10L
sass."
EndChar

StartChar: uni0E15
Encoding: 3605 3605 149
GlifName: uni0E_15
Width: 665
VWidth: 0
GlyphClass: 2
Flags: HMW
LayerCount: 2
Fore
SplineSet
409 0 m 1
 429 95 l 2
 443 162 464 235 498 395 c 0
 504 424 507 447 507 466 c 0
 507 502 496 520 477 524 c 1
 382 459 l 1
 368 459 l 1
 354 459 l 1
 284 524 l 1
 252 518 222 481 204 395 c 0
 174 255 187 222 173 158 c 0
 169 139 163 120 158 104 c 1
 209 151 270 180 316 215 c 1
 261 215 224 245 224 294 c 0
 224 301 224 309 226 317 c 0
 239 379 296 419 359 419 c 0
 414 419 450 389 450 340 c 0
 450 333 450 325 448 317 c 0
 415 161 219 119 162 0 c 1
 16 0 l 1
 16 0 41 71 51 117 c 0
 72 215 54 243 86 395 c 0
 103 473 157 614 311 614 c 1
 384 537 l 1
 491 614 l 1
 603 614 630 540 630 470 c 0
 630 443 626 417 621 395 c 2
 537 0 l 1
 409 0 l 1
346 357 m 0
 322 357 304 340 299 317 c 0
 298 313 298 310 298 307 c 0
 298 289 309 277 329 277 c 0
 353 277 370 294 375 317 c 0
 376 321 376 325 376 328 c 0
 376 345 366 357 346 357 c 0
EndSplineSet
PickledDataWithLists: "(dp0
Vcom.fontlab.hintData
p1
(dp2
Vvhints
p3
(lp4
(dp5
Vposition
p6
L64L
sVwidth
p7
L10L
sa(dp8
g6
L146L
sg7
L10L
sa(dp9
g6
L309L
sg7
L10L
sa(dp10
g6
L332L
sg7
L10L
sa(dp11
g6
L337L
sg7
L10L
sa(dp12
g6
L391L
sg7
L10L
sa(dp13
g6
L405L
sg7
L10L
sa(dp14
g6
L513L
sg7
L10L
sa(dp15
g6
L597L
sg7
L10L
sa(dp16
g6
L602L
sg7
L10L
sasVhhints
p17
(lp18
(dp19
g6
L-21L
sg7
L10L
sa(dp20
g6
L-13L
sg7
L10L
sa(dp21
g6
L36L
sg7
L10L
sa(dp22
g6
L133L
sg7
L10L
sa(dp23
g6
L412L
sg7
L10L
sa(dp24
g6
L546L
sg7
L10L
sa(dp25
g6
L590L
sg7
L10L
sa(dp26
g6
L603L
sg7
L10L
sass."
EndChar

StartChar: uni0E16
Encoding: 3606 3606 150
GlifName: uni0E_16
Width: 655
VWidth: 0
GlyphClass: 2
Flags: HMW
LayerCount: 2
Fore
SplineSet
387 620 m 0
 532 620 617 546 617 440 c 0
 617 425 615 411 612 395 c 2
 528 0 l 1
 400 0 l 1
 484 395 l 2
 487 408 488 419 488 430 c 0
 488 496 440 525 367 525 c 0
 299 525 247 494 215 440 c 1
 344 411 l 1
 319 358 l 2
 318 358 301 362 287 362 c 0
 249 362 233 337 226 305 c 2
 212 240 l 2
 208 221 200 206 190 193 c 1
 236 188 267 159 267 115 c 0
 267 108 266 100 264 92 c 0
 251 30 194 -10 131 -10 c 0
 76 -10 40 20 40 69 c 0
 40 76 40 84 42 92 c 0
 52 139 68 164 78 210 c 2
 95 292 l 2
 105 340 137 374 183 389 c 1
 71 412 l 1
 108 516 219 620 387 620 c 0
161 132 m 0
 137 132 120 115 115 92 c 0
 114 88 114 84 114 81 c 0
 114 64 124 52 144 52 c 0
 168 52 186 69 191 92 c 0
 192 96 192 99 192 102 c 0
 192 120 181 132 161 132 c 0
EndSplineSet
PickledDataWithLists: "(dp0
Vcom.fontlab.hintData
p1
(dp2
Vvhints
p3
(lp4
(dp5
Vposition
p6
L81L
sVwidth
p7
L10L
sa(dp8
g6
L86L
sg7
L10L
sa(dp9
g6
L111L
sg7
L10L
sa(dp10
g6
L169L
sg7
L10L
sa(dp11
g6
L199L
sg7
L10L
sa(dp12
g6
L315L
sg7
L10L
sa(dp13
g6
L465L
sg7
L10L
sa(dp14
g6
L476L
sg7
L10L
sa(dp15
g6
L556L
sg7
L10L
sa(dp16
g6
L564L
sg7
L10L
sasVhhints
p17
(lp18
(dp19
g6
L-19L
sg7
L10L
sa(dp20
g6
L43L
sg7
L10L
sa(dp21
g6
L56L
sg7
L10L
sa(dp22
g6
L544L
sg7
L10L
sa(dp23
g6
L606L
sg7
L10L
sass."
EndChar

StartChar: uni0E17
Encoding: 3607 3607 151
GlifName: uni0E_17
Width: 660
VWidth: 0
GlyphClass: 2
Flags: HMW
LayerCount: 2
Fore
SplineSet
183 468 m 0
 207 468 225 485 230 508 c 0
 231 512 231 515 231 518 c 0
 231 536 220 548 200 548 c 0
 176 548 159 531 154 508 c 0
 153 504 153 500 153 497 c 0
 153 480 163 468 183 468 c 0
248 317 m 1
 320 457 424 610 535 610 c 0
 614 610 634 558 634 514 c 0
 634 503 633 492 631 483 c 2
 528 0 l 1
 400 0 l 1
 498 459 l 2
 499 465 500 471 500 477 c 0
 500 489 497 500 487 502 c 1
 391 463 242 193 199 87 c 1
 181 0 l 1
 53 0 l 1
 130 360 l 2
 134 379 142 394 153 407 c 1
 108 413 78 442 78 485 c 0
 78 492 79 500 81 508 c 0
 94 570 151 610 214 610 c 0
 269 610 305 580 305 531 c 0
 305 524 305 516 303 508 c 0
 293 461 274 436 264 390 c 2
 248 317 l 1
EndSplineSet
PickledDataWithLists: "(dp0
Vcom.fontlab.hintData
p1
(dp2
Vvhints
p3
(lp4
(dp5
Vposition
p6
L58L
sVwidth
p7
L10L
sa(dp8
g6
L104L
sg7
L10L
sa(dp9
g6
L479L
sg7
L10L
sa(dp10
g6
L484L
sg7
L10L
sa(dp11
g6
L561L
sg7
L10L
sa(dp12
g6
L566L
sg7
L10L
sasVhhints
p13
(lp14
(dp15
g6
L-13L
sg7
L10L
sa(dp16
g6
L-8L
sg7
L10L
sa(dp17
g6
L546L
sg7
L10L
sa(dp18
g6
L604L
sg7
L10L
sass."
EndChar

StartChar: uni0E18
Encoding: 3608 3608 152
GlifName: uni0E_18
Width: 585
VWidth: 0
GlyphClass: 2
Flags: HMW
AnchorPoint: "ThaiTone.mark" 505 0 basechar 0
LayerCount: 2
Fore
SplineSet
46 181 m 2
 72 300 l 1
 200 300 l 1
 174 181 l 2
 171 169 170 158 170 148 c 0
 170 95 206 75 251 75 c 0
 304 75 355 103 372 181 c 2
 394 280 l 2
 395 285 396 290 396 295 c 0
 396 362 283 381 79 381 c 1
 87 420 l 2
 112 538 220 620 351 620 c 0
 424 620 467 594 493 566 c 1
 496 571 499 575 502 579 c 2
 529 614 l 1
 620 596 l 1
 618 590 l 1
 505 478 l 1
 466 478 l 1
 454 500 424 534 354 534 c 0
 297 534 238 511 214 444 c 1
 398 437 528 405 528 317 c 0
 528 310 528 303 526 296 c 2
 501 181 l 2
 478 71 374 -20 231 -20 c 0
 107 -20 41 49 41 139 c 0
 41 153 43 167 46 181 c 2
EndSplineSet
PickledDataWithLists: "(dp0
Vcom.fontlab.hintData
p1
(dp2
Vvhints
p3
(lp4
(dp5
Vposition
p6
L64L
sVwidth
p7
L10L
sa(dp8
g6
L109L
sg7
L10L
sa(dp9
g6
L146L
sg7
L10L
sa(dp10
g6
L195L
sg7
L10L
sa(dp11
g6
L430L
sg7
L10L
sa(dp12
g6
L513L
sg7
L10L
sasVhhints
p13
(lp14
(dp15
g6
L-14L
sg7
L10L
sa(dp16
g6
L44L
sg7
L10L
sa(dp17
g6
L294L
sg7
L10L
sa(dp18
g6
L496L
sg7
L10L
sa(dp19
g6
L555L
sg7
L10L
sa(dp20
g6
L612L
sg7
L10L
sass."
EndChar

StartChar: uni0E19
Encoding: 3609 3609 153
GlifName: uni0E_19
Width: 650
VWidth: 0
GlyphClass: 2
Flags: HMW
LayerCount: 2
Fore
SplineSet
53 0 m 1
 130 360 l 2
 134 379 143 395 154 407 c 1
 109 413 78 442 78 485 c 0
 78 492 79 500 81 508 c 0
 94 570 151 610 214 610 c 0
 269 610 305 580 305 531 c 0
 305 524 305 516 303 508 c 0
 292 458 273 437 263 388 c 2
 226 210 l 2
 219 179 211 144 202 112 c 1
 256 152 326 188 419 197 c 1
 421 202 423 207 424 212 c 2
 507 600 l 1
 636 600 l 1
 559 238 l 2
 554 216 540 200 522 187 c 1
 553 175 572 150 572 115 c 0
 572 108 571 100 569 92 c 0
 556 30 499 -10 436 -10 c 0
 381 -10 345 20 345 69 c 0
 345 76 345 84 347 92 c 0
 349 100 352 109 355 116 c 1
 277 96 218 48 171 0 c 1
 53 0 l 1
466 132 m 0
 442 132 425 115 420 92 c 0
 419 88 419 84 419 81 c 0
 419 64 429 52 449 52 c 0
 473 52 491 69 496 92 c 0
 497 96 497 99 497 102 c 0
 497 120 486 132 466 132 c 0
183 468 m 0
 207 468 225 485 230 508 c 0
 231 512 231 515 231 518 c 0
 231 536 220 548 200 548 c 0
 176 548 159 531 154 508 c 0
 153 504 153 500 153 497 c 0
 153 480 163 468 183 468 c 0
EndSplineSet
PickledDataWithLists: "(dp0
Vcom.fontlab.hintData
p1
(dp2
Vvhints
p3
(lp4
(dp5
Vposition
p6
L64L
sVwidth
p7
L10L
sa(dp8
g6
L84L
sg7
L10L
sa(dp9
g6
L168L
sg7
L10L
sa(dp10
g6
L387L
sg7
L10L
sa(dp11
g6
L457L
sg7
L10L
sa(dp12
g6
L491L
sg7
L10L
sa(dp13
g6
L550L
sg7
L10L
sa(dp14
g6
L625L
sg7
L10L
sasVhhints
p15
(lp16
(dp17
g6
L-27L
sg7
L10L
sa(dp18
g6
L-20L
sg7
L10L
sa(dp19
g6
L22L
sg7
L10L
sa(dp20
g6
L248L
sg7
L10L
sa(dp21
g6
L307L
sg7
L10L
sa(dp22
g6
L589L
sg7
L10L
sa(dp23
g6
L598L
sg7
L10L
sass."
EndChar

StartChar: uni0E1A
Encoding: 3610 3610 154
GlifName: uni0E_1A_
Width: 700
VWidth: 0
GlyphClass: 2
Flags: HMW
LayerCount: 2
Fore
SplineSet
177 468 m 0
 201 468 219 485 224 508 c 0
 225 512 225 515 225 518 c 0
 225 536 214 548 194 548 c 0
 170 548 153 531 148 508 c 0
 147 504 147 500 147 497 c 0
 147 480 157 468 177 468 c 0
297 508 m 0
 287 461 268 436 258 390 c 2
 216 192 l 2
 213 180 212 169 212 159 c 0
 212 100 256 74 321 74 c 0
 397 74 457 109 475 192 c 2
 562 600 l 1
 690 600 l 1
 603 192 l 2
 577 71 457 -20 301 -20 c 0
 164 -20 83 50 83 149 c 0
 83 163 85 177 88 192 c 2
 124 360 l 2
 128 379 136 394 147 407 c 1
 102 413 72 442 72 485 c 0
 72 492 73 500 75 508 c 0
 88 570 145 610 208 610 c 0
 263 610 299 580 299 531 c 0
 299 524 299 516 297 508 c 0
EndSplineSet
PickledDataWithLists: "(dp0
Vcom.fontlab.hintData
p1
(dp2
Vvhints
p3
(lp4
(dp5
Vposition
p6
L81L
sVwidth
p7
L10L
sa(dp8
g6
L106L
sg7
L10L
sa(dp9
g6
L194L
sg7
L10L
sa(dp10
g6
L511L
sg7
L10L
sa(dp11
g6
L516L
sg7
L10L
sa(dp12
g6
L599L
sg7
L10L
sa(dp13
g6
L604L
sg7
L10L
sasVhhints
p14
(lp15
(dp16
g6
L-26L
sg7
L10L
sa(dp17
g6
L36L
sg7
L10L
sa(dp18
g6
L596L
sg7
L10L
sass."
EndChar

StartChar: uni0E1B
Encoding: 3611 3611 155
GlifName: uni0E_1B_
Width: 700
VWidth: 0
GlyphClass: 2
Flags: HMW
LayerCount: 2
Fore
SplineSet
177 468 m 0
 201 468 219 485 224 508 c 0
 225 512 225 515 225 518 c 0
 225 536 214 548 194 548 c 0
 170 548 153 531 148 508 c 0
 147 504 147 500 147 497 c 0
 147 480 157 468 177 468 c 0
297 508 m 0
 287 461 268 436 258 390 c 2
 216 192 l 2
 213 180 212 169 212 159 c 0
 212 100 256 74 321 74 c 0
 397 74 457 109 475 192 c 2
 606 810 l 1
 734 810 l 1
 603 192 l 2
 577 71 457 -20 301 -20 c 0
 164 -20 83 50 83 149 c 0
 83 163 85 177 88 192 c 2
 124 360 l 2
 128 379 136 394 147 407 c 1
 102 413 72 442 72 485 c 0
 72 492 73 500 75 508 c 0
 88 570 145 610 208 610 c 0
 263 610 299 580 299 531 c 0
 299 524 299 516 297 508 c 0
EndSplineSet
PickledDataWithLists: "(dp0
Vcom.fontlab.hintData
p1
(dp2
Vvhints
p3
(lp4
(dp5
Vposition
p6
L81L
sVwidth
p7
L10L
sa(dp8
g6
L106L
sg7
L10L
sa(dp9
g6
L194L
sg7
L10L
sa(dp10
g6
L521L
sg7
L10L
sa(dp11
g6
L526L
sg7
L10L
sa(dp12
g6
L609L
sg7
L10L
sa(dp13
g6
L614L
sg7
L10L
sasVhhints
p14
(lp15
(dp16
g6
L-26L
sg7
L10L
sa(dp17
g6
L36L
sg7
L10L
sa(dp18
g6
L600L
sg7
L10L
sa(dp19
g6
L836L
sg7
L10L
sass."
EndChar

StartChar: uni0E1C
Encoding: 3612 3612 156
GlifName: uni0E_1C_
Width: 715
VWidth: 0
GlyphClass: 2
Flags: HMW
LayerCount: 2
Fore
SplineSet
498 211 m 2
 581 600 l 1
 705 600 l 1
 577 0 l 1
 457 0 l 1
 355 269 l 1
 140 0 l 1
 20 0 l 1
 80 280 l 2
 96 354 88 408 100 463 c 0
 119 551 191 610 292 610 c 0
 347 610 383 580 383 531 c 0
 383 524 383 516 381 508 c 0
 368 446 311 406 248 406 c 0
 231 406 216 408 203 414 c 1
 204 386 211 367 211 337 c 0
 211 324 210 310 206 292 c 2
 189 211 l 2
 185 191 177 171 170 152 c 1
 337 360 l 1
 375 360 l 1
 414 360 l 1
 491 152 l 1
 492 171 494 191 498 211 c 2
261 468 m 0
 285 468 303 485 308 508 c 0
 309 512 309 515 309 518 c 0
 309 536 298 548 278 548 c 0
 254 548 237 531 232 508 c 0
 231 504 231 500 231 497 c 0
 231 480 241 468 261 468 c 0
EndSplineSet
PickledDataWithLists: "(dp0
Vcom.fontlab.hintData
p1
(dp2
Vvhints
p3
(lp4
(dp5
Vposition
p6
L64L
sVwidth
p7
L10L
sa(dp8
g6
L148L
sg7
L10L
sa(dp9
g6
L372L
sg7
L10L
sa(dp10
g6
L559L
sg7
L10L
sa(dp11
g6
L643L
sg7
L10L
sa(dp12
g6
L653L
sg7
L10L
sasVhhints
p13
(lp14
(dp15
g6
L-14L
sg7
L10L
sa(dp16
g6
L-8L
sg7
L10L
sa(dp17
g6
L318L
sg7
L10L
sa(dp18
g6
L514L
sg7
L10L
sa(dp19
g6
L544L
sg7
L10L
sa(dp20
g6
L599L
sg7
L10L
sa(dp21
g6
L604L
sg7
L10L
sass."
EndChar

StartChar: uni0E1D
Encoding: 3613 3613 157
GlifName: uni0E_1D_
Width: 715
VWidth: 0
GlyphClass: 2
Flags: HMW
LayerCount: 2
Fore
SplineSet
498 211 m 2
 625 810 l 1
 749 810 l 1
 577 0 l 1
 457 0 l 1
 355 269 l 1
 140 0 l 1
 20 0 l 1
 80 280 l 2
 96 354 88 408 100 463 c 0
 119 551 191 610 292 610 c 0
 347 610 383 580 383 531 c 0
 383 524 383 516 381 508 c 0
 368 446 311 406 248 406 c 0
 231 406 216 408 203 414 c 1
 204 386 211 367 211 337 c 0
 211 324 210 310 206 292 c 2
 189 211 l 2
 185 191 177 171 170 152 c 1
 337 360 l 1
 375 360 l 1
 414 360 l 1
 491 152 l 1
 492 171 494 191 498 211 c 2
261 468 m 0
 285 468 303 485 308 508 c 0
 309 512 309 515 309 518 c 0
 309 536 298 548 278 548 c 0
 254 548 237 531 232 508 c 0
 231 504 231 500 231 497 c 0
 231 480 241 468 261 468 c 0
EndSplineSet
PickledDataWithLists: "(dp0
Vcom.fontlab.hintData
p1
(dp2
Vvhints
p3
(lp4
(dp5
Vposition
p6
L64L
sVwidth
p7
L10L
sa(dp8
g6
L148L
sg7
L10L
sa(dp9
g6
L372L
sg7
L10L
sa(dp10
g6
L559L
sg7
L10L
sa(dp11
g6
L643L
sg7
L10L
sa(dp12
g6
L653L
sg7
L10L
sasVhhints
p13
(lp14
(dp15
g6
L-14L
sg7
L10L
sa(dp16
g6
L-8L
sg7
L10L
sa(dp17
g6
L318L
sg7
L10L
sa(dp18
g6
L514L
sg7
L10L
sa(dp19
g6
L544L
sg7
L10L
sa(dp20
g6
L604L
sg7
L10L
sa(dp21
g6
L834L
sg7
L10L
sass."
EndChar

StartChar: uni0E1E
Encoding: 3614 3614 158
GlifName: uni0E_1E_
Width: 735
VWidth: 0
GlyphClass: 2
Flags: HMW
LayerCount: 2
Fore
SplineSet
725 600 m 1
 597 0 l 1
 486 0 l 1
 402 367 l 1
 163 0 l 1
 52 0 l 1
 129 360 l 2
 133 379 141 395 152 407 c 1
 107 413 77 442 77 485 c 0
 77 492 78 500 80 508 c 0
 93 570 150 610 213 610 c 0
 268 610 304 580 304 531 c 0
 304 524 304 516 302 508 c 0
 292 460 268 436 258 388 c 2
 233 268 l 2
 230 252 223 232 217 214 c 1
 399 495 l 1
 429 495 l 1
 460 495 l 1
 522 212 l 1
 524 231 526 251 530 268 c 2
 601 600 l 1
 725 600 l 1
182 468 m 0
 206 468 224 485 229 508 c 0
 230 512 230 515 230 518 c 0
 230 536 219 548 199 548 c 0
 175 548 158 531 153 508 c 0
 152 504 152 500 152 497 c 0
 152 480 162 468 182 468 c 0
EndSplineSet
PickledDataWithLists: "(dp0
Vcom.fontlab.hintData
p1
(dp2
Vvhints
p3
(lp4
(dp5
Vposition
p6
L58L
sVwidth
p7
L10L
sa(dp8
g6
L104L
sg7
L10L
sa(dp9
g6
L182L
sg7
L10L
sa(dp10
g6
L556L
sg7
L10L
sa(dp11
g6
L656L
sg7
L10L
sasVhhints
p12
(lp13
(dp14
g6
L-12L
sg7
L10L
sa(dp15
g6
L540L
sg7
L10L
sa(dp16
g6
L604L
sg7
L10L
sass."
EndChar

StartChar: uni0E1F
Encoding: 3615 3615 159
GlifName: uni0E_1F_
Width: 735
VWidth: 0
GlyphClass: 2
Flags: HMW
LayerCount: 2
Fore
SplineSet
769 810 m 1
 597 0 l 1
 486 0 l 1
 402 367 l 1
 163 0 l 1
 52 0 l 1
 129 360 l 2
 133 379 141 395 152 407 c 1
 107 413 77 442 77 485 c 0
 77 492 78 500 80 508 c 0
 93 570 150 610 213 610 c 0
 268 610 304 580 304 531 c 0
 304 524 304 516 302 508 c 0
 292 460 268 436 258 388 c 2
 233 268 l 2
 230 252 223 232 217 214 c 1
 399 495 l 1
 429 495 l 1
 460 495 l 1
 522 212 l 1
 524 231 526 251 530 268 c 2
 645 810 l 1
 769 810 l 1
182 468 m 0
 206 468 224 485 229 508 c 0
 230 512 230 515 230 518 c 0
 230 536 219 548 199 548 c 0
 175 548 158 531 153 508 c 0
 152 504 152 500 152 497 c 0
 152 480 162 468 182 468 c 0
EndSplineSet
PickledDataWithLists: "(dp0
Vcom.fontlab.hintData
p1
(dp2
Vvhints
p3
(lp4
(dp5
Vposition
p6
L58L
sVwidth
p7
L10L
sa(dp8
g6
L104L
sg7
L10L
sa(dp9
g6
L182L
sg7
L10L
sa(dp10
g6
L565L
sg7
L10L
sa(dp11
g6
L641L
sg7
L9L
sa(dp12
g6
L686L
sg7
L11L
sasVhhints
p13
(lp14
(dp15
g6
L-12L
sg7
L10L
sa(dp16
g6
L540L
sg7
L10L
sa(dp17
g6
L604L
sg7
L10L
sa(dp18
g6
L834L
sg7
L10L
sass."
EndChar

StartChar: uni0E20
Encoding: 3616 3616 160
GlifName: uni0E_20
Width: 665
VWidth: 0
GlyphClass: 2
Flags: HMW
LayerCount: 2
Fore
SplineSet
116 133 m 0
 92 133 75 116 70 93 c 0
 69 89 69 85 69 82 c 0
 69 65 79 53 99 53 c 0
 123 53 141 70 146 93 c 0
 147 97 147 100 147 103 c 0
 147 121 136 133 116 133 c 0
397 621 m 0
 542 621 627 547 627 441 c 0
 627 426 625 412 622 396 c 2
 538 1 l 1
 410 1 l 1
 494 396 l 2
 497 409 498 420 498 431 c 0
 498 497 450 526 377 526 c 0
 310 526 257 496 225 442 c 1
 370 412 l 1
 344 359 l 2
 343 359 326 363 312 363 c 0
 274 363 258 338 251 306 c 2
 231 211 l 2
 221 165 229 140 219 93 c 0
 206 31 149 -9 86 -9 c 0
 31 -9 -5 21 -5 70 c 0
 -5 77 -5 85 -3 93 c 0
 9 149 57 187 112 194 c 1
 109 202 107 212 107 222 c 0
 107 228 108 234 109 241 c 2
 120 293 l 2
 130 341 161 374 207 389 c 1
 81 413 l 1
 118 517 229 621 397 621 c 0
EndSplineSet
PickledDataWithLists: "(dp0
Vcom.fontlab.hintData
p1
(dp2
Vvhints
p3
(lp4
(dp5
Vposition
p6
L26L
sVwidth
p7
L10L
sa(dp8
g6
L81L
sg7
L10L
sa(dp9
g6
L131L
sg7
L10L
sa(dp10
g6
L219L
sg7
L10L
sa(dp11
g6
L465L
sg7
L10L
sa(dp12
g6
L476L
sg7
L10L
sa(dp13
g6
L556L
sg7
L10L
sa(dp14
g6
L564L
sg7
L10L
sasVhhints
p15
(lp16
(dp17
g6
L-16L
sg7
L10L
sa(dp18
g6
L66L
sg7
L10L
sa(dp19
g6
L544L
sg7
L10L
sa(dp20
g6
L606L
sg7
L10L
sass."
EndChar

StartChar: uni0E21
Encoding: 3617 3617 161
GlifName: uni0E_21
Width: 645
VWidth: 0
GlyphClass: 2
Flags: HMW
LayerCount: 2
Fore
SplineSet
132 132 m 0
 108 132 91 115 86 92 c 0
 85 88 85 84 85 81 c 0
 85 64 95 52 115 52 c 0
 139 52 157 69 162 92 c 0
 163 96 163 99 163 102 c 0
 163 120 152 132 132 132 c 0
193 468 m 0
 217 468 235 485 240 508 c 0
 241 512 241 515 241 518 c 0
 241 536 230 548 210 548 c 0
 186 548 169 531 164 508 c 0
 163 504 163 500 163 497 c 0
 163 480 173 468 193 468 c 0
120 192 m 1
 115 201 112 211 112 223 c 0
 112 228 113 234 114 240 c 2
 140 360 l 2
 144 379 153 395 164 407 c 1
 119 413 88 442 88 485 c 0
 88 492 89 500 91 508 c 0
 104 570 161 610 224 610 c 0
 279 610 315 580 315 531 c 0
 315 524 315 516 313 508 c 0
 302 458 283 437 273 388 c 2
 236 212 l 2
 235 205 233 200 233 194 c 1
 315 182 370 148 406 110 c 1
 411 143 418 178 425 210 c 2
 508 600 l 1
 636 600 l 1
 508 0 l 1
 390 0 l 1
 363 50 317 98 238 117 c 1
 237 109 237 101 235 92 c 0
 222 30 165 -10 102 -10 c 0
 47 -10 11 20 11 69 c 0
 11 76 11 84 13 92 c 0
 24 146 68 183 120 192 c 1
EndSplineSet
PickledDataWithLists: "(dp0
Vcom.fontlab.hintData
p1
(dp2
Vvhints
p3
(lp4
(dp5
Vposition
p6
L25L
sVwidth
p7
L10L
sa(dp8
g6
L56L
sg7
L10L
sa(dp9
g6
L100L
sg7
L10L
sa(dp10
g6
L200L
sg7
L10L
sa(dp11
g6
L280L
sg7
L10L
sa(dp12
g6
L476L
sg7
L10L
sa(dp13
g6
L484L
sg7
L10L
sa(dp14
g6
L556L
sg7
L10L
sa(dp15
g6
L566L
sg7
L10L
sasVhhints
p16
(lp17
(dp18
g6
L-27L
sg7
L10L
sa(dp19
g6
L243L
sg7
L10L
sa(dp20
g6
L297L
sg7
L10L
sa(dp21
g6
L528L
sg7
L10L
sa(dp22
g6
L548L
sg7
L10L
sa(dp23
g6
L588L
sg7
L10L
sa(dp24
g6
L602L
sg7
L10L
sass."
EndChar

StartChar: uni0E22
Encoding: 3618 3618 162
GlifName: uni0E_22
Width: 645
VWidth: 0
GlyphClass: 2
Flags: HMW
LayerCount: 2
Fore
SplineSet
261 468 m 0
 285 468 303 485 308 508 c 0
 309 512 309 515 309 518 c 0
 309 536 298 548 278 548 c 0
 254 548 237 531 232 508 c 0
 231 504 231 500 231 497 c 0
 231 480 241 468 261 468 c 0
512 600 m 1
 640 600 l 1
 553 192 l 2
 527 71 407 -20 251 -20 c 0
 113 -20 31 47 31 143 c 0
 31 155 32 168 35 181 c 0
 50 251 98 291 155 311 c 1
 117 334 91 374 91 426 c 0
 91 438 92 449 95 462 c 0
 113 549 188 610 292 610 c 0
 347 610 383 580 383 531 c 0
 383 524 383 516 381 508 c 0
 368 446 311 406 248 406 c 0
 219 406 195 414 179 429 c 1
 185 372 244 353 346 353 c 1
 330 277 l 1
 236 277 178 248 165 186 c 0
 163 176 162 166 162 157 c 0
 162 100 205 74 271 74 c 0
 347 74 407 109 425 192 c 2
 512 600 l 1
EndSplineSet
PickledDataWithLists: "(dp0
Vcom.fontlab.hintData
p1
(dp2
Vvhints
p3
(lp4
(dp5
Vposition
p6
L44L
sVwidth
p7
L10L
sa(dp8
g6
L114L
sg7
L10L
sa(dp9
g6
L126L
sg7
L10L
sa(dp10
g6
L196L
sg7
L10L
sa(dp11
g6
L335L
sg7
L10L
sa(dp12
g6
L352L
sg7
L10L
sa(dp13
g6
L474L
sg7
L10L
sa(dp14
g6
L562L
sg7
L10L
sasVhhints
p15
(lp16
(dp17
g6
L-26L
sg7
L10L
sa(dp18
g6
L36L
sg7
L10L
sa(dp19
g6
L517L
sg7
L10L
sa(dp20
g6
L546L
sg7
L10L
sa(dp21
g6
L596L
sg7
L10L
sa(dp22
g6
L604L
sg7
L10L
sass."
EndChar

StartChar: uni0E23
Encoding: 3619 3619 163
GlifName: uni0E_23
Width: 530
VWidth: 0
GlyphClass: 2
Flags: HMW
AnchorPoint: "ThaiBelow.mark" 440 0 basechar 0
AnchorPoint: "ThaiTone.mark" 450 0 basechar 0
AnchorPoint: "ThaiAbove.mark" 500 0 basechar 0
LayerCount: 2
Fore
SplineSet
445 567 m 1
 448 571 449 575 452 579 c 2
 479 614 l 1
 569 595 l 1
 568 590 l 1
 454 477 l 1
 415 477 l 1
 403 499 379 534 310 534 c 0
 254 534 197 512 174 444 c 1
 322 437 430 406 430 323 c 0
 430 316 429 308 427 300 c 2
 403 190 l 1
 388 117 l 2
 372 41 308 -10 224 -10 c 0
 169 -10 133 20 133 69 c 0
 133 76 133 84 135 92 c 0
 148 154 204 194 267 194 c 0
 271 194 275 193 279 193 c 1
 279 201 279 210 281 218 c 2
 295 284 l 2
 296 290 297 296 297 301 c 0
 297 365 203 381 39 381 c 1
 47 420 l 2
 72 538 177 620 307 620 c 0
 378 620 421 594 445 567 c 1
254 132 m 0
 230 132 213 115 208 92 c 0
 207 88 207 84 207 81 c 0
 207 64 217 52 237 52 c 0
 261 52 279 69 284 92 c 0
 285 96 285 99 285 102 c 0
 285 120 274 132 254 132 c 0
EndSplineSet
PickledDataWithLists: "(dp0
Vcom.fontlab.hintData
p1
(dp2
Vvhints
p3
(lp4
(dp5
Vposition
p6
L31L
sVwidth
p7
L10L
sa(dp8
g6
L111L
sg7
L10L
sa(dp9
g6
L116L
sg7
L10L
sa(dp10
g6
L362L
sg7
L10L
sa(dp11
g6
L446L
sg7
L10L
sa(dp12
g6
L479L
sg7
L10L
sasVhhints
p13
(lp14
(dp15
g6
L-16L
sg7
L10L
sa(dp16
g6
L46L
sg7
L10L
sa(dp17
g6
L91L
sg7
L10L
sa(dp18
g6
L494L
sg7
L10L
sa(dp19
g6
L548L
sg7
L10L
sa(dp20
g6
L610L
sg7
L10L
sass."
EndChar

StartChar: uni0E24
Encoding: 3620 3620 164
GlifName: uni0E_24
Width: 655
VWidth: 0
GlyphClass: 2
Flags: HMW
LayerCount: 2
Fore
SplineSet
387 620 m 0
 532 620 617 546 617 440 c 0
 617 425 615 411 612 395 c 2
 483 -210 l 1
 355 -210 l 1
 484 395 l 2
 487 408 488 419 488 430 c 0
 488 496 440 525 367 525 c 0
 299 525 247 494 215 440 c 1
 344 411 l 1
 319 358 l 2
 318 358 301 362 287 362 c 0
 249 362 233 337 226 305 c 2
 212 240 l 2
 208 221 200 206 190 193 c 1
 236 188 267 159 267 115 c 0
 267 108 266 100 264 92 c 0
 251 30 194 -10 131 -10 c 0
 76 -10 40 20 40 69 c 0
 40 76 40 84 42 92 c 0
 52 139 68 164 78 210 c 2
 95 292 l 2
 105 340 137 374 183 389 c 1
 71 412 l 1
 108 516 219 620 387 620 c 0
161 132 m 0
 137 132 120 115 115 92 c 0
 114 88 114 84 114 81 c 0
 114 64 124 52 144 52 c 0
 168 52 186 69 191 92 c 0
 192 96 192 99 192 102 c 0
 192 120 181 132 161 132 c 0
EndSplineSet
PickledDataWithLists: "(dp0
Vcom.fontlab.hintData
p1
(dp2
Vvhints
p3
(lp4
(dp5
Vposition
p6
L81L
sVwidth
p7
L10L
sa(dp8
g6
L86L
sg7
L10L
sa(dp9
g6
L111L
sg7
L10L
sa(dp10
g6
L169L
sg7
L10L
sa(dp11
g6
L199L
sg7
L10L
sa(dp12
g6
L315L
sg7
L10L
sa(dp13
g6
L465L
sg7
L10L
sa(dp14
g6
L476L
sg7
L10L
sa(dp15
g6
L556L
sg7
L10L
sa(dp16
g6
L564L
sg7
L10L
sasVhhints
p17
(lp18
(dp19
g6
L-246L
sg7
L10L
sa(dp20
g6
L-19L
sg7
L10L
sa(dp21
g6
L43L
sg7
L10L
sa(dp22
g6
L56L
sg7
L10L
sa(dp23
g6
L544L
sg7
L10L
sa(dp24
g6
L606L
sg7
L10L
sass."
EndChar

StartChar: uni0E240E45.liga
Encoding: 63617 63617 165
GlifName: uni0E_240E_45.liga
Width: 950
VWidth: 0
GlyphClass: 3
Flags: HMW
LayerCount: 2
Fore
SplineSet
161 132 m 0
 137 132 120 115 115 92 c 0
 114 88 114 84 114 81 c 0
 114 64 124 52 144 52 c 0
 168 52 186 69 191 92 c 0
 192 96 192 99 192 102 c 0
 192 120 181 132 161 132 c 0
582 543 m 1
 622 583 678 614 751 614 c 0
 862 614 914 552 914 474 c 0
 914 461 913 448 910 434 c 2
 773 -210 l 1
 645 -210 l 1
 782 434 l 2
 784 445 785 455 785 463 c 0
 785 507 756 519 726 519 c 0
 672 519 638 474 616 424 c 0
 615 415 614 405 612 395 c 2
 483 -210 l 1
 355 -210 l 1
 484 395 l 2
 487 408 488 419 488 430 c 0
 488 496 440 525 367 525 c 0
 299 525 247 494 215 440 c 1
 344 411 l 1
 319 358 l 2
 318 358 301 362 287 362 c 0
 249 362 233 337 226 305 c 2
 212 240 l 2
 208 221 200 206 190 193 c 1
 236 188 267 159 267 115 c 0
 267 108 266 100 264 92 c 0
 251 30 194 -10 131 -10 c 0
 76 -10 40 20 40 69 c 0
 40 76 40 84 42 92 c 0
 52 139 68 164 78 210 c 2
 95 292 l 2
 105 340 137 374 183 389 c 1
 71 412 l 1
 108 516 219 620 387 620 c 0
 478 620 544 591 582 543 c 1
EndSplineSet
PickledDataWithLists: "(dp0
Vcom.fontlab.hintData
p1
(dp2
Vvhints
p3
(lp4
(dp5
Vposition
p6
L81L
sVwidth
p7
L10L
sa(dp8
g6
L86L
sg7
L10L
sa(dp9
g6
L111L
sg7
L10L
sa(dp10
g6
L169L
sg7
L10L
sa(dp11
g6
L199L
sg7
L10L
sa(dp12
g6
L315L
sg7
L10L
sa(dp13
g6
L465L
sg7
L10L
sa(dp14
g6
L476L
sg7
L10L
sa(dp15
g6
L556L
sg7
L10L
sa(dp16
g6
L563L
sg7
L10L
sa(dp17
g6
L756L
sg7
L10L
sa(dp18
g6
L782L
sg7
L10L
sa(dp19
g6
L844L
sg7
L10L
sa(dp20
g6
L870L
sg7
L10L
sasVhhints
p21
(lp22
(dp23
g6
L-245L
sg7
L10L
sa(dp24
g6
L-19L
sg7
L10L
sa(dp25
g6
L43L
sg7
L10L
sa(dp26
g6
L56L
sg7
L10L
sa(dp27
g6
L544L
sg7
L10L
sa(dp28
g6
L606L
sg7
L10L
sass."
Ligature2: "Thai.liga subtable" uni0E24 uni200D uni0E45
Ligature2: "Thai.liga subtable" uni0E24 uni0E45
Colour: ff00ff
EndChar

StartChar: uni0E25
Encoding: 3621 3621 166
GlifName: uni0E_25
Width: 635
VWidth: 0
GlyphClass: 2
Flags: HMW
LayerCount: 2
Fore
SplineSet
160 132 m 0
 136 132 119 115 114 92 c 0
 113 88 113 84 113 81 c 0
 113 64 123 52 143 52 c 0
 167 52 185 69 190 92 c 0
 191 96 191 99 191 102 c 0
 191 120 180 132 160 132 c 0
26 109 m 2
 45 198 l 2
 60 268 109 358 243 358 c 0
 338 358 398 304 432 243 c 1
 466 405 l 2
 469 417 470 429 470 439 c 0
 470 500 426 525 357 525 c 0
 281 525 224 484 198 410 c 1
 72 420 l 1
 107 520 215 620 377 620 c 0
 516 620 599 549 599 448 c 0
 599 434 597 420 594 405 c 2
 508 0 l 1
 380 0 l 1
 400 96 l 1
 397 164 340 272 233 272 c 0
 199 272 177 251 170 219 c 0
 168 209 163 200 159 193 c 1
 164 193 168 194 173 194 c 0
 228 194 265 164 265 115 c 0
 265 108 265 100 263 92 c 0
 250 30 193 -10 130 -10 c 0
 65 -10 23 29 23 84 c 0
 23 92 24 101 26 109 c 2
EndSplineSet
PickledDataWithLists: "(dp0
Vcom.fontlab.hintData
p1
(dp2
Vvhints
p3
(lp4
(dp5
Vposition
p6
L41L
sVwidth
p7
L10L
sa(dp8
g6
L91L
sg7
L10L
sa(dp9
g6
L179L
sg7
L10L
sa(dp10
g6
L504L
sg7
L10L
sa(dp11
g6
L589L
sg7
L10L
sasVhhints
p12
(lp13
(dp14
g6
L-16L
sg7
L10L
sa(dp15
g6
L-6L
sg7
L10L
sa(dp16
g6
L296L
sg7
L10L
sa(dp17
g6
L414L
sg7
L10L
sa(dp18
g6
L549L
sg7
L10L
sa(dp19
g6
L610L
sg7
L10L
sass."
EndChar

StartChar: uni0E26
Encoding: 3622 3622 167
GlifName: uni0E_26
Width: 670
VWidth: 0
GlyphClass: 2
Flags: HMW
LayerCount: 2
Fore
SplineSet
116 133 m 0
 92 133 75 116 70 93 c 0
 69 89 69 85 69 82 c 0
 69 65 79 53 99 53 c 0
 123 53 141 70 146 93 c 0
 147 97 147 100 147 103 c 0
 147 121 136 133 116 133 c 0
397 621 m 0
 542 621 627 547 627 441 c 0
 627 426 625 412 622 396 c 2
 494 -209 l 1
 366 -209 l 1
 494 396 l 2
 497 409 498 420 498 431 c 0
 498 497 450 526 377 526 c 0
 310 526 257 496 225 442 c 1
 370 412 l 1
 344 359 l 2
 343 359 326 363 312 363 c 0
 274 363 258 338 251 306 c 2
 231 211 l 2
 221 165 229 140 219 93 c 0
 206 31 149 -9 86 -9 c 0
 31 -9 -5 21 -5 70 c 0
 -5 77 -5 85 -3 93 c 0
 9 149 57 187 112 194 c 1
 109 202 107 212 107 222 c 0
 107 228 108 234 109 241 c 2
 120 293 l 2
 130 341 161 374 207 389 c 1
 81 413 l 1
 118 517 229 621 397 621 c 0
EndSplineSet
PickledDataWithLists: "(dp0
Vcom.fontlab.hintData
p1
(dp2
Vvhints
p3
(lp4
(dp5
Vposition
p6
L26L
sVwidth
p7
L10L
sa(dp8
g6
L81L
sg7
L10L
sa(dp9
g6
L131L
sg7
L10L
sa(dp10
g6
L219L
sg7
L10L
sa(dp11
g6
L465L
sg7
L10L
sa(dp12
g6
L476L
sg7
L10L
sa(dp13
g6
L556L
sg7
L10L
sa(dp14
g6
L564L
sg7
L10L
sasVhhints
p15
(lp16
(dp17
g6
L-246L
sg7
L10L
sa(dp18
g6
L-16L
sg7
L10L
sa(dp19
g6
L66L
sg7
L10L
sa(dp20
g6
L544L
sg7
L10L
sa(dp21
g6
L606L
sg7
L10L
sass."
EndChar

StartChar: uni0E260E45.liga
Encoding: 63618 63618 168
GlifName: uni0E_260E_45.liga
Width: 960
VWidth: 0
GlyphClass: 3
Flags: HMW
LayerCount: 2
Fore
SplineSet
116 132 m 0
 92 132 75 115 70 92 c 0
 69 88 69 84 69 81 c 0
 69 64 79 52 99 52 c 0
 123 52 141 69 146 92 c 0
 147 96 147 99 147 102 c 0
 147 120 136 132 116 132 c 0
592 543 m 1
 632 583 688 614 761 614 c 0
 872 614 924 552 924 474 c 0
 924 461 923 448 920 434 c 2
 783 -210 l 1
 655 -210 l 1
 792 434 l 2
 794 445 795 455 795 463 c 0
 795 507 766 519 736 519 c 0
 682 519 648 474 626 424 c 0
 625 415 624 405 622 395 c 2
 493 -210 l 1
 365 -210 l 1
 494 395 l 2
 497 408 498 419 498 430 c 0
 498 496 450 525 377 525 c 0
 310 525 257 495 225 441 c 1
 369 411 l 1
 344 358 l 2
 343 358 326 362 312 362 c 0
 274 362 258 337 251 305 c 2
 231 210 l 2
 221 164 229 139 219 92 c 0
 206 30 149 -10 86 -10 c 0
 31 -10 -5 20 -5 69 c 0
 -5 76 -5 84 -3 92 c 0
 9 148 57 186 112 193 c 1
 109 201 107 211 107 221 c 0
 107 227 108 233 109 240 c 2
 120 292 l 2
 130 340 160 373 206 388 c 1
 81 412 l 1
 118 516 229 620 397 620 c 0
 488 620 554 591 592 543 c 1
EndSplineSet
PickledDataWithLists: "(dp0
Vcom.fontlab.hintData
p1
(dp2
Vvhints
p3
(lp4
(dp5
Vposition
p6
L26L
sVwidth
p7
L10L
sa(dp8
g6
L81L
sg7
L10L
sa(dp9
g6
L131L
sg7
L10L
sa(dp10
g6
L219L
sg7
L10L
sa(dp11
g6
L465L
sg7
L10L
sa(dp12
g6
L476L
sg7
L10L
sa(dp13
g6
L556L
sg7
L10L
sa(dp14
g6
L563L
sg7
L10L
sa(dp15
g6
L756L
sg7
L10L
sa(dp16
g6
L782L
sg7
L10L
sa(dp17
g6
L844L
sg7
L10L
sa(dp18
g6
L870L
sg7
L10L
sasVhhints
p19
(lp20
(dp21
g6
L-245L
sg7
L10L
sa(dp22
g6
L-16L
sg7
L10L
sa(dp23
g6
L66L
sg7
L10L
sa(dp24
g6
L544L
sg7
L10L
sa(dp25
g6
L606L
sg7
L10L
sass."
Ligature2: "Thai.liga subtable" uni0E26 uni200D uni0E45
Ligature2: "Thai.liga subtable" uni0E26 uni0E45
Colour: ff00ff
EndChar

StartChar: uni0E27
Encoding: 3623 3623 169
GlifName: uni0E_27
Width: 535
VWidth: 0
GlyphClass: 2
Flags: HMW
AnchorPoint: "ThaiAbove.mark" 485 0 basechar 0
LayerCount: 2
Fore
SplineSet
43 448 m 1
 73 530 166 620 308 620 c 0
 432 620 497 553 497 463 c 0
 497 449 495 435 492 420 c 2
 443 190 l 1
 428 117 l 2
 412 41 348 -10 264 -10 c 0
 209 -10 173 20 173 69 c 0
 173 76 173 84 175 92 c 0
 188 154 244 194 307 194 c 0
 311 194 315 193 319 193 c 1
 319 201 319 210 321 218 c 2
 364 420 l 2
 367 432 368 443 368 453 c 0
 368 505 333 525 288 525 c 0
 234 525 191 496 169 438 c 1
 43 448 l 1
294 132 m 0
 270 132 253 115 248 92 c 0
 247 88 247 84 247 81 c 0
 247 64 257 52 277 52 c 0
 301 52 319 69 324 92 c 0
 325 96 325 99 325 102 c 0
 325 120 314 132 294 132 c 0
EndSplineSet
PickledDataWithLists: "(dp0
Vcom.fontlab.hintData
p1
(dp2
Vvhints
p3
(lp4
(dp5
Vposition
p6
L21L
sVwidth
p7
L10L
sa(dp8
g6
L168L
sg7
L10L
sa(dp9
g6
L255L
sg7
L10L
sa(dp10
g6
L411L
sg7
L10L
sa(dp11
g6
L499L
sg7
L10L
sasVhhints
p12
(lp13
(dp14
g6
L-15L
sg7
L10L
sa(dp15
g6
L46L
sg7
L10L
sa(dp16
g6
L136L
sg7
L10L
sa(dp17
g6
L394L
sg7
L10L
sa(dp18
g6
L552L
sg7
L9L
sa(dp19
g6
L614L
sg7
L10L
sass."
EndChar

StartChar: uni0E28
Encoding: 3624 3624 170
GlifName: uni0E_28
Width: 680
VWidth: 0
GlyphClass: 2
Flags: HMW
LayerCount: 2
Fore
SplineSet
346 357 m 0
 322 357 304 340 299 317 c 0
 298 313 298 310 298 307 c 0
 298 289 309 277 329 277 c 0
 353 277 370 294 375 317 c 0
 376 321 376 325 376 328 c 0
 376 345 366 357 346 357 c 0
409 0 m 1
 429 95 l 2
 443 162 464 235 498 395 c 0
 501 408 502 420 502 431 c 0
 502 441 501 449 499 457 c 1
 470 440 443 422 416 405 c 1
 437 392 450 369 450 341 c 0
 450 333 449 326 447 317 c 0
 434 255 379 215 316 215 c 0
 281 215 254 227 238 248 c 1
 215 214 194 167 176 95 c 2
 154 0 l 1
 16 0 l 1
 16 0 41 71 51 117 c 0
 72 215 54 243 86 395 c 0
 113 523 239 620 402 620 c 0
 468 620 521 604 559 577 c 1
 596 608 642 639 703 644 c 1
 700 533 l 1
 665 532 637 526 610 514 c 1
 620 492 626 467 626 440 c 0
 626 425 624 410 621 395 c 2
 537 0 l 1
 409 0 l 1
469 503 m 1
 448 518 418 525 382 525 c 0
 297 525 229 487 209 395 c 0
 198 343 191 304 185 272 c 1
 207 319 236 361 275 390 c 0
 295 405 320 415 346 418 c 1
 385 446 427 475 469 503 c 1
EndSplineSet
PickledDataWithLists: "(dp0
Vcom.fontlab.hintData
p1
(dp2
Vvhints
p3
(lp4
(dp5
Vposition
p6
L59L
sVwidth
p7
L10L
sa(dp8
g6
L142L
sg7
L10L
sa(dp9
g6
L439L
sg7
L10L
sa(dp10
g6
L508L
sg7
L10L
sa(dp11
g6
L590L
sg7
L10L
sa(dp12
g6
L637L
sg7
L10L
sasVhhints
p13
(lp14
(dp15
g6
L-18L
sg7
L10L
sa(dp16
g6
L-4L
sg7
L10L
sa(dp17
g6
L551L
sg7
L10L
sa(dp18
g6
L608L
sg7
L10L
sa(dp19
g6
L654L
sg7
L10L
sass."
EndChar

StartChar: uni0E29
Encoding: 3625 3625 171
GlifName: uni0E_29
Width: 710
VWidth: 0
GlyphClass: 2
Flags: HMW
LayerCount: 2
Fore
SplineSet
177 468 m 0
 201 468 219 485 224 508 c 0
 225 512 225 515 225 518 c 0
 225 536 214 548 194 548 c 0
 170 548 153 531 148 508 c 0
 147 504 147 500 147 497 c 0
 147 480 157 468 177 468 c 0
390 375 m 0
 372 375 357 363 353 345 c 0
 352 342 352 339 352 337 c 0
 352 323 362 315 377 315 c 0
 395 315 409 327 413 345 c 0
 414 348 414 350 414 353 c 0
 414 366 405 375 390 375 c 0
400 425 m 0
 444 425 472 401 472 363 c 0
 472 357 471 351 470 345 c 0
 466 327 459 311 447 299 c 1
 453 300 459 301 464 301 c 0
 475 301 486 302 498 303 c 1
 562 600 l 1
 690 600 l 1
 634 337 l 1
 661 347 685 356 703 365 c 1
 710 299 l 1
 685 289 654 279 619 270 c 1
 603 192 l 2
 577 71 457 -20 301 -20 c 0
 164 -20 83 50 83 149 c 0
 83 163 85 177 88 192 c 2
 124 360 l 2
 128 379 136 394 147 407 c 1
 102 413 72 442 72 485 c 0
 72 492 73 500 75 508 c 0
 88 570 145 610 208 610 c 0
 263 610 299 580 299 531 c 0
 299 524 299 516 297 508 c 0
 287 461 268 436 258 390 c 2
 216 192 l 2
 213 180 212 169 212 159 c 0
 212 100 256 74 321 74 c 0
 397 74 457 109 475 192 c 2
 487 247 l 1
 464 245 439 244 415 244 c 0
 338 244 294 271 294 323 c 0
 294 330 294 337 296 345 c 0
 306 394 350 425 400 425 c 0
EndSplineSet
PickledDataWithLists: "(dp0
Vcom.fontlab.hintData
p1
(dp2
Vvhints
p3
(lp4
(dp5
Vposition
p6
L84L
sVwidth
p7
L10L
sa(dp8
g6
L109L
sg7
L10L
sa(dp9
g6
L191L
sg7
L10L
sa(dp10
g6
L312L
sg7
L10L
sa(dp11
g6
L375L
sg7
L10L
sa(dp12
g6
L524L
sg7
L10L
sa(dp13
g6
L529L
sg7
L10L
sa(dp14
g6
L606L
sg7
L10L
sa(dp15
g6
L708L
sg7
L10L
sasVhhints
p16
(lp17
(dp18
g6
L-24L
sg7
L10L
sa(dp19
g6
L34L
sg7
L10L
sa(dp20
g6
L391L
sg7
L10L
sa(dp21
g6
L439L
sg7
L10L
sa(dp22
g6
L561L
sg7
L10L
sa(dp23
g6
L599L
sg7
L10L
sa(dp24
g6
L609L
sg7
L10L
sa(dp25
g6
L629L
sg7
L10L
sass."
EndChar

StartChar: uni0E2A
Encoding: 3626 3626 172
GlifName: uni0E_2A_
Width: 650
VWidth: 0
GlyphClass: 2
Flags: HMW
LayerCount: 2
Fore
SplineSet
26 109 m 2
 45 198 l 2
 60 268 109 358 243 358 c 0
 244 358 244 358 245 358 c 0
 295 398 372 451 445 500 c 1
 426 517 395 525 357 525 c 0
 281 525 224 484 198 410 c 1
 72 420 l 1
 107 520 215 620 377 620 c 0
 445 620 499 603 537 574 c 1
 574 606 622 639 684 644 c 1
 681 533 l 1
 643 532 615 525 587 512 c 1
 595 493 599 473 599 450 c 0
 599 436 597 421 594 405 c 2
 508 0 l 1
 380 0 l 1
 400 96 l 1
 397 164 340 272 233 272 c 0
 199 272 177 251 170 219 c 0
 168 209 163 200 159 193 c 1
 164 193 168 194 173 194 c 0
 228 194 265 164 265 115 c 0
 265 108 265 100 263 92 c 0
 250 30 193 -10 130 -10 c 0
 65 -10 23 29 23 84 c 0
 23 92 24 101 26 109 c 2
160 132 m 0
 136 132 119 115 114 92 c 0
 113 88 113 84 113 81 c 0
 113 64 123 52 143 52 c 0
 167 52 185 69 190 92 c 0
 191 96 191 99 191 102 c 0
 191 120 180 132 160 132 c 0
314 347 m 1
 370 328 408 288 432 243 c 1
 466 405 l 2
 469 418 470 430 470 441 c 0
 470 444 470 448 470 451 c 1
 412 415 356 378 314 347 c 1
EndSplineSet
PickledDataWithLists: "(dp0
Vcom.fontlab.hintData
p1
(dp2
Vvhints
p3
(lp4
(dp5
Vposition
p6
L54L
sVwidth
p7
L10L
sa(dp8
g6
L94L
sg7
L10L
sa(dp9
g6
L136L
sg7
L10L
sa(dp10
g6
L176L
sg7
L10L
sa(dp11
g6
L504L
sg7
L10L
sa(dp12
g6
L586L
sg7
L10L
sa(dp13
g6
L616L
sg7
L10L
sasVhhints
p14
(lp15
(dp16
g6
L-14L
sg7
L10L
sa(dp17
g6
L-4L
sg7
L10L
sa(dp18
g6
L294L
sg7
L10L
sa(dp19
g6
L370L
sg7
L10L
sa(dp20
g6
L429L
sg7
L10L
sa(dp21
g6
L548L
sg7
L10L
sa(dp22
g6
L606L
sg7
L10L
sa(dp23
g6
L654L
sg7
L10L
sass."
EndChar

StartChar: uni0E2B
Encoding: 3627 3627 173
GlifName: uni0E_2B_
Width: 660
VWidth: 0
GlyphClass: 2
Flags: HMW
LayerCount: 2
Fore
SplineSet
537 468 m 0
 561 468 579 485 584 508 c 0
 585 512 585 515 585 518 c 0
 585 536 574 548 554 548 c 0
 530 548 513 531 508 508 c 0
 507 504 507 500 507 497 c 0
 507 480 517 468 537 468 c 0
183 468 m 0
 207 468 225 485 230 508 c 0
 231 512 231 515 231 518 c 0
 231 536 220 548 200 548 c 0
 176 548 159 531 154 508 c 0
 153 504 153 500 153 497 c 0
 153 480 163 468 183 468 c 0
448 437 m 1
 438 450 433 466 433 485 c 0
 433 492 433 500 435 508 c 0
 448 570 505 610 568 610 c 0
 623 610 659 580 659 531 c 0
 659 524 659 516 657 508 c 0
 648 466 618 433 581 417 c 1
 595 405 606 390 606 371 c 0
 606 367 606 364 605 360 c 2
 528 0 l 1
 400 0 l 1
 478 368 l 1
 364 335 239 207 198 81 c 1
 181 0 l 1
 53 0 l 1
 130 360 l 2
 134 379 142 394 153 407 c 1
 108 413 78 442 78 485 c 0
 78 492 79 500 81 508 c 0
 94 570 151 610 214 610 c 0
 269 610 305 580 305 531 c 0
 305 524 305 516 303 508 c 0
 293 461 274 436 264 390 c 2
 242 285 l 1
 299 351 370 408 448 437 c 1
EndSplineSet
PickledDataWithLists: "(dp0
Vcom.fontlab.hintData
p1
(dp2
Vvhints
p3
(lp4
(dp5
Vposition
p6
L84L
sVwidth
p7
L10L
sa(dp8
g6
L166L
sg7
L10L
sa(dp9
g6
L191L
sg7
L11L
sa(dp10
g6
L320L
sg7
L10L
sa(dp11
g6
L395L
sg7
L10L
sa(dp12
g6
L493L
sg7
L10L
sa(dp13
g6
L525L
sg7
L10L
sa(dp14
g6
L600L
sg7
L10L
sa(dp15
g6
L638L
sg7
L10L
sasVhhints
p16
(lp17
(dp18
g6
L-24L
sg7
L10L
sa(dp19
g6
L-12L
sg7
L10L
sa(dp20
g6
L553L
sg7
L10L
sa(dp21
g6
L589L
sg7
L10L
sa(dp22
g6
L602L
sg7
L10L
sass."
EndChar

StartChar: uni0E2C
Encoding: 3628 3628 174
GlifName: uni0E_2C_
Width: 760
VWidth: 0
GlyphClass: 2
Flags: HMW
AnchorPoint: "ThaiBelow.mark" 660 0 basechar 0
AnchorPoint: "ThaiTone.mark" 660 0 basechar 0
AnchorPoint: "ThaiAbove.mark" 660 0 basechar 0
LayerCount: 2
Fore
SplineSet
530 268 m 2
 558 400 l 2
 561 414 568 426 575 436 c 1
 525 439 490 469 490 515 c 0
 490 522 491 530 493 538 c 0
 506 600 563 640 626 640 c 0
 681 640 718 610 718 561 c 0
 718 554 717 547 716 540 c 1
 730 561 741 589 753 629 c 1
 824 620 l 1
 796 536 751 491 696 463 c 1
 693 452 690 440 687 425 c 2
 597 0 l 1
 486 0 l 1
 396 337 l 1
 163 0 l 1
 52 0 l 1
 129 360 l 2
 133 379 141 395 152 407 c 1
 107 413 77 442 77 485 c 0
 77 492 78 500 80 508 c 0
 93 570 150 610 213 610 c 0
 268 610 304 580 304 531 c 0
 304 524 304 516 302 508 c 0
 292 460 268 436 258 388 c 2
 233 268 l 2
 229 247 220 221 212 199 c 1
 393 465 l 1
 423 465 l 1
 454 465 l 1
 521 197 l 1
 523 219 525 246 530 268 c 2
596 498 m 0
 620 498 637 515 642 538 c 0
 643 542 643 546 643 549 c 0
 643 566 633 578 613 578 c 0
 589 578 571 561 566 538 c 0
 565 534 565 531 565 528 c 0
 565 510 576 498 596 498 c 0
182 468 m 0
 206 468 224 485 229 508 c 0
 230 512 230 515 230 518 c 0
 230 536 219 548 199 548 c 0
 175 548 158 531 153 508 c 0
 152 504 152 500 152 497 c 0
 152 480 162 468 182 468 c 0
EndSplineSet
PickledDataWithLists: "(dp0
Vcom.fontlab.hintData
p1
(dp2
Vvhints
p3
(lp4
(dp5
Vposition
p6
L58L
sVwidth
p7
L10L
sa(dp8
g6
L104L
sg7
L10L
sa(dp9
g6
L185L
sg7
L10L
sa(dp10
g6
L367L
sg7
L10L
sa(dp11
g6
L430L
sg7
L10L
sa(dp12
g6
L587L
sg7
L10L
sa(dp13
g6
L661L
sg7
L10L
sa(dp14
g6
L760L
sg7
L10L
sasVhhints
p15
(lp16
(dp17
g6
L-18L
sg7
L10L
sa(dp18
g6
L-13L
sg7
L10L
sa(dp19
g6
L329L
sg7
L10L
sa(dp20
g6
L391L
sg7
L10L
sa(dp21
g6
L439L
sg7
L10L
sa(dp22
g6
L561L
sg7
L10L
sa(dp23
g6
L604L
sg7
L10L
sa(dp24
g6
L609L
sg7
L10L
sa(dp25
g6
L629L
sg7
L10L
sass."
EndChar

StartChar: uni0E2D
Encoding: 3629 3629 175
GlifName: uni0E_2D_
Width: 635
VWidth: 0
GlyphClass: 2
Flags: HMW
LayerCount: 2
Fore
SplineSet
72 420 m 1
 107 520 215 620 377 620 c 0
 516 620 599 549 599 448 c 0
 599 434 597 420 594 405 c 2
 548 188 l 2
 523 71 409 -20 257 -20 c 0
 124 -20 48 50 48 146 c 0
 48 160 50 173 53 188 c 2
 68 258 l 2
 81 320 138 360 201 360 c 0
 256 360 292 330 292 281 c 0
 292 274 292 266 290 258 c 0
 278 200 228 162 170 157 c 1
 172 100 219 75 277 75 c 0
 345 75 403 108 420 188 c 2
 466 405 l 2
 469 417 470 429 470 439 c 0
 470 500 426 525 357 525 c 0
 281 525 224 484 198 410 c 1
 72 420 l 1
187 298 m 0
 163 298 146 281 141 258 c 0
 140 254 140 250 140 247 c 0
 140 230 150 218 170 218 c 0
 194 218 212 235 217 258 c 0
 218 262 218 265 218 268 c 0
 218 286 207 298 187 298 c 0
EndSplineSet
PickledDataWithLists: "(dp0
Vcom.fontlab.hintData
p1
(dp2
Vvhints
p3
(lp4
(dp5
Vposition
p6
L50L
sVwidth
p7
L10L
sa(dp8
g6
L61L
sg7
L10L
sa(dp9
g6
L149L
sg7
L10L
sa(dp10
g6
L289L
sg7
L10L
sa(dp11
g6
L481L
sg7
L10L
sa(dp12
g6
L569L
sg7
L10L
sasVhhints
p13
(lp14
(dp15
g6
L-19L
sg7
L10L
sa(dp16
g6
L43L
sg7
L10L
sa(dp17
g6
L215L
sg7
L10L
sa(dp18
g6
L230L
sg7
L10L
sa(dp19
g6
L292L
sg7
L10L
sa(dp20
g6
L414L
sg7
L10L
sa(dp21
g6
L549L
sg7
L9L
sa(dp22
g6
L611L
sg7
L10L
sass."
EndChar

StartChar: uni0E2E
Encoding: 3630 3630 176
GlifName: uni0E_2E_
Width: 640
VWidth: 0
GlyphClass: 2
Flags: HMW
LayerCount: 2
Fore
SplineSet
181 298 m 0
 157 298 140 281 135 258 c 0
 134 254 134 250 134 247 c 0
 134 230 144 218 164 218 c 0
 188 218 206 235 211 258 c 0
 212 262 212 265 212 268 c 0
 212 286 201 298 181 298 c 0
195 360 m 0
 250 360 286 330 286 281 c 0
 286 274 286 266 284 258 c 0
 272 200 222 162 164 157 c 1
 166 100 213 75 271 75 c 0
 339 75 397 108 414 188 c 2
 438 300 l 2
 451 363 463 377 471 414 c 0
 471 416 472 419 472 421 c 1
 433 401 382 385 311 385 c 0
 178 385 90 420 90 476 c 0
 90 480 90 484 91 488 c 0
 103 544 194 620 361 620 c 0
 459 620 509 586 534 555 c 1
 548 575 559 599 565 626 c 1
 683 616 l 1
 671 565 633 520 582 490 c 1
 588 476 592 457 592 437 c 0
 592 429 592 422 590 414 c 2
 542 188 l 2
 517 71 403 -20 251 -20 c 0
 118 -20 42 50 42 146 c 0
 42 160 44 173 47 188 c 2
 62 258 l 2
 75 320 132 360 195 360 c 0
210 484 m 0
 210 471 227 451 325 451 c 0
 391 451 435 465 465 485 c 1
 448 522 406 546 345 546 c 0
 262 546 210 516 210 484 c 0
EndSplineSet
PickledDataWithLists: "(dp0
Vcom.fontlab.hintData
p1
(dp2
Vvhints
p3
(lp4
(dp5
Vposition
p6
L54L
sVwidth
p7
L10L
sa(dp8
g6
L64L
sg7
L10L
sa(dp9
g6
L136L
sg7
L10L
sa(dp10
g6
L146L
sg7
L10L
sa(dp11
g6
L286L
sg7
L10L
sa(dp12
g6
L484L
sg7
L10L
sa(dp13
g6
L566L
sg7
L10L
sa(dp14
g6
L616L
sg7
L10L
sasVhhints
p15
(lp16
(dp17
g6
L-18L
sg7
L10L
sa(dp18
g6
L40L
sg7
L10L
sa(dp19
g6
L216L
sg7
L10L
sa(dp20
g6
L233L
sg7
L10L
sa(dp21
g6
L289L
sg7
L10L
sa(dp22
g6
L363L
sg7
L10L
sa(dp23
g6
L420L
sg7
L10L
sa(dp24
g6
L552L
sg7
L10L
sa(dp25
g6
L610L
sg7
L10L
sa(dp26
g6
L654L
sg7
L10L
sass."
EndChar

StartChar: uni0E2F
Encoding: 3631 3631 177
GlifName: uni0E_2F_
Width: 495
VWidth: 0
GlyphClass: 2
Flags: HMW
LayerCount: 2
Fore
SplineSet
200 548 m 0
 176 548 159 531 154 508 c 0
 153 504 153 500 153 497 c 0
 153 480 163 468 183 468 c 0
 207 468 225 485 230 508 c 0
 231 512 231 515 231 518 c 0
 231 536 220 548 200 548 c 0
214 610 m 0
 269 610 305 580 305 531 c 0
 305 524 305 516 303 508 c 0
 300 493 295 480 287 468 c 1
 346 492 387 540 413 594 c 1
 472 600 l 1
 480 591 483 579 483 562 c 0
 483 540 477 510 469 473 c 2
 402 158 l 2
 376 35 227 -6 92 -20 c 1
 93 72 l 1
 220 86 263 106 274 158 c 2
 316 356 l 2
 325 396 343 415 357 444 c 1
 313 415 258 395 191 395 c 0
 120 395 78 430 78 484 c 0
 78 492 79 500 81 508 c 0
 94 570 151 610 214 610 c 0
EndSplineSet
PickledDataWithLists: "(dp0
Vcom.fontlab.hintData
p1
(dp2
Vvhints
p3
(lp4
(dp5
Vposition
p6
L31L
sVwidth
p7
L10L
sa(dp8
g6
L119L
sg7
L10L
sa(dp9
g6
L153L
sg7
L10L
sa(dp10
g6
L356L
sg7
L10L
sa(dp11
g6
L356L
sg7
L10L
sa(dp12
g6
L434L
sg7
L10L
sa(dp13
g6
L439L
sg7
L10L
sasVhhints
p14
(lp15
(dp16
g6
L-16L
sg7
L10L
sa(dp17
g6
L394L
sg7
L10L
sa(dp18
g6
L456L
sg7
L10L
sa(dp19
g6
L589L
sg7
L10L
sa(dp20
g6
L596L
sg7
L10L
sass."
EndChar

StartChar: uni0E30
Encoding: 3632 3632 178
GlifName: uni0E_30
Width: 540
VWidth: 0
GlyphClass: 2
Flags: HMW
LayerCount: 2
Fore
SplineSet
209 500 m 0
 185 500 168 483 163 460 c 0
 162 456 162 452 162 449 c 0
 162 432 172 420 192 420 c 0
 216 420 234 437 239 460 c 0
 240 464 240 467 240 470 c 0
 240 488 229 500 209 500 c 0
222 562 m 0
 277 562 314 532 314 483 c 0
 314 476 314 468 312 460 c 0
 307 438 297 420 284 404 c 1
 287 404 289 404 291 404 c 2
 311 404 l 2
 372 404 416 461 434 542 c 1
 539 529 l 1
 516 425 433 339 301 339 c 2
 226 339 l 2
 133 339 87 380 87 436 c 0
 87 444 88 452 90 460 c 0
 103 522 159 562 222 562 c 0
146 200 m 0
 122 200 104 183 99 160 c 0
 98 156 98 153 98 150 c 0
 98 132 109 120 129 120 c 0
 153 120 170 137 175 160 c 0
 176 164 176 168 176 171 c 0
 176 188 166 200 146 200 c 0
159 262 m 0
 214 262 250 232 250 183 c 0
 250 176 250 168 248 160 c 0
 243 138 233 120 220 104 c 1
 223 104 225 104 227 104 c 2
 247 104 l 2
 308 104 352 161 370 242 c 1
 476 229 l 1
 453 125 369 39 237 39 c 2
 162 39 l 2
 69 39 23 80 23 136 c 0
 23 144 24 152 26 160 c 0
 39 222 96 262 159 262 c 0
EndSplineSet
PickledDataWithLists: "(dp0
Vcom.fontlab.hintData
p1
(dp2
Vvhints
p3
(lp4
(dp5
Vposition
p6
L51L
sVwidth
p7
L10L
sa(dp8
g6
L60L
sg7
L10L
sa(dp9
g6
L139L
sg7
L10L
sa(dp10
g6
L144L
sg7
L10L
sa(dp11
g6
L154L
sg7
L10L
sa(dp12
g6
L450L
sg7
L10L
sasVhhints
p13
(lp14
(dp15
g6
L60L
sg7
L10L
sa(dp16
g6
L122L
sg7
L10L
sa(dp17
g6
L228L
sg7
L10L
sa(dp18
g6
L360L
sg7
L10L
sa(dp19
g6
L421L
sg7
L10L
sa(dp20
g6
L536L
sg7
L10L
sass."
EndChar

StartChar: uni0E31
Encoding: 3633 3633 179
GlifName: uni0E_31
Width: 0
VWidth: 0
GlyphClass: 4
Flags: HMW
AnchorPoint: "ThaiExtendedAbove.mkmk" -60 0 basemark 0
AnchorPoint: "ThaiAbove.mark" -60 0 mark 0
LayerCount: 2
Fore
SplineSet
-151 843 m 0
 -171 843 -187 829 -191 810 c 0
 -192 807 -192 805 -192 802 c 0
 -192 787 -182 777 -165 777 c 0
 -145 777 -129 791 -125 810 c 0
 -124 813 -124 815 -124 818 c 0
 -124 833 -134 843 -151 843 c 0
-139 898 m 0
 -92 898 -61 872 -61 830 c 0
 -61 824 -62 817 -63 810 c 0
 -67 789 -77 772 -90 758 c 1
 -87 758 -84 758 -81 758 c 2
 -66 758 l 2
 -8 758 41 785 62 882 c 1
 155 872 l 1
 132 765 44 698 -62 698 c 2
 -127 698 l 2
 -207 698 -256 730 -256 786 c 0
 -256 793 -255 802 -253 810 c 0
 -242 864 -193 898 -139 898 c 0
EndSplineSet
PickledDataWithLists: "(dp0
Vcom.fontlab.hintData
p1
(dp2
Vvhints
p3
(lp4
(dp5
Vposition
p6
L-391L
sVwidth
p7
L10L
sa(dp8
g6
L-313L
sg7
L10L
sa(dp9
g6
L-306L
sg7
L10L
sa(dp10
g6
L55L
sg7
L10L
sasVhhints
p11
(lp12
(dp13
g6
L717L
sg7
L10L
sa(dp14
g6
L772L
sg7
L10L
sa(dp15
g6
L882L
sg7
L10L
sa(dp16
g6
L952L
sg7
L10L
sass."
Substitution2: "Thai.sl subtable" uni0E31.sl
EndChar

StartChar: uni0E32
Encoding: 3634 3634 180
GlifName: uni0E_32
Width: 485
VWidth: 0
GlyphClass: 2
Flags: HMW
LayerCount: 2
Fore
SplineSet
47 465 m 1
 74 538 154 620 282 620 c 0
 394 620 451 556 451 477 c 0
 451 465 450 453 447 440 c 2
 353 0 l 1
 225 0 l 1
 319 440 l 2
 321 451 322 460 322 468 c 0
 322 512 293 525 262 525 c 0
 224 525 192 505 173 455 c 1
 47 465 l 1
EndSplineSet
PickledDataWithLists: "(dp0
Vcom.fontlab.hintData
p1
(dp2
Vvhints
p3
(lp4
(dp5
Vposition
p6
L15L
sVwidth
p7
L10L
sa(dp8
g6
L291L
sg7
L10L
sa(dp9
g6
L312L
sg7
L10L
sa(dp10
g6
L379L
sg7
L10L
sa(dp11
g6
L400L
sg7
L10L
sasVhhints
p12
(lp13
(dp14
g6
L-25L
sg7
L10L
sa(dp15
g6
L399L
sg7
L10L
sa(dp16
g6
L545L
sg7
L10L
sa(dp17
g6
L606L
sg7
L10L
sass."
EndChar

StartChar: uni0E33
Encoding: 3635 3635 181
GlifName: uni0E_33
Width: 485
VWidth: 0
GlyphClass: 2
Flags: HMW
LayerCount: 2
Fore
SplineSet
-53 882 m 128
 2 882 39 852 39 803 c 0
 39 796 39 788 37 780 c 128
 24 718 -33 678 -96 678 c 128
 -151 678 -187 708 -187 757 c 0
 -187 764 -187 772 -185 780 c 128
 -172 842 -116 882 -53 882 c 128
-66 820 m 128
 -90 820 -107 803 -112 780 c 128
 -113 776 -113 772 -113 769 c 0
 -113 752 -103 740 -83 740 c 128
 -59 740 -41 757 -36 780 c 128
 -35 784 -35 787 -35 790 c 0
 -35 808 -46 820 -66 820 c 128
47 465 m 1
 74 538 154 620 282 620 c 0
 394 620 451 556 451 477 c 0
 451 465 450 453 447 440 c 2
 353 0 l 1
 225 0 l 1
 319 440 l 2
 321 451 322 460 322 468 c 0
 322 512 293 525 262 525 c 0
 224 525 192 505 173 455 c 1
 47 465 l 1
EndSplineSet
PickledDataWithLists: "(dp0
Vcom.fontlab.hintData
p1
(dp2
Vvhints
p3
(lp4
(dp5
Vposition
p6
L-282L
sVwidth
p7
L10L
sa(dp8
g6
L-218L
sg7
L10L
sa(dp9
g6
L-122L
sg7
L10L
sa(dp10
g6
L-58L
sg7
L10L
sa(dp11
g6
L15L
sg7
L10L
sa(dp12
g6
L291L
sg7
L10L
sa(dp13
g6
L312L
sg7
L10L
sa(dp14
g6
L379L
sg7
L10L
sa(dp15
g6
L400L
sg7
L10L
sasVhhints
p16
(lp17
(dp18
g6
L-25L
sg7
L10L
sa(dp19
g6
L399L
sg7
L10L
sa(dp20
g6
L545L
sg7
L10L
sa(dp21
g6
L606L
sg7
L10L
sa(dp22
g6
L703L
sg7
L10L
sa(dp23
g6
L747L
sg7
L10L
sa(dp24
g6
L863L
sg7
L10L
sa(dp25
g6
L907L
sg7
L10L
sass."
MultipleSubs2: "ThaiDecomp subtable" uni0E4D uni200D uni0E32
Colour: ff00ff
EndChar

StartChar: uni0E34
Encoding: 3636 3636 182
GlifName: uni0E_34
Width: 0
VWidth: 0
GlyphClass: 4
Flags: HMW
AnchorPoint: "ThaiExtendedAbove.mkmk" -60 0 basemark 0
AnchorPoint: "ThaiAbove.mark" -60 0 mark 0
LayerCount: 2
Fore
SplineSet
-319 775 m 1
 -98 735 l 1
 -116 776 -153 826 -231 826 c 0
 -265 826 -299 811 -319 775 c 1
-11 688 m 1
 -25 670 l 1
 -435 737 l 1
 -419 812 -349 895 -221 895 c 0
 -39 895 -15 714 -11 688 c 1
EndSplineSet
PickledDataWithLists: "(dp0
Vcom.fontlab.hintData
p1
(dp2
Vvhints
p3
(lp4
(dp5
Vposition
p6
L-534L
sVwidth
p7
L10L
sa(dp8
g6
L-456L
sg7
L10L
sasVhhints
p9
(lp10
(dp11
g6
L682L
sg7
L10L
sa(dp12
g6
L871L
sg7
L9L
sa(dp13
g6
L919L
sg7
L10L
sass."
Substitution2: "Thai.sl subtable" uni0E34.sl
EndChar

StartChar: uni0E35
Encoding: 3637 3637 183
GlifName: uni0E_35
Width: 0
VWidth: 0
GlyphClass: 4
Flags: HMW
AnchorPoint: "ThaiExtendedAbove.mkmk" -60 0 basemark 0
AnchorPoint: "ThaiAbove.mark" -60 0 mark 0
LayerCount: 2
Fore
SplineSet
-66 834 m 2
 -52 900 l 1
 40 883 l 1
 -4 679 l 1
 -21 665 l 1
 -437 732 l 1
 -421 807 -351 890 -231 890 c 0
 -140 890 -92 834 -65 780 c 1
 -67 792 -68 803 -68 813 c 0
 -68 820 -67 828 -66 834 c 2
-321 770 m 1
 -82 727 l 1
 -103 769 -147 821 -233 821 c 0
 -267 821 -301 806 -321 770 c 1
EndSplineSet
PickledDataWithLists: "(dp0
Vcom.fontlab.hintData
p1
(dp2
Vvhints
p3
(lp4
(dp5
Vposition
p6
L-530L
sVwidth
p7
L10L
sa(dp8
g6
L-460L
sg7
L10L
sa(dp9
g6
L-189L
sg7
L10L
sa(dp10
g6
L-175L
sg7
L10L
sa(dp11
g6
L-116L
sg7
L10L
sasVhhints
p12
(lp13
(dp14
g6
L691L
sg7
L10L
sa(dp15
g6
L861L
sg7
L10L
sa(dp16
g6
L909L
sg7
L10L
sa(dp17
g6
L929L
sg7
L10L
sass."
Substitution2: "Thai.sl subtable" uni0E35.sl
EndChar

StartChar: uni0E36
Encoding: 3638 3638 184
GlifName: uni0E_36
Width: 0
VWidth: 0
GlyphClass: 4
Flags: HMW
AnchorPoint: "ThaiExtendedAbove.mkmk" -60 0 basemark 0
AnchorPoint: "ThaiAbove.mark" -60 0 mark 0
LayerCount: 2
Fore
SplineSet
-64 825 m 0
 -88 825 -105 808 -110 785 c 0
 -111 781 -111 777 -111 774 c 0
 -111 757 -101 745 -81 745 c 0
 -57 745 -39 762 -34 785 c 0
 -33 789 -33 792 -33 795 c 0
 -33 813 -44 825 -64 825 c 0
-50 887 m 0
 5 887 41 857 41 808 c 0
 41 801 41 793 39 785 c 0
 26 723 -31 683 -94 683 c 0
 -117 683 -137 688 -152 698 c 1
 -437 732 l 1
 -421 807 -352 890 -232 890 c 0
 -189 890 -161 876 -140 856 c 1
 -116 876 -83 887 -50 887 c 0
-177 806 m 1
 -190 815 -208 821 -233 821 c 0
 -267 821 -300 807 -320 771 c 1
 -185 752 l 1
 -186 762 -186 773 -183 785 c 0
 -182 792 -179 799 -177 806 c 1
EndSplineSet
PickledDataWithLists: "(dp0
Vcom.fontlab.hintData
p1
(dp2
Vvhints
p3
(lp4
(dp5
Vposition
p6
L-544L
sVwidth
p7
L10L
sa(dp8
g6
L-466L
sg7
L10L
sa(dp9
g6
L-208L
sg7
L10L
sa(dp10
g6
L-134L
sg7
L10L
sa(dp11
g6
L-84L
sg7
L10L
sasVhhints
p12
(lp13
(dp14
g6
L689L
sg7
L10L
sa(dp15
g6
L723L
sg7
L10L
sa(dp16
g6
L824L
sg7
L21L
sa(dp17
g6
L861L
sg7
L10L
sa(dp18
g6
L892L
sg7
L10L
sa(dp19
g6
L909L
sg7
L10L
sass."
Substitution2: "Thai.sl subtable" uni0E36.sl
EndChar

StartChar: uni0E37
Encoding: 3639 3639 185
GlifName: uni0E_37
Width: 0
VWidth: 0
GlyphClass: 4
Flags: HMW
AnchorPoint: "ThaiExtendedAbove.mkmk" -60 0 basemark 0
AnchorPoint: "ThaiAbove.mark" -60 0 mark 0
LayerCount: 2
Fore
SplineSet
-155 883 m 2
 -146 925 l 1
 -72 908 l 1
 -110 731 l 1
 -63 722 l 1
 -65 729 -66 737 -66 745 c 0
 -66 751 -65 757 -64 763 c 2
 -35 900 l 1
 40 883 l 1
 -4 679 l 1
 -20 665 l 1
 -438 731 l 1
 -422 806 -359 890 -241 890 c 0
 -201 890 -173 876 -154 856 c 1
 -156 866 -156 876 -155 883 c 2
-137 735 m 1
 -150 780 -184 821 -243 821 c 0
 -275 821 -305 806 -323 769 c 1
 -137 735 l 1
EndSplineSet
PickledDataWithLists: "(dp0
Vcom.fontlab.hintData
p1
(dp2
Vvhints
p3
(lp4
(dp5
Vposition
p6
L-554L
sVwidth
p7
L10L
sa(dp8
g6
L-476L
sg7
L10L
sa(dp9
g6
L-280L
sg7
L10L
sa(dp10
g6
L-218L
sg7
L10L
sa(dp11
g6
L-159L
sg7
L10L
sa(dp12
g6
L-148L
sg7
L10L
sa(dp13
g6
L-100L
sg7
L10L
sasVhhints
p14
(lp15
(dp16
g6
L698L
sg7
L10L
sa(dp17
g6
L861L
sg7
L10L
sa(dp18
g6
L909L
sg7
L10L
sa(dp19
g6
L922L
sg7
L10L
sa(dp20
g6
L932L
sg7
L10L
sass."
Substitution2: "Thai.sl subtable" uni0E37.sl
EndChar

StartChar: uni0E38
Encoding: 3640 3640 186
GlifName: uni0E_38
Width: 0
VWidth: 0
GlyphClass: 4
Flags: HMW
AnchorPoint: "ThaiExtendedBelow.mkmk" -60 0 mark 0
AnchorPoint: "ThaiExtendedBelow.mkmk" -120 -280 basemark 0
AnchorPoint: "ThaiBelow.mark" -60 0 mark 0
LayerCount: 2
Fore
SplineSet
-265 -117 m 0
 -285 -117 -301 -131 -305 -150 c 0
 -306 -153 -306 -155 -306 -158 c 0
 -306 -173 -296 -183 -279 -183 c 0
 -259 -183 -243 -169 -239 -150 c 0
 -238 -147 -238 -145 -238 -142 c 0
 -238 -127 -248 -117 -265 -117 c 0
-303 -305 m 1
 -293 -260 l 2
 -291 -251 -287 -245 -283 -238 c 1
 -285 -238 -288 -238 -291 -238 c 0
 -338 -238 -369 -212 -369 -170 c 0
 -369 -164 -368 -157 -367 -150 c 0
 -356 -96 -307 -62 -253 -62 c 0
 -206 -62 -175 -88 -175 -130 c 0
 -175 -136 -176 -143 -177 -150 c 0
 -186 -192 -194 -206 -202 -242 c 2
 -216 -305 l 1
 -303 -305 l 1
EndSplineSet
PickledDataWithLists: "(dp0
Vcom.fontlab.hintData
p1
(dp2
Vvhints
p3
(lp4
(dp5
Vposition
p6
L-285L
sVwidth
p7
L10L
sa(dp8
g6
L-185L
sg7
L10L
sa(dp9
g6
L-104L
sg7
L10L
sasVhhints
p10
(lp11
(dp12
g6
L-322L
sg7
L10L
sa(dp13
g6
L-172L
sg7
L10L
sa(dp14
g6
L-98L
sg7
L10L
sass."
Substitution2: "ThaiBV.sd subtable" uni0E38.sd
EndChar

StartChar: uni0E39
Encoding: 3641 3641 187
GlifName: uni0E_39
Width: 0
VWidth: 0
GlyphClass: 4
Flags: HMW
AnchorPoint: "ThaiExtendedBelow.mkmk" -60 0 mark 0
AnchorPoint: "ThaiExtendedBelow.mkmk" -120 -280 basemark 0
AnchorPoint: "ThaiBelow.mark" -90 0 mark 0
LayerCount: 2
Fore
SplineSet
-425 -117 m 0
 -445 -117 -461 -131 -465 -150 c 0
 -466 -153 -466 -155 -466 -158 c 0
 -466 -173 -456 -183 -439 -183 c 0
 -419 -183 -403 -169 -399 -150 c 0
 -398 -147 -398 -145 -398 -142 c 0
 -398 -127 -408 -117 -425 -117 c 0
-337 -150 m 0
 -345 -186 -357 -197 -361 -217 c 2
 -364 -230 l 2
 -364 -232 -365 -233 -365 -235 c 0
 -365 -245 -356 -253 -328 -253 c 0
 -295 -253 -285 -242 -282 -230 c 2
 -248 -69 l 1
 -161 -69 l 1
 -197 -238 l 2
 -207 -284 -264 -310 -340 -310 c 0
 -409 -310 -451 -296 -451 -259 c 0
 -451 -255 -451 -251 -450 -247 c 2
 -448 -238 l 2
 -449 -238 -450 -238 -451 -238 c 0
 -498 -238 -529 -212 -529 -170 c 0
 -529 -164 -528 -157 -527 -150 c 0
 -516 -96 -467 -62 -413 -62 c 0
 -366 -62 -335 -88 -335 -130 c 0
 -335 -136 -336 -143 -337 -150 c 0
EndSplineSet
PickledDataWithLists: "(dp0
Vcom.fontlab.hintData
p1
(dp2
Vvhints
p3
(lp4
(dp5
Vposition
p6
L-401L
sVwidth
p7
L10L
sa(dp8
g6
L-115L
sg7
L10L
sasVhhints
p9
(lp10
(dp11
g6
L-331L
sg7
L10L
sa(dp12
g6
L-267L
sg7
L21L
sa(dp13
g6
L-154L
sg7
L10L
sa(dp14
g6
L-106L
sg7
L10L
sass."
Substitution2: "ThaiBV.sd subtable" uni0E39.sd
EndChar

StartChar: uni0E3A
Encoding: 3642 3642 188
GlifName: uni0E_3A_
Width: 0
VWidth: 0
GlyphClass: 4
Flags: HMW
AnchorPoint: "ThaiExtendedBelow.mkmk" -60 0 mark 0
AnchorPoint: "ThaiExtendedBelow.mkmk" -105 -210 basemark 0
AnchorPoint: "ThaiBelow.mark" -60 0 mark 0
LayerCount: 2
Fore
SplineSet
-225 -69 m 0
 -182 -69 -152 -92 -152 -131 c 0
 -152 -137 -153 -143 -154 -150 c 0
 -165 -200 -209 -231 -259 -231 c 0
 -302 -231 -332 -208 -332 -169 c 0
 -332 -163 -331 -157 -330 -150 c 0
 -319 -100 -275 -69 -225 -69 c 0
EndSplineSet
PickledDataWithLists: "(dp0
Vcom.fontlab.hintData
p1
(dp2
Vvhints
p3
(lp4
(dp5
Vposition
p6
L-229L
sVwidth
p7
L10L
sa(dp8
g6
L-81L
sg7
L10L
sasVhhints
p9
(lp10
(dp11
g6
L-231L
sg7
L10L
sa(dp12
g6
L-110L
sg7
L10L
sass."
Substitution2: "ThaiBV.sd subtable" uni0E3A.sd
EndChar

StartChar: uni0E3F
Encoding: 3647 3647 189
GlifName: uni0E_3F_
Width: 720
VWidth: 0
GlyphClass: 2
Flags: HMW
LayerCount: 2
Fore
SplineSet
367 457 m 1
 423 464 488 500 505 579 c 0
 507 588 508 596 508 604 c 0
 508 662 457 687 372 687 c 0
 346 687 324 686 306 685 c 1
 257 455 l 1
 289 456 326 457 367 457 c 1
520 436 m 1
 603 409 652 356 652 277 c 0
 652 262 650 246 647 230 c 0
 618 95 491 10 325 -6 c 1
 300 -120 l 1
 197 -120 l 1
 221 -9 l 1
 113 -7 31 -1 23 0 c 1
 189 780 l 1
 197 781 284 788 391 789 c 1
 414 900 l 1
 517 900 l 1
 492 782 l 1
 588 764 653 711 653 628 c 0
 653 616 652 604 649 591 c 0
 633 516 583 467 520 436 c 1
181 97 m 1
 206 96 238 94 274 94 c 0
 385 94 483 125 505 230 c 0
 507 241 508 251 508 261 c 0
 508 340 430 362 331 362 c 0
 295 362 261 360 236 359 c 1
 181 97 l 1
EndSplineSet
PickledDataWithLists: "(dp0
Vcom.fontlab.hintData
p1
(dp2
Vvhints
p3
(lp4
(dp5
Vposition
p6
L26L
sVwidth
p7
L10L
sa(dp8
g6
L116L
sg7
L10L
sa(dp9
g6
L121L
sg7
L10L
sa(dp10
g6
L223L
sg7
L10L
sa(dp11
g6
L343L
sg7
L10L
sa(dp12
g6
L350L
sg7
L10L
sa(dp13
g6
L407L
sg7
L10L
sa(dp14
g6
L412L
sg7
L10L
sa(dp15
g6
L537L
sg7
L10L
sa(dp16
g6
L636L
sg7
L10L
sa(dp17
g6
L735L
sg7
L10L
sasVhhints
p18
(lp19
(dp20
g6
L-127L
sg7
L10L
sa(dp21
g6
L-22L
sg7
L10L
sa(dp22
g6
L49L
sg7
L10L
sa(dp23
g6
L395L
sg7
L10L
sa(dp24
g6
L634L
sg7
L10L
sa(dp25
g6
L661L
sg7
L10L
sa(dp26
g6
L916L
sg7
L10L
sass."
EndChar

StartChar: uni0E40
Encoding: 3648 3648 190
GlifName: uni0E_40
Width: 330
VWidth: 0
GlyphClass: 2
Flags: HMW
LayerCount: 2
Fore
SplineSet
161 132 m 0
 137 132 120 115 115 92 c 0
 114 88 114 84 114 81 c 0
 114 64 124 52 144 52 c 0
 168 52 186 69 191 92 c 0
 192 96 192 99 192 102 c 0
 192 120 181 132 161 132 c 0
42 92 m 0
 52 139 68 164 78 210 c 2
 161 600 l 1
 289 600 l 1
 212 240 l 2
 208 221 200 206 190 193 c 1
 236 188 267 159 267 115 c 0
 267 108 266 100 264 92 c 0
 251 30 194 -10 131 -10 c 0
 76 -10 40 20 40 69 c 0
 40 76 40 84 42 92 c 0
EndSplineSet
PickledDataWithLists: "(dp0
Vcom.fontlab.hintData
p1
(dp2
Vvhints
p3
(lp4
(dp5
Vposition
p6
L116L
sVwidth
p7
L10L
sa(dp8
g6
L121L
sg7
L10L
sa(dp9
g6
L204L
sg7
L10L
sa(dp10
g6
L209L
sg7
L10L
sa(dp11
g6
L244L
sg7
L10L
sasVhhints
p12
(lp13
(dp14
g6
L-30L
sg7
L10L
sa(dp15
g6
L586L
sg7
L10L
sass."
EndChar

